<?xml version="1.0" encoding="utf-8" ?>
<svg baseProfile="full" height="200mm" version="1.1" viewBox="0,0,200,200" width="200mm" xmlns="http://www.w3.org/2000/svg" xmlns:ev="http://www.w3.org/2001/xml-events" xmlns:xlink="http://www.w3.org/1999/xlink"><defs /><rect fill="#1a1a1a" height="200" width="200" x="0" y="0" /><rect fill="#1a1a1a" height="200" width="180" x="10" y="0" /><text alignment-baseline="middle" fill="#e1ed5e" style="dominant-baseline: central; font-size:9.0px; font-family:Arial;" text-anchor="middle" x="100.0" y="100.0">2026</text><line stroke="#e1ed5e" stroke-width="0.3" x1="100.0" x2="100.0" y1="15.0" y2="10.0" /><path d="M 100.0 14.0 a86.0,86.0 0 0,1 42.46469731375804,11.215312516191453" fill="none" id="id133" stroke="none" /><text fill="#e1ed5e" style="font-size:6.75px; font-family:Arial;" text-anchor="middle"><textPath startOffset="22.20632615414155" xlink:href="#id133">January</textPath></text><path d="M 100.72285384407766 79.0124445844662 l 0.6370106125896505 -18.495157273552632 a39.50612398893941,39.50612398893941 0 0,0 0.6794285169223437,0.029257621154526438 l -0.9552799619013257 18.48145192587391" fill="#ff0400" stroke="none" /><path d="M 101.44485096284872 79.0497635885617 l 1.527239633225553 -22.144866284276954 a43.19746750523134,43.19746750523134 0 0,0 0.7413710039803261,0.0575446584562462 l -1.90820082656822 22.115296363632243" fill="#ff4d07" stroke="none" /><path d="M 102.16513564639614 79.11191278185805 l 2.8327151987437342 -27.32854277929601 a48.47496179864507,48.47496179864507 0 0,0 0.8292295392460669,0.09317360064530272 l -3.3027114414995262 27.275733225180108" fill="#ffaf10" stroke="none" /><path d="M 102.88285421437855 79.19881850522331 l 2.514863933162423 -18.145954397370076 a39.319394138282945,39.319394138282945 0 0,0 0.6696111911715078,0.09868328335887507 l -2.8268441047625865 18.099976629850232" fill="#ff0000" stroke="none" /><path d="M 103.95276090670814 79.375362276772 l 3.5511567412472806 -18.529155447355333 a39.86638056949885,39.86638056949885 0 0,0 0.6728564003236908,0.13496866400056282 l -3.869579551038097 18.465282827277562" fill="#ff0b01" stroke="none" /><path d="M 104.66035177308747 79.52364482259891 l 5.337786804101514 -23.45282583456511 a45.05258837614956,45.05258837614956 0 0,0 0.7546873062741409,0.17861010242615405 l -5.7406977973381785 23.357469819998087" fill="#ff700a" stroke="none" /><path d="M 105.36241919743992 79.69619591428918 l 7.041040178107078 -26.65959058257793 a48.57371967690243,48.57371967690243 0 0,0 0.806559932361507,0.22046329749235702 l -7.4988979996922955 26.534440744259282" fill="#ffb110" stroke="none" /><path d="M 106.40334571778207 80.00007090966166 l 5.642552627863148 -17.62370133044345 a39.50495200595991,39.50495200595991 0 0,0 0.6458442204826145,0.2129246852796294 l -5.94507967058818 17.523962920904584" fill="#ff0400" stroke="none" /><path d="M 107.08798089147638 80.2323363322302 l 6.183808385000939 -17.246017760520733 a39.3211521127522,39.3211521127522 0 0,0 0.6351633222681211,0.23393601195512814 l -6.479754033041636 17.13701848075928" fill="#ff0000" stroke="none" /><path d="M 107.76421540070413 80.48803036053334 l 14.297186987711198 -35.9297448662616 a59.66983478004826,59.66983478004826 0 0,0 0.9510693428513337,0.38796506487809657 l -14.91354020015092 35.678318915199924" fill="#95ff23" stroke="none" /><path d="M 108.76106565485865 80.91482961587045 l 7.698313196902264 -16.77006254961609 a39.45261564103137,39.45261564103137 0 0,0 0.614750259950845,0.2886334899479594 l -7.985841668152706 16.635064077028126" fill="#ff0300" stroke="none" /><path d="M 109.41281617654863 81.2277094730956 l 8.37564037386317 -16.703816530355397 a39.68606000076156,39.68606000076156 0 0,0 0.6080273140080197,0.31145520614390926 l -8.661928175459945 16.55716879889899" fill="#ff0701" stroke="none" /><line stroke="#e1ed5e" stroke-width="0.3" x1="143.23703022742887" x2="145.7803849466894" y1="26.81831364943548" y2="22.513508569990506" /><path d="M 143.74570117128098 25.957352633546492 a86.0,86.0 0 0,1 28.547481713284135,27.462654790039103" fill="none" id="id134" stroke="none" /><text fill="#e1ed5e" style="font-size:6.75px; font-family:Arial;" text-anchor="middle"><textPath startOffset="19.985693538727396" xlink:href="#id134">February</textPath></text><path d="M 110.68208982089419 81.91981866633111 l 23.338336370869765 -39.50176048755251 a66.88100942847517,66.88100942847517 0 0,0 0.9861379794624645,0.5941370986529718 l -24.01483641654987 39.09417677944092" fill="#2fff31" stroke="none" /><path d="M 111.60114157652 82.49532879139004 l 10.188949850259275 -15.373850574393662 a39.443697583046706,39.443697583046706 0 0,0 0.5627212681489916,0.3799519121878136 l -10.45207581281481 15.196186749907179" fill="#ff0300" stroke="none" /><path d="M 112.19680574252982 82.90503203632743 l 10.695534100381195 -14.99079485728204 a39.41516712238938,39.41516712238938 0 0,0 0.5489119157924254,0.39880785095209215 l -10.951991332527408 14.804467771513274" fill="#ff0200" stroke="none" /><path d="M 112.77801427241765 83.33499621200491 l 31.541464764071794 -41.13617488335435 a72.83675224680937,72.83675224680937 0 0,0 0.9883858656313756,0.7714508456421091 l -32.2448831848626 40.58714564848902" fill="#3aff91" stroke="none" /><path d="M 113.6212207817346 84.01681056812373 l 11.942424363558992 -14.013283679725378 a39.41177935908925,39.41177935908925 0 0,0 0.5125524452063206,0.4444804297072556 l -12.181870607412076 13.805638256598451" fill="#ff0200" stroke="none" /><path d="M 114.16331599549186 84.49514656593476 l 12.421585178890988 -13.598147332077051 a39.41752940058244,39.41752940058244 0 0,0 0.49702147740757463,0.46192729589292203 l -12.65381454009341 13.38231545010949" fill="#ff0200" stroke="none" /><path d="M 114.68862486808459 84.99185889309783 l 12.821017747206144 -13.099908617195055 a39.32992367286444,39.32992367286444 0 0,0 0.4797580203399809,0.4776977869340442 l -13.044611567713448 12.877274979610892" fill="#ff0000" stroke="none" /><path d="M 115.4437574822437 85.77008943001954 l 14.01122758419018 -12.90997451416232 a40.05208493504825,40.05208493504825 0 0,0 0.46280443409886346,0.5110402153518793 l -14.23137565890508 12.666881511540891" fill="#ff0f01" stroke="none" /><path d="M 117.04232023915458 87.72973835380427 l 14.978570134820274 -10.784386871095167 a39.45699226497047,39.45699226497047 0 0,0 0.39210363553310207,0.5546027853920333 l -15.161986390157258 10.524957585371341" fill="#ff0300" stroke="none" /><path d="M 117.45458315368197 88.32363383020206 l 15.621166564698047 -10.449889247016639 a39.794175430620896,39.794175430620896 0 0,0 0.37596658564724683,0.5726229035255762 l -15.798729785703218 10.179448279513387" fill="#ff0a01" stroke="none" /><line stroke="#e1ed5e" stroke-width="0.3" x1="172.23445277983987" x2="176.4835382374775" y1="55.19839476539836" y2="52.563006222186495" /><path d="M 173.08426987136738 54.67131705675599 a86.0,86.0 0 0,1 12.851231095245387,41.99856678651699" fill="none" id="id135" stroke="none" /><text fill="#e1ed5e" style="font-size:6.75px; font-family:Arial;" text-anchor="middle"><textPath startOffset="22.20632615414155" xlink:href="#id135">March</textPath></text><path d="M 118.03404312379186 89.2402003453031 l 16.521868077979047 -9.85757820473749 a40.23912609368364,40.23912609368364 0 0,0 0.34977443696050275,0.5978778938150893 l -16.689102189409876 9.571720898568506" fill="#ff1302" stroke="none" /><path d="M 118.56541770881063 90.18545643968196 l 16.679639769255573 -8.817633605307094 a39.86692993652049,39.86692993652049 0 0,0 0.3155003659198222,0.609446285207559 l -16.828949568335513 8.52921459783919" fill="#ff0b01" stroke="none" /><path d="M 118.89224826269711 90.83032412892265 l 49.59103761835279 -24.06985842805028 a76.12376163517204,76.12376163517204 0 0,0 0.5620174045465096,1.1837519862827186 l -49.998013216741064 23.212664026127023" fill="#3fffc2" stroke="none" /><path d="M 119.34039704204932 91.81776055985345 l 17.650902130135194 -7.467473767439037 a40.165529225017536,40.165529225017536 0 0,0 0.26390342703766945,0.6390630812037805 l -17.77682724405906 7.162536115781953" fill="#ff1101" stroke="none" /><path d="M 119.61058180528143 92.48833698450437 l 17.279484458117214 -6.618756425467918 a39.50374339851229,39.50374339851229 0 0,0 0.2377662810752936,0.6370954233241108 l -17.390855327694133 6.320337865114474" fill="#ff0400" stroke="none" /><path d="M 119.97218684219823 93.5106431181261 l 59.91656052659467 -19.46807064562169 a84.0,84.0 0 0,0 0.4349780649271753,1.3789993342943234 l -60.24279407529006 18.433821144900946" fill="#4dd2ff" stroke="none" /><path d="M 120.28053869075195 94.5502522615342 l 17.809144940754596 -4.785639516032421 a39.44093243570444,39.44093243570444 0 0,0 0.17054196855321524,0.6571677732828224 l -17.888883241178114 4.478375317200748" fill="#ff0200" stroke="none" /><line stroke="#e1ed5e" stroke-width="0.3" x1="184.98032266829074" x2="189.97916517819016" y1="98.17113171792111" y2="98.06355123074" /><path d="M 185.9800911702706 98.14961562048488 a86.0,86.0 0 0,1 -9.607161424134198,41.387399972396054" fill="none" id="id136" stroke="none" /><text fill="#e1ed5e" style="font-size:6.75px; font-family:Arial;" text-anchor="middle"><textPath startOffset="21.466115282336823" xlink:href="#id136">April</textPath></text><line stroke="#e1ed5e" stroke-width="0.3" x1="174.80103733775053" x2="179.2010983576182" y1="140.37084112569926" y2="142.7455964860345" /><path d="M 175.68104954172406 140.8457921977663 a86.0,86.0 0 0,1 -30.038265399797805,32.042727171017184" fill="none" id="id137" stroke="none" /><text fill="#e1ed5e" style="font-size:6.75px; font-family:Arial;" text-anchor="middle"><textPath startOffset="22.206326154141568" xlink:href="#id137">May</textPath></text><line stroke="#e1ed5e" stroke-width="0.3" x1="143.8653032363475" x2="146.44561519142675" y1="172.8068346515853" y2="177.08958963109032" /><path d="M 144.38136562736335 173.6633856474863 a86.0,86.0 0 0,1 -40.68145358897372,12.25698825130547" fill="none" id="id138" stroke="none" /><text fill="#e1ed5e" style="font-size:6.75px; font-family:Arial;" text-anchor="middle"><textPath startOffset="21.466115282336833" xlink:href="#id138">June</textPath></text><line stroke="#e1ed5e" stroke-width="0.3" x1="102.19456741930631" x2="102.32365962044197" y1="184.97166512339345" y2="189.96999836594603" /><path d="M 102.22038585953345 185.97133177190398 a86.0,86.0 0 0,1 -42.740103519485714,-10.115201625700543" fill="none" id="id139" stroke="none" /><text fill="#e1ed5e" style="font-size:6.75px; font-family:Arial;" text-anchor="middle"><textPath startOffset="22.20632615414155" xlink:href="#id139">July</textPath></text><line stroke="#e1ed5e" stroke-width="0.3" x1="58.666819895761336" x2="56.23545636021788" y1="174.27360380694188" y2="178.64263932499728" /><path d="M 58.180547188652646 175.14741091055294 a86.0,86.0 0 0,1 -31.652253787137756,-30.449443065178592" fill="none" id="id140" stroke="none" /><text fill="#e1ed5e" style="font-size:6.75px; font-family:Arial;" text-anchor="middle"><textPath startOffset="22.20632615414155" xlink:href="#id140">August</textPath></text><line stroke="#e1ed5e" stroke-width="0.3" x1="26.63291911575756" x2="22.317208475507996" y1="142.92168965132927" y2="145.44649492493687" /><path d="M 25.769776987707644 143.4266507060508 a86.0,86.0 0 0,1 -11.730757126820373,-40.83630448921669" fill="none" id="id141" stroke="none" /><text fill="#e1ed5e" style="font-size:6.75px; font-family:Arial;" text-anchor="middle"><textPath startOffset="21.46611528233685" xlink:href="#id141">September</textPath></text><line stroke="#e1ed5e" stroke-width="0.3" x1="15.007084014347285" x2="10.007500721073583" y1="101.09737516637583" y2="101.16192664675087" /><path d="M 14.007167355692545 101.11028546245083 a86.0,86.0 0 0,1 10.666146001902534,-42.60595125391555" fill="none" id="id142" stroke="none" /><text fill="#e1ed5e" style="font-size:6.75px; font-family:Arial;" text-anchor="middle"><textPath startOffset="22.20632615414155" xlink:href="#id142">October</textPath></text><line stroke="#e1ed5e" stroke-width="0.3" x1="26.266209847984243" x2="21.928928074336255" y1="57.711370442889674" y2="55.22380399835377" /><path d="M 25.398753493254645 57.213857153982495 a86.0,86.0 0 0,1 29.58750427330803,-30.492523968695096" fill="none" id="id143" stroke="none" /><text fill="#e1ed5e" style="font-size:6.75px; font-family:Arial;" text-anchor="middle"><textPath startOffset="21.46611528233685" xlink:href="#id143">November</textPath></text><line stroke="#e1ed5e" stroke-width="0.3" x1="56.762969772571076" x2="54.21961505331055" y1="26.818313649435495" y2="22.513508569990535" /><path d="M 56.25429882871897 25.957352633546506 a86.0,86.0 0 0,1 42.265352541879196,-11.944610805530505" fill="none" id="id144" stroke="none" /><text fill="#e1ed5e" style="font-size:6.75px; font-family:Arial;" text-anchor="middle"><textPath startOffset="22.20632615414155" xlink:href="#id144">December</textPath></text></svg>