<?xml version="1.0" encoding="utf-8" ?>
<svg baseProfile="full" height="200mm" version="1.1" viewBox="0,0,200,200" width="200mm" xmlns="http://www.w3.org/2000/svg" xmlns:ev="http://www.w3.org/2001/xml-events" xmlns:xlink="http://www.w3.org/1999/xlink"><defs /><rect fill="#1a1a1a" height="200" width="200" x="0" y="0" /><rect fill="#1a1a1a" height="200" width="180" x="10" y="0" /><text alignment-baseline="middle" fill="#e1ed5e" style="dominant-baseline: central; font-size:9.0px; font-family:Arial;" text-anchor="middle" x="100.0" y="100.0">2026</text><line stroke="#e1ed5e" stroke-width="0.3" x1="100.0" x2="100.0" y1="15.0" y2="10.0" /><path d="M 100.0 14.0 a86.0,86.0 0 0,1 42.46469731375804,11.215312516191453" fill="none" id="id133" stroke="none" /><text fill="#e1ed5e" style="font-size:6.75px; font-family:Arial;" text-anchor="middle"><textPath startOffset="22.20632615414155" xlink:href="#id133">January</textPath></text><path d="M 100.72285384407766 79.0124445844662 l 0.7280284835921235 -21.13779745194958 a42.15033112252779,42.15033112252779 0 0,0 0.7249037382250566,0.03121587984349032 l -1.0917730542065116 21.122133845581896" fill="#ff0500" stroke="none" /><path d="M 101.44485096284872 79.0497635885617 l 1.7454559347745704 -25.30898716859844 a46.36910420019832,46.36910420019832 0 0,0 0.7958038125824451,0.06176969202649126 l -2.1808499367193566 25.27519221438348" fill="#ff5d08" stroke="none" /><path d="M 102.16513564639614 79.11191278185805 l 3.237461527062897 -31.23332196540645 a52.400661746752306,52.400661746752306 0 0,0 0.8963839265503651,0.1007191785198675 l -3.774612157122988 31.172966833415984" fill="#ffd213" stroke="none" /><path d="M 102.88285421437855 79.19881850522331 l 2.8741947771601524 -20.738699484994733 a41.936920784728,41.936920784728 0 0,0 0.7141877970440463,0.10525271631712724 l -3.2307515546328545 20.686152284516634" fill="#ff0000" stroke="none" /><path d="M 103.95276090670814 79.375362276772 l 4.058556021253654 -21.176653380609636 a42.56206217828294,42.56206217828294 0 0,0 0.7183535484920137,0.1440949639081807 l -4.422475979212793 21.103654460624245" fill="#ff0d01" stroke="none" /><path d="M 104.66035177308747 79.52364482259891 l 6.10046482103336 -26.803831664398906 a48.48928996766011,48.48928996766011 0 0,0 0.8122563641251701,0.19223483843783198 l -6.560944872121054 26.694850913820204" fill="#ff870c" stroke="none" /><path d="M 105.36241919743992 79.69619591428918 l 8.047083835761192 -30.46878799415532 a52.51353042888963,52.51353042888963 0 0,0 0.8719799478508906,0.23834505898100758 l -8.570361672835794 30.32575639434802" fill="#ffd413" stroke="none" /><path d="M 106.40334571778207 80.00007090966166 l 6.448776444323088 -20.14182542850102 a42.1489916833183,42.1489916833183 0 0,0 0.6890701366687931,0.22717559023158213 l -6.794529403234299 20.0278361140102" fill="#ff0500" stroke="none" /><path d="M 107.08798089147638 80.2323363322302 l 7.067368348942378 -19.710177366044608 a41.938929943542234,41.938929943542234 0 0,0 0.6774488702397737,0.24951013613550693 l -7.405599544954728 19.585603962102777" fill="#ff0000" stroke="none" /><path d="M 107.76421540070413 80.48803036053334 l 16.340009344556307 -41.063488039070876 a65.19508971950509,65.19508971950509 0 0,0 1.0391356263214593,0.4238895131182507 l -17.044428840466153 40.77613763976905" fill="#55ff2b" stroke="none" /><path d="M 108.76106565485865 80.91482961587045 l 8.798269875243593 -19.16621633367812 a42.08917735111943,42.08917735111943 0 0,0 0.6558331379886547,0.3079224520479633 l -9.126881224531845 19.011928898990153" fill="#ff0300" stroke="none" /><path d="M 109.41281617654863 81.2277094730956 l 9.572375467509815 -19.090504896547877 a42.35597689866006,42.35597689866006 0 0,0 0.6489329216703248,0.3324086471709633 l -9.899568876768894 18.922903724064412" fill="#ff0901" stroke="none" /><line stroke="#e1ed5e" stroke-width="0.3" x1="143.23703022742887" x2="145.7803849466894" y1="26.81831364943548" y2="22.513508569990506" /><path d="M 143.74570117128098 25.957352633546492 a86.0,86.0 0 0,1 28.547481713284135,27.462654790039103" fill="none" id="id134" stroke="none" /><text fill="#e1ed5e" style="font-size:6.75px; font-family:Arial;" text-anchor="middle"><textPath startOffset="19.985693538727396" xlink:href="#id134">February</textPath></text><path d="M 110.68208982089419 81.91981866633111 l 26.67298362357499 -45.14588331591534 a73.43661731803209,73.43661731803209 0 0,0 1.082798211920072,0.6523738071699575 l -27.4461439017127 44.68006289928677" fill="#3aff90" stroke="none" /><path d="M 111.60114157652 82.49532879139004 l 11.644775710603247 -17.570509657831664 a42.078985055884715,42.078985055884715 0 0,0 0.6003174469943019,0.4053370199698932 l -11.94549785200409 17.3674607255631" fill="#ff0300" stroke="none" /><path d="M 112.19680574252982 82.90503203632743 l 12.223742145602802 -17.132721860660826 a42.04637808262865,42.04637808262865 0 0,0 0.5855552476487692,0.4254307899135394 l -12.51684270960536 16.91977183593061" fill="#ff0200" stroke="none" /><path d="M 112.77801427241765 83.33499621200491 l 36.04819811260185 -47.01382744529089 a80.2433334496041,80.2433334496041 0 0,0 1.0888922713630236,0.8498976895218516 l -36.85212293912431 46.38635136654582" fill="#46fff8" stroke="none" /><path d="M 113.6212207817346 84.01681056812373 l 13.648791602497614 -16.01554113207324 a42.04250626616371,42.04250626616371 0 0,0 0.5467651991295993,0.4741493927714474 l -13.922450600273978 15.77822674588212" fill="#ff0200" stroke="none" /><path d="M 114.16331599549186 84.49514656593476 l 14.196416265083323 -15.54108893349257 a42.04907788978528,42.04907788978528 0 0,0 0.5302030628053125,0.4927659632603043 l -14.461827211683483 15.294418384157625" fill="#ff0200" stroke="none" /><path d="M 114.68862486808459 84.99185889309783 l 14.652920884096808 -14.97166046732022 a41.948954808875776,41.948954808875776 0 0,0 0.5117057353539434,0.5095083083067863 l -14.908462419618074 14.717216308363316" fill="#ff0000" stroke="none" /><path d="M 115.4437574822437 85.77008943001954 l 16.01319125581525 -14.754588044537167 a42.77430050677443,42.77430050677443 0 0,0 0.4942598112461688,0.5457740284421393 l -16.264794707677456 14.47676122882548" fill="#ff1202" stroke="none" /><path d="M 117.04232023915458 87.72973835380427 l 17.118750435412515 -12.325290450524875 a42.09417931941738,42.09417931941738 0 0,0 0.4183106668416564,0.5916707726368325 l -17.328373722058053 12.028793177556249" fill="#ff0300" stroke="none" /><path d="M 117.45458315368197 88.32363383020206 l 17.853162853604047 -11.942998863524378 a42.47954016573567,42.47954016573567 0 0,0 0.40133731892048236,0.6112642708866745 l -18.056096807882454 11.63391652866003" fill="#ff0c01" stroke="none" /><line stroke="#e1ed5e" stroke-width="0.3" x1="172.23445277983987" x2="176.4835382374775" y1="55.19839476539836" y2="52.563006222186495" /><path d="M 173.08426987136738 54.67131705675599 a86.0,86.0 0 0,1 12.851231095245387,41.99856678651699" fill="none" id="id135" stroke="none" /><text fill="#e1ed5e" style="font-size:6.75px; font-family:Arial;" text-anchor="middle"><textPath startOffset="22.20632615414155" xlink:href="#id135">March</textPath></text><path d="M 118.03404312379186 89.2402003453031 l 18.882559136685295 -11.26605675078262 a42.988066633114244,42.988066633114244 0 0,0 0.37366931795713976,0.6387219910778196 l -19.07368812911276 10.939355347350906" fill="#ff1602" stroke="none" /><path d="M 118.56541770881063 90.18545643968196 l 19.06287369170795 -10.077521937107786 a42.56269004041239,42.56269004041239 0 0,0 0.33683417066887644,0.650656405569063 l -19.23351729553694 9.747892809278378" fill="#ff0d01" stroke="none" /><path d="M 118.89224826269711 90.83032412892265 l 56.676744788091334 -27.509027613232025 a84.0,84.0 0 0,0 0.6201672246329752,1.3062303374378386 l -57.14187020656606 26.529354860153646" fill="#4dd2ff" stroke="none" /><path d="M 119.34039704204932 91.81776055985345 l 20.172912755086628 -8.534447457745431 a42.903954036505695,42.903954036505695 0 0,0 0.28189596208900847,0.6826334319856764 l -20.316830404061832 8.185939455306452" fill="#ff1502" stroke="none" /><line stroke="#e1ed5e" stroke-width="0.3" x1="184.98032266829074" x2="189.97916517819016" y1="98.17113171792111" y2="98.06355123074" /><path d="M 185.9800911702706 98.14961562048488 a86.0,86.0 0 0,1 -9.607161424134198,41.387399972396054" fill="none" id="id136" stroke="none" /><text fill="#e1ed5e" style="font-size:6.75px; font-family:Arial;" text-anchor="middle"><textPath startOffset="21.466115282336823" xlink:href="#id136">April</textPath></text><line stroke="#e1ed5e" stroke-width="0.3" x1="174.80103733775053" x2="179.2010983576182" y1="140.37084112569926" y2="142.7455964860345" /><path d="M 175.68104954172406 140.8457921977663 a86.0,86.0 0 0,1 -30.038265399797805,32.042727171017184" fill="none" id="id137" stroke="none" /><text fill="#e1ed5e" style="font-size:6.75px; font-family:Arial;" text-anchor="middle"><textPath startOffset="22.206326154141568" xlink:href="#id137">May</textPath></text><line stroke="#e1ed5e" stroke-width="0.3" x1="143.8653032363475" x2="146.44561519142675" y1="172.8068346515853" y2="177.08958963109032" /><path d="M 144.38136562736335 173.6633856474863 a86.0,86.0 0 0,1 -40.68145358897372,12.25698825130547" fill="none" id="id138" stroke="none" /><text fill="#e1ed5e" style="font-size:6.75px; font-family:Arial;" text-anchor="middle"><textPath startOffset="21.466115282336833" xlink:href="#id138">June</textPath></text><line stroke="#e1ed5e" stroke-width="0.3" x1="102.19456741930631" x2="102.32365962044197" y1="184.97166512339345" y2="189.96999836594603" /><path d="M 102.22038585953345 185.97133177190398 a86.0,86.0 0 0,1 -42.740103519485714,-10.115201625700543" fill="none" id="id139" stroke="none" /><text fill="#e1ed5e" style="font-size:6.75px; font-family:Arial;" text-anchor="middle"><textPath startOffset="22.20632615414155" xlink:href="#id139">July</textPath></text><line stroke="#e1ed5e" stroke-width="0.3" x1="58.666819895761336" x2="56.23545636021788" y1="174.27360380694188" y2="178.64263932499728" /><path d="M 58.180547188652646 175.14741091055294 a86.0,86.0 0 0,1 -31.652253787137756,-30.449443065178592" fill="none" id="id140" stroke="none" /><text fill="#e1ed5e" style="font-size:6.75px; font-family:Arial;" text-anchor="middle"><textPath startOffset="22.20632615414155" xlink:href="#id140">August</textPath></text><line stroke="#e1ed5e" stroke-width="0.3" x1="26.63291911575756" x2="22.317208475507996" y1="142.92168965132927" y2="145.44649492493687" /><path d="M 25.769776987707644 143.4266507060508 a86.0,86.0 0 0,1 -11.730757126820373,-40.83630448921669" fill="none" id="id141" stroke="none" /><text fill="#e1ed5e" style="font-size:6.75px; font-family:Arial;" text-anchor="middle"><textPath startOffset="21.46611528233685" xlink:href="#id141">September</textPath></text><line stroke="#e1ed5e" stroke-width="0.3" x1="15.007084014347285" x2="10.007500721073583" y1="101.09737516637583" y2="101.16192664675087" /><path d="M 14.007167355692545 101.11028546245083 a86.0,86.0 0 0,1 10.666146001902534,-42.60595125391555" fill="none" id="id142" stroke="none" /><text fill="#e1ed5e" style="font-size:6.75px; font-family:Arial;" text-anchor="middle"><textPath startOffset="22.20632615414155" xlink:href="#id142">October</textPath></text><line stroke="#e1ed5e" stroke-width="0.3" x1="26.266209847984243" x2="21.928928074336255" y1="57.711370442889674" y2="55.22380399835377" /><path d="M 25.398753493254645 57.213857153982495 a86.0,86.0 0 0,1 29.58750427330803,-30.492523968695096" fill="none" id="id143" stroke="none" /><text fill="#e1ed5e" style="font-size:6.75px; font-family:Arial;" text-anchor="middle"><textPath startOffset="21.46611528233685" xlink:href="#id143">November</textPath></text><line stroke="#e1ed5e" stroke-width="0.3" x1="56.762969772571076" x2="54.21961505331055" y1="26.818313649435495" y2="22.513508569990535" /><path d="M 56.25429882871897 25.957352633546506 a86.0,86.0 0 0,1 42.265352541879196,-11.944610805530505" fill="none" id="id144" stroke="none" /><text fill="#e1ed5e" style="font-size:6.75px; font-family:Arial;" text-anchor="middle"><textPath startOffset="22.20632615414155" xlink:href="#id144">December</textPath></text></svg>