<?xml version="1.0" encoding="utf-8" ?>
<svg baseProfile="full" height="200mm" version="1.1" viewBox="0,0,200,200" width="200mm" xmlns="http://www.w3.org/2000/svg" xmlns:ev="http://www.w3.org/2001/xml-events" xmlns:xlink="http://www.w3.org/1999/xlink"><defs /><rect fill="#1a1a1a" height="200" width="200" x="0" y="0" /><text alignment-baseline="middle" fill="#e1ed5e" style="dominant-baseline: central; font-size:9.0px; font-family:Arial;" text-anchor="middle" x="100.0" y="100.0">2025</text><line stroke="#e1ed5e" stroke-width="0.3" x1="100.0" x2="100.0" y1="15.0" y2="10.0" /><path d="M 100.0 14.0 a86.0,86.0 0 0,1 42.46469731375804,11.215312516191453" fill="none" id="id13" stroke="none" /><text fill="#e1ed5e" style="font-size:6.75px; font-family:Arial;" text-anchor="middle"><textPath startOffset="22.20632615414155" xlink:href="#id13">January</textPath></text><path d="M 103.95276090670814 79.375362276772 l 11.697669195979474 -61.035867098311996 a83.14670173920231,83.14670173920231 0 0,0 1.4033325732567377,0.28149531232788505 l -12.746568178703338 60.825467829906906" fill="red" stroke="none" /><line stroke="#e1ed5e" stroke-width="0.3" x1="143.23703022742887" x2="145.7803849466894" y1="26.81831364943548" y2="22.513508569990506" /><path d="M 143.74570117128098 25.957352633546492 a86.0,86.0 0 0,1 28.547481713284135,27.462654790039103" fill="none" id="id14" stroke="none" /><text fill="#e1ed5e" style="font-size:6.75px; font-family:Arial;" text-anchor="middle"><textPath startOffset="19.985693538727396" xlink:href="#id14">February</textPath></text><line stroke="#e1ed5e" stroke-width="0.3" x1="172.23445277983987" x2="176.4835382374775" y1="55.19839476539836" y2="52.563006222186495" /><path d="M 173.08426987136738 54.67131705675599 a86.0,86.0 0 0,1 12.851231095245387,41.99856678651699" fill="none" id="id15" stroke="none" /><text fill="#e1ed5e" style="font-size:6.75px; font-family:Arial;" text-anchor="middle"><textPath startOffset="22.20632615414155" xlink:href="#id15">March</textPath></text><path d="M 120.6074358757038 95.95851677861258 l 26.4473733300477 -5.186798406548807 a47.951186129168704,47.951186129168704 0 0,0 0.1518780206212025,0.8113384592079389 l -26.532737074578762 4.730781869878305" fill="red" stroke="none" /><path d="M 120.78858239683441 97.02765380044208 l 27.279095023666496 -3.90035803659807 a48.55652042845543,48.55652042845543 0 0,0 0.11118056066809748,0.8284243163180003 l -27.34219158339243 3.4302153782154052" fill="red" stroke="none" /><path d="M 120.87857604477298 97.74499172005257 l 30.68207295732565 -3.3138432628906203 a51.860511307002994,51.860511307002994 0 0,0 0.08821935845121079,0.8883569003480144 l -30.73456944145909 2.785210831838171" fill="red" stroke="none" /><line stroke="#e1ed5e" stroke-width="0.3" x1="184.98032266829074" x2="189.97916517819016" y1="98.17113171792111" y2="98.06355123074" /><path d="M 185.9800911702706 98.14961562048488 a86.0,86.0 0 0,1 -9.607161424134198,41.387399972396054" fill="none" id="id16" stroke="none" /><text fill="#e1ed5e" style="font-size:6.75px; font-family:Arial;" text-anchor="middle"><textPath startOffset="21.466115282336823" xlink:href="#id16">April</textPath></text><path d="M 120.99513854157772 99.54816195383933 l 27.835052494773723 -0.5990403782814504 a48.841497746378884,48.841497746378884 0 0,0 0.01085442487345058,0.8406871684446471 l -27.841239926764892 0.11981695177634058" fill="red" stroke="none" /><path d="M 120.89721153311464 102.0752229133903 l 23.267781926703847 2.31063527885281 a44.38223067161312,44.38223067161312 0 0,0 -0.0820388594724498,0.7595779498254943 l -23.224560765730345 -2.710809550563096" fill="red" stroke="none" /><path d="M 120.81339534386255 102.79330883721812 l 29.75236049718523 3.9929828906744596 a51.0191083731627,51.0191083731627 0 0,0 -0.12430671886665381,0.8694009022313565 l -29.679219727301973 -4.504529264886226" fill="red" stroke="none" /><path d="M 120.76222939487914 103.15116336523771 l 32.82632746539259 4.982177903773396 a54.20225702463667,54.20225702463667 0 0,0 -0.14794182296717642,0.9212338728381054 l -32.73570388806412 -5.546491006304706" fill="red" stroke="none" /><path d="M 120.64145759157962 103.86396538481128 l 53.705034266510594 10.053281967866118 a75.6378914663853,75.6378914663853 0 0,0 -0.2505777704236128,1.2776906529154672 l -53.52402656311132 -10.97623634784953" fill="red" stroke="none" /><path d="M 120.41448212921028 104.9243191809786 l 32.243713150850404 7.7777302470737135 a54.168511054169564,54.168511054169564 0 0,0 -0.22644678057328635,0.9045423241900801 l -32.105055055982056 -8.33160041066119" fill="red" stroke="none" /><path d="M 120.13307415673323 105.97154293290107 l 49.92565602744806 14.80813094414849 a73.07544403872241,73.07544403872241 0 0,0 -0.36806788412015023,1.2028671415699002 l -49.66336137082178 -15.665325058270447" fill="red" stroke="none" /><path d="M 119.9155931802556 106.66101706037122 l 31.499752252133124 10.535482686849738 a54.21491814517501,54.21491814517501 0 0,0 -0.3036272130254663,0.8824828058000007 l -31.313734208164426 -11.076138195739038" fill="red" stroke="none" /><path d="M 119.67450827220406 107.3425965602758 l 31.240309380502147 11.658994726861831 a54.34500094812538,54.34500094812538 0 0,0 -0.33462473800423387,0.8735995990722658 l -31.034990362904406 -12.195017892767241" fill="red" stroke="none" /><path d="M 119.12269723197855 108.67885076344098 l 30.26318460873353 13.734969479432959 a54.23416509050951,54.23416509050951 0 0,0 -0.3931341219654596,0.8467759238602405 l -30.022275869928237 -14.253865470572029" fill="red" stroke="none" /><path d="M 118.81262510543309 109.33194174019688 l 29.296413201033825 14.53239086286935 a53.702755398236974,53.702755398236974 0 0,0 -0.41791312968202415,0.8245822522915195 l -29.041921401565535 -15.034527326863564" fill="red" stroke="none" /><line stroke="#e1ed5e" stroke-width="0.3" x1="174.80103733775053" x2="179.2010983576182" y1="140.37084112569926" y2="142.7455964860345" /><path d="M 175.68104954172406 140.8457921977663 a86.0,86.0 0 0,1 -30.038265399797805,32.042727171017184" fill="none" id="id17" stroke="none" /><text fill="#e1ed5e" style="font-size:6.75px; font-family:Arial;" text-anchor="middle"><textPath startOffset="22.206326154141568" xlink:href="#id17">May</textPath></text><path d="M 116.0416608686014 113.55231037782055 l 25.38053148488412 21.441971816674187 a54.2254350436867,54.2254350436867 0 0,0 -0.6085061876108551,0.7078301692096921 l -25.007682787702485 -21.87567908504541" fill="red" stroke="none" /><path d="M 115.56566222782051 114.09645910891815 l 24.322156093827154 22.0264498740421 a53.81359125585285,53.81359125585285 0 0,0 -0.6277063084176744,0.6812512242858257 l -23.939403377413758 -22.44185235312926" fill="red" stroke="none" /><path d="M 114.81725581225074 114.88116024355365 l 23.414000421562935 23.514981223975017 a54.183877978693914,54.183877978693914 0 0,0 -0.6665908312504631,0.6523994271508892 l -23.005759637936677 -23.914530754048478" fill="red" stroke="none" /><path d="M 114.29624159901734 115.38237550388516 l 22.68130923667135 24.40448513560367 a54.31697290306269,54.31697290306269 0 0,0 -0.690344025686837,0.6306128995660597 l -22.25786566151765 -24.791290801756315" fill="red" stroke="none" /><path d="M 113.75828350139079 115.86535959552629 l 25.779330261272804 29.727425276967217 a60.34836314660935,60.34836314660935 0 0,0 -0.7906627682713167,0.673819964183251 l -25.26380201642444 -30.166769631373416" fill="red" stroke="none" /><path d="M 112.92097659922987 116.55440617244103 l 20.50130506863838 26.266352900259267 a54.320036077386476,54.320036077386476 0 0,0 -0.7420408484666262,0.5689652803591837 l -20.04613549167826 -26.615357522445823" fill="red" stroke="none" /><path d="M 112.34349029814194 116.9893568818739 l 19.54973623376349 26.90790350213227 a54.25999786064015,54.25999786064015 0 0,0 -0.7603445029221134,0.5424856144362755 l -19.083664402992493 -27.240433378412767" fill="red" stroke="none" /><line stroke="#e1ed5e" stroke-width="0.3" x1="143.8653032363475" x2="146.44561519142675" y1="172.8068346515853" y2="177.08958963109032" /><path d="M 144.38136562736335 173.6633856474863 a86.0,86.0 0 0,1 -40.68145358897372,12.25698825130547" fill="none" id="id18" stroke="none" /><text fill="#e1ed5e" style="font-size:6.75px; font-family:Arial;" text-anchor="middle"><textPath startOffset="21.466115282336833" xlink:href="#id18">June</textPath></text><path d="M 108.59647513512805 119.15986991738527 l 13.040858088287251 29.065534495836538 a52.85701296743797,52.85701296743797 0 0,0 -0.8333268663269391,0.3653060089785675 l -12.538610547302557 -29.28570505810956" fill="red" stroke="none" /><path d="M 107.93186726928326 119.44442032107085 l 12.542550268232969 30.747188654824704 a54.20700494483855,54.20700494483855 0 0,0 -0.8669995472316956,0.34499701267492855 l -12.011429644959408 -30.9585325119057" fill="red" stroke="none" /><path d="M 107.2578585660854 119.70592522655815 l 11.521549193606178 31.28233828697662 a54.33662827164035,54.33662827164035 0 0,0 -0.8804615115320263,0.31570217271526 l -10.981368121444417 -31.47602800073184" fill="red" stroke="none" /><path d="M 105.18746579009965 120.34920634021253 l 8.212590003923674 32.21605603575444 a54.246366734899276,54.246366734899276 0 0,0 -0.9068099455667396,0.22287182204394157 l -7.656826773613723 -32.35264911611241" fill="red" stroke="none" /><path d="M 104.48393922423573 120.51570834832081 l 7.101127444985464 32.49032877567822 a54.25729205665413,54.25729205665413 0 0,0 -0.9141282480649625,0.19156446228448798 l -6.540807735491124 -32.60774921868925" fill="red" stroke="none" /><path d="M 103.7750983002368 120.6578951692458 l 5.984010519366811 32.74538890629398 a54.28766853536507,54.28766853536507 0 0,0 -0.9206956659645096,0.16007474307096436 l -5.419465881930251 -32.843542227885955" fill="red" stroke="none" /><path d="M 103.06178313531738 120.77559828337769 l 4.854223443449307 32.93812519755856 a54.29389698982345,54.29389698982345 0 0,0 -0.9257662945287233,0.1283027728199936 l -4.286528557733753 -33.01680253587116" fill="red" stroke="none" /><path d="M 102.34483914955558 120.86867818915974 l 3.7213258221356535 33.119180492136444 a54.32759190738516,54.32759190738516 0 0,0 -0.9302110073718551,0.09642017431743209 l -3.1506822181581957 -33.178330034909635" fill="red" stroke="none" /><path d="M 100.90346689309514 120.98055641714683 l 1.4339943516787887 33.30061082171654 a54.3314719281953,54.3314719281953 0 0,0 -0.9347073843436619,0.032193212238550525 l -0.8605666156604745 -33.32036083238118" fill="red" stroke="none" /><line stroke="#e1ed5e" stroke-width="0.3" x1="102.19456741930631" x2="102.32365962044197" y1="184.97166512339345" y2="189.96999836594603" /><path d="M 102.22038585953345 185.97133177190398 a86.0,86.0 0 0,1 -42.740103519485714,-10.115201625700543" fill="none" id="id19" stroke="none" /><text fill="#e1ed5e" style="font-size:6.75px; font-family:Arial;" text-anchor="middle"><textPath startOffset="22.20632615414155" xlink:href="#id19">July</textPath></text><path d="M 100.18074693466247 120.99922214144158 l 0.4659056775548733 54.1290331601153 a75.13103822160849,75.13103822160849 0 0,0 -1.2933052244346201,0.0 l 0.465905677554836 -54.1290331601153" fill="red" stroke="none" /><path d="M 99.45781275523022 120.99299961872073 l -0.8581162558881307 33.2254851187559 a54.23656457706315,54.23656457706315 0 0,0 -0.9330746179417565,-0.03213697646231325 l 1.4299112255045303 -33.20579134386749" fill="red" stroke="none" /><path d="M 98.37488393609728 120.93702456842531 l -2.9634827296995976 38.17974118772774 a59.29458012631947,59.29458012631947 0 0,0 -1.0169180933154005,-0.08774397205943248 l 3.62024514075654 -38.123072963389646" fill="red" stroke="none" /><path d="M 95.86986931433489 120.58985236759428 l -6.524622090923165 32.52705927023674 a54.17499477315492,54.17499477315492 0 0,0 -0.9127417013219311,-0.191273897933349 l 7.083555253674483 -32.40992939157685" fill="red" stroke="none" /><path d="M 95.16358092515715 120.4354850818985 l -7.649536953985066 32.321847194697966 a54.21471393355342,54.21471393355342 0 0,0 -0.9062808211885915,-0.22274177614532462 l 8.204771059916869 -32.185384160238605" fill="red" stroke="none" /><path d="M 92.7421414339146 119.70592522655815 l -11.46893325672685 31.139479934415967 a54.18438850774788,54.18438850774788 0 0,0 -0.872445491636374,-0.3298842327436952 l 12.003248969123506 -30.93744745156564" fill="red" stroke="none" /><path d="M 92.06813273071674 119.44442032107085 l -12.534007859799281 30.726247535350613 a54.18438850774788,54.18438850774788 0 0,0 -0.8605733341434109,-0.359719723466511 l 13.061052653440155 -30.505942768864127" fill="red" stroke="none" /><line stroke="#e1ed5e" stroke-width="0.3" x1="58.666819895761336" x2="56.23545636021788" y1="174.27360380694188" y2="178.64263932499728" /><path d="M 58.180547188652646 175.14741091055294 a86.0,86.0 0 0,1 -31.652253787137756,-30.449443065178592" fill="none" id="id20" stroke="none" /><text fill="#e1ed5e" style="font-size:6.75px; font-family:Arial;" text-anchor="middle"><textPath startOffset="22.20632615414155" xlink:href="#id20">August</textPath></text><path d="M 88.24862548938628 117.40417183066458 l -18.761037495004167 27.785713066134004 a54.52644297390467,54.52644297390467 0 0,0 -0.7733488402752421,-0.5319163841125208 l 19.2365432199023 -27.45865589265638" fill="red" stroke="none" /><path d="M 87.65650970185807 116.9893568818739 l -20.543756032872615 28.276054382216476 a55.95112535190038,55.95112535190038 0 0,0 -0.7742970452027212,-0.5728064432129906 l 21.027438048493902 -27.91823799026372" fill="red" stroke="none" /><path d="M 86.79598089348748 116.32954008644616 l -24.22667126325853 29.961362246091376 a59.53069981377845,59.53069981377845 0 0,0 -0.7912760279364142,-0.6511663011939444 l 24.738817419739636 -29.53990082604025" fill="red" stroke="none" /><path d="M 86.24171649860922 115.8653595955263 l -21.800399539274217 25.139122767877858 a54.27510952063753,54.27510952063753 0 0,0 -0.7005563563048223,-0.6181595321481438 l 22.229898248485625 -24.760140093957425" fill="red" stroke="none" /><path d="M 85.70375840098266 115.38237550388516 l -36.98088735989384 39.790450650740816 a75.32187398198074,75.32187398198074 0 0,0 -0.9421122467427145,-0.8908259329767558 l 37.66033544102737 -39.14799008101813" fill="red" stroke="none" /><path d="M 84.9287848128048 114.62390073753433 l -23.88140077435759 23.172599558806745 a54.27597742002927,54.27597742002927 0 0,0 -0.6448333706571874,-0.6761052111242177 l 24.276740696393738 -22.758087231100024" fill="red" stroke="none" /><path d="M 84.43433777217949 114.09645910891817 l -24.68418608019737 22.354308774253184 a54.3020144017815,54.3020144017815 0 0,0 -0.6214766003684127,-0.6982355487421239 l 25.06532153021412 -21.926099055770194" fill="red" stroke="none" /><path d="M 83.72743513129214 113.27417163493432 l -41.97997185216711 34.24471532861846 a75.17581161964128,75.17581161964128 0 0,0 -0.8093287835209022,-1.00976209743166 l 42.56321854774288 -33.51702539760854" fill="red" stroke="none" /><path d="M 83.28015986056508 112.70617746262583 l -26.520143191471096 20.15387963730068 a54.309110755631615,54.309110755631615 0 0,0 -0.5592253960340053,-0.7491738052956664 l 26.863129854200185 -19.694392952495708" fill="red" stroke="none" /><path d="M 82.85270091963577 112.12312394758628 l -27.19828145171931 19.229158811261975 a54.3092639143478,54.3092639143478 0 0,0 -0.5331077331426626,-0.7679814506455785 l 27.525250092024105 -18.758136098429382" fill="red" stroke="none" /><path d="M 82.24976979558568 111.22182372390057 l -53.25069061324296 33.6654711717017 a84.0,84.0 0 0,0 -0.7621414413281764,-1.2288146745389432 l 53.82229669423909 -32.743860165797486" fill="red" stroke="none" /><line stroke="#e1ed5e" stroke-width="0.3" x1="26.63291911575756" x2="22.317208475507996" y1="142.92168965132927" y2="145.44649492493687" /><path d="M 25.769776987707644 143.4266507060508 a86.0,86.0 0 0,1 -11.730757126820373,-40.83630448921669" fill="none" id="id21" stroke="none" /><text fill="#e1ed5e" style="font-size:6.75px; font-family:Arial;" text-anchor="middle"><textPath startOffset="21.46611528233685" xlink:href="#id21">September</textPath></text><path d="M 81.87401531095188 110.60418214915194 l -31.283493575532756 18.30167407882736 a57.24373386363525,57.24373386363525 0 0,0 -0.4902462508647318,-0.8547856613621331 l 31.593891822549864 -17.76046857160692" fill="red" stroke="none" /><line stroke="#e1ed5e" stroke-width="0.3" x1="15.007084014347285" x2="10.007500721073583" y1="101.09737516637583" y2="101.16192664675087" /><path d="M 14.007167355692545 101.11028546245083 a86.0,86.0 0 0,1 10.666146001902534,-42.60595125391555" fill="none" id="id22" stroke="none" /><text fill="#e1ed5e" style="font-size:6.75px; font-family:Arial;" text-anchor="middle"><textPath startOffset="22.20632615414155" xlink:href="#id22">October</textPath></text><line stroke="#e1ed5e" stroke-width="0.3" x1="26.266209847984243" x2="21.928928074336255" y1="57.711370442889674" y2="55.22380399835377" /><path d="M 25.398753493254645 57.213857153982495 a86.0,86.0 0 0,1 29.58750427330803,-30.492523968695096" fill="none" id="id23" stroke="none" /><text fill="#e1ed5e" style="font-size:6.75px; font-family:Arial;" text-anchor="middle"><textPath startOffset="21.46611528233685" xlink:href="#id23">November</textPath></text><line stroke="#e1ed5e" stroke-width="0.3" x1="56.762969772571076" x2="54.21961505331055" y1="26.818313649435495" y2="22.513508569990535" /><path d="M 56.25429882871897 25.957352633546506 a86.0,86.0 0 0,1 42.265352541879196,-11.944610805530505" fill="none" id="id24" stroke="none" /><text fill="#e1ed5e" style="font-size:6.75px; font-family:Arial;" text-anchor="middle"><textPath startOffset="22.20632615414155" xlink:href="#id24">December</textPath></text></svg>