<?xml version="1.0" encoding="utf-8" ?>
<svg baseProfile="full" height="200mm" version="1.1" viewBox="0,0,200,200" width="200mm" xmlns="http://www.w3.org/2000/svg" xmlns:ev="http://www.w3.org/2001/xml-events" xmlns:xlink="http://www.w3.org/1999/xlink"><defs /><rect fill="#1a1a1a" height="200" width="200" x="0" y="0" /><rect fill="#1a1a1a" height="200" width="180" x="10" y="0" /><text alignment-baseline="middle" fill="#e1ed5e" style="dominant-baseline: central; font-size:9.0px; font-family:Arial;" text-anchor="middle" x="100.0" y="100.0">2026</text><line stroke="#e1ed5e" stroke-width="0.3" x1="100.0" x2="100.0" y1="15.0" y2="10.0" /><path d="M 100.0 14.0 a86.0,86.0 0 0,1 42.46469731375804,11.215312516191453" fill="none" id="id133" stroke="none" /><text fill="#e1ed5e" style="font-size:6.75px; font-family:Arial;" text-anchor="middle"><textPath startOffset="22.20632615414155" xlink:href="#id133">January</textPath></text><path d="M 100.72285384407766 79.0124445844662 l 0.8746901843062117 -25.39601727922446 a46.41107586398476,46.41107586398476 0 0,0 0.7981802631882059,0.03437132114966832 l -1.3117112798837491 25.377198231550597" fill="#ff0601" stroke="none" /><path d="M 101.44485096284872 79.0497635885617 l 2.097078902398672 -30.407495242325457 a51.47972287989067,51.47972287989067 0 0,0 0.883514151181931,0.06857770238930694 l -2.620183242942944 30.366892277747684" fill="#ff7b0b" stroke="none" /><path d="M 102.16513564639614 79.11191278185805 l 3.8896497645515358 -37.52529023537807 a58.72634069904258,58.72634069904258 0 0,0 1.0045931885775263,0.11287774992750016 l -4.535009656638787 37.45277653197997" fill="#edff1a" stroke="none" /><path d="M 102.88285421437855 79.19881850522331 l 3.453202746906045 -24.916520828001058 a46.154673907316905,46.154673907316905 0 0,0 0.7860163374979363,0.11583837603178115 l -3.8815880648326373 24.853387967808306" fill="#ff0000" stroke="none" /><path d="M 103.95276090670814 79.375362276772 l 4.876154153655769 -25.44270075407061 a46.905750346040925,46.905750346040925 0 0,0 0.7916654053231387,0.15880063270636316 l -5.313385968446033 25.354996165287037" fill="#ff1202" stroke="none" /><path d="M 104.66035177308747 79.52364482259891 l 7.329406498403876 -32.20347690651729 a54.027021126457,54.027021126457 0 0,0 0.9050202998220425,0.21418906493472367 l -7.882650485188441 32.07254192944169" fill="#ffb210" stroke="none" /><path d="M 105.36241919743992 79.69619591428918 l 9.66817288342926 -36.606740514737375 a58.861946833426195,58.861946833426195 0 0,0 0.9773945288198773,0.26715884601869727 l -10.296865301472849 36.43489512789239" fill="#eaff1a" stroke="none" /><path d="M 106.40334571778207 80.00007090966166 l 7.747885671729704 -24.199406195471692 a46.40946659407923,46.40946659407923 0 0,0 0.758722242491147,0.25013879442377224 l -8.163290736463269 24.06245367678868" fill="#ff0601" stroke="none" /><path d="M 107.08798089147638 80.2323363322302 l 8.491093223709106 -23.68080241579191 a46.15708781217521,46.15708781217521 0 0,0 0.7455857131789063,0.27460551042046133 l -8.897461262660588 23.531133637565123" fill="#ff0000" stroke="none" /><path d="M 107.76421540070413 80.48803036053334 l 19.631712367400297 -49.335748161844876 a74.09821256092636,74.09821256092636 0 0,0 1.1810412847052576,0.48177639421188845 l -20.478037521693942 48.9905108814494" fill="#39ff88" stroke="none" /><path d="M 108.76106565485865 80.91482961587045 l 10.570685724796645 -23.02726016246078 a46.33760263486017,46.33760263486017 0 0,0 0.7220320580127336,0.3390037326298756 l -10.965495994108975 22.841891447190903" fill="#ff0400" stroke="none" /><path d="M 109.41281617654863 81.2277094730956 l 11.500735274274376 -22.93629661860218 a46.65814908416897,46.65814908416897 0 0,0 0.7148461969691273,0.3661719868645121 l -11.89384195883226 22.73493210642517" fill="#ff0c01" stroke="none" /><line stroke="#e1ed5e" stroke-width="0.3" x1="143.23703022742887" x2="145.7803849466894" y1="26.81831364943548" y2="22.513508569990506" /><path d="M 143.74570117128098 25.957352633546492 a86.0,86.0 0 0,1 28.547481713284135,27.462654790039103" fill="none" id="id134" stroke="none" /><text fill="#e1ed5e" style="font-size:6.75px; font-family:Arial;" text-anchor="middle"><textPath startOffset="19.985693538727396" xlink:href="#id134">February</textPath></text><path d="M 110.68208982089419 81.91981866633111 l 32.04626946268258 -54.24054400100664 a84.0,84.0 0 0,0 1.23855173512945,0.7462135621655417 l -32.97518326402967 53.68088382938249" fill="#4dd2ff" stroke="none" /><path d="M 111.60114157652 82.49532879139004 l 13.990621578782203 -21.11009758180445 a46.32535709667274,46.32535709667274 0 0,0 0.6608980721954164,0.4462413285317695 l -14.35192434538416 20.86614434097401" fill="#ff0400" stroke="none" /><line stroke="#e1ed5e" stroke-width="0.3" x1="172.23445277983987" x2="176.4835382374775" y1="55.19839476539836" y2="52.563006222186495" /><path d="M 173.08426987136738 54.67131705675599 a86.0,86.0 0 0,1 12.851231095245387,41.99856678651699" fill="none" id="id135" stroke="none" /><text fill="#e1ed5e" style="font-size:6.75px; font-family:Arial;" text-anchor="middle"><textPath startOffset="22.20632615414155" xlink:href="#id135">March</textPath></text><line stroke="#e1ed5e" stroke-width="0.3" x1="184.98032266829074" x2="189.97916517819016" y1="98.17113171792111" y2="98.06355123074" /><path d="M 185.9800911702706 98.14961562048488 a86.0,86.0 0 0,1 -9.607161424134198,41.387399972396054" fill="none" id="id136" stroke="none" /><text fill="#e1ed5e" style="font-size:6.75px; font-family:Arial;" text-anchor="middle"><textPath startOffset="21.466115282336823" xlink:href="#id136">April</textPath></text><line stroke="#e1ed5e" stroke-width="0.3" x1="174.80103733775053" x2="179.2010983576182" y1="140.37084112569926" y2="142.7455964860345" /><path d="M 175.68104954172406 140.8457921977663 a86.0,86.0 0 0,1 -30.038265399797805,32.042727171017184" fill="none" id="id137" stroke="none" /><text fill="#e1ed5e" style="font-size:6.75px; font-family:Arial;" text-anchor="middle"><textPath startOffset="22.206326154141568" xlink:href="#id137">May</textPath></text><line stroke="#e1ed5e" stroke-width="0.3" x1="143.8653032363475" x2="146.44561519142675" y1="172.8068346515853" y2="177.08958963109032" /><path d="M 144.38136562736335 173.6633856474863 a86.0,86.0 0 0,1 -40.68145358897372,12.25698825130547" fill="none" id="id138" stroke="none" /><text fill="#e1ed5e" style="font-size:6.75px; font-family:Arial;" text-anchor="middle"><textPath startOffset="21.466115282336833" xlink:href="#id138">June</textPath></text><line stroke="#e1ed5e" stroke-width="0.3" x1="102.19456741930631" x2="102.32365962044197" y1="184.97166512339345" y2="189.96999836594603" /><path d="M 102.22038585953345 185.97133177190398 a86.0,86.0 0 0,1 -42.740103519485714,-10.115201625700543" fill="none" id="id139" stroke="none" /><text fill="#e1ed5e" style="font-size:6.75px; font-family:Arial;" text-anchor="middle"><textPath startOffset="22.20632615414155" xlink:href="#id139">July</textPath></text><line stroke="#e1ed5e" stroke-width="0.3" x1="58.666819895761336" x2="56.23545636021788" y1="174.27360380694188" y2="178.64263932499728" /><path d="M 58.180547188652646 175.14741091055294 a86.0,86.0 0 0,1 -31.652253787137756,-30.449443065178592" fill="none" id="id140" stroke="none" /><text fill="#e1ed5e" style="font-size:6.75px; font-family:Arial;" text-anchor="middle"><textPath startOffset="22.20632615414155" xlink:href="#id140">August</textPath></text><line stroke="#e1ed5e" stroke-width="0.3" x1="26.63291911575756" x2="22.317208475507996" y1="142.92168965132927" y2="145.44649492493687" /><path d="M 25.769776987707644 143.4266507060508 a86.0,86.0 0 0,1 -11.730757126820373,-40.83630448921669" fill="none" id="id141" stroke="none" /><text fill="#e1ed5e" style="font-size:6.75px; font-family:Arial;" text-anchor="middle"><textPath startOffset="21.46611528233685" xlink:href="#id141">September</textPath></text><line stroke="#e1ed5e" stroke-width="0.3" x1="15.007084014347285" x2="10.007500721073583" y1="101.09737516637583" y2="101.16192664675087" /><path d="M 14.007167355692545 101.11028546245083 a86.0,86.0 0 0,1 10.666146001902534,-42.60595125391555" fill="none" id="id142" stroke="none" /><text fill="#e1ed5e" style="font-size:6.75px; font-family:Arial;" text-anchor="middle"><textPath startOffset="22.20632615414155" xlink:href="#id142">October</textPath></text><line stroke="#e1ed5e" stroke-width="0.3" x1="26.266209847984243" x2="21.928928074336255" y1="57.711370442889674" y2="55.22380399835377" /><path d="M 25.398753493254645 57.213857153982495 a86.0,86.0 0 0,1 29.58750427330803,-30.492523968695096" fill="none" id="id143" stroke="none" /><text fill="#e1ed5e" style="font-size:6.75px; font-family:Arial;" text-anchor="middle"><textPath startOffset="21.46611528233685" xlink:href="#id143">November</textPath></text><line stroke="#e1ed5e" stroke-width="0.3" x1="56.762969772571076" x2="54.21961505331055" y1="26.818313649435495" y2="22.513508569990535" /><path d="M 56.25429882871897 25.957352633546506 a86.0,86.0 0 0,1 42.265352541879196,-11.944610805530505" fill="none" id="id144" stroke="none" /><text fill="#e1ed5e" style="font-size:6.75px; font-family:Arial;" text-anchor="middle"><textPath startOffset="22.20632615414155" xlink:href="#id144">December</textPath></text></svg>