<?xml version="1.0" encoding="utf-8" ?>
<svg baseProfile="full" height="200mm" version="1.1" viewBox="0,0,200,200" width="200mm" xmlns="http://www.w3.org/2000/svg" xmlns:ev="http://www.w3.org/2001/xml-events" xmlns:xlink="http://www.w3.org/1999/xlink"><defs /><rect fill="#1a1a1a" height="200" width="200" x="0" y="0" /><rect fill="#1a1a1a" height="200" width="180" x="10" y="0" /><text alignment-baseline="middle" fill="#e1ed5e" style="dominant-baseline: central; font-size:9.0px; font-family:Arial;" text-anchor="middle" x="100.0" y="100.0">2025</text><line stroke="#e1ed5e" stroke-width="0.3" x1="100.0" x2="100.0" y1="15.0" y2="10.0" /><path d="M 100.0 14.0 a86.0,86.0 0 0,1 42.46469731375804,11.215312516191453" fill="none" id="id13" stroke="none" /><text fill="#e1ed5e" style="font-size:6.75px; font-family:Arial;" text-anchor="middle"><textPath startOffset="22.20632615414155" xlink:href="#id13">January</textPath></text><path d="M 103.95276090670814 79.375362276772 l 7.20538828756259 -37.59613257507404 a59.28037101409922,59.28037101409922 0 0,0 1.0005216546022921,0.2006952314941802 l -7.851476351632007 37.46653338750265" fill="#5aff2a" stroke="none" /><line stroke="#e1ed5e" stroke-width="0.3" x1="143.23703022742887" x2="145.7803849466894" y1="26.81831364943548" y2="22.513508569990506" /><path d="M 143.74570117128098 25.957352633546492 a86.0,86.0 0 0,1 28.547481713284135,27.462654790039103" fill="none" id="id14" stroke="none" /><text fill="#e1ed5e" style="font-size:6.75px; font-family:Arial;" text-anchor="middle"><textPath startOffset="19.985693538727396" xlink:href="#id14">February</textPath></text><line stroke="#e1ed5e" stroke-width="0.3" x1="172.23445277983987" x2="176.4835382374775" y1="55.19839476539836" y2="52.563006222186495" /><path d="M 173.08426987136738 54.67131705675599 a86.0,86.0 0 0,1 12.851231095245387,41.99856678651699" fill="none" id="id15" stroke="none" /><text fill="#e1ed5e" style="font-size:6.75px; font-family:Arial;" text-anchor="middle"><textPath startOffset="22.20632615414155" xlink:href="#id15">March</textPath></text><path d="M 120.6074358757038 95.95851677861258 l 16.290732011349604 -3.1949011262295124 a37.60106450418145,37.60106450418145 0 0,0 0.11909559931972928,0.6362134537657115 l -16.343313334579193 2.914009595001238" fill="#ff7f0b" stroke="none" /><path d="M 120.78858239683441 97.02765380044208 l 16.803045844927002 -2.4024952016820276 a37.97393097843937,37.97393097843937 0 0,0 0.08694945394975914,0.64787442615606 l -16.841911297934598 2.1129024334613034" fill="#ff850c" stroke="none" /><path d="M 120.87857604477298 97.74499172005257 l 18.899170887892762 -2.0412209503630914 a40.009083176680946,40.009083176680946 0 0,0 0.06805902142332536,0.6853450577492225 l -18.931507034998315 1.715600361909434" fill="#ffa40f" stroke="none" /><line stroke="#e1ed5e" stroke-width="0.3" x1="184.98032266829074" x2="189.97916517819016" y1="98.17113171792111" y2="98.06355123074" /><path d="M 185.9800911702706 98.14961562048488 a86.0,86.0 0 0,1 -9.607161424134198,41.387399972396054" fill="none" id="id16" stroke="none" /><text fill="#e1ed5e" style="font-size:6.75px; font-family:Arial;" text-anchor="middle"><textPath startOffset="21.466115282336823" xlink:href="#id16">April</textPath></text><path d="M 120.99513854157772 99.54816195383933 l 17.14549777988819 -0.3689896211913532 a38.149467847740866,38.149467847740866 0 0,0 0.008478252138492669,0.6566499714879276 l -17.149309039144395 0.07380339164296293" fill="#ff880c" stroke="none" /><path d="M 120.89721153311464 102.0752229133903 l 14.33220589191011 1.4232770730768554 a35.40270264064523,35.40270264064523 0 0,0 -0.06544054462630862,0.6058981687746144 l -14.30558304578275 -1.6697715637362613" fill="#ff5d08" stroke="none" /><path d="M 120.81339534386255 102.79330883721812 l 18.326497891344072 2.4595491350355716 a39.49080601026069,39.49080601026069 0 0,0 -0.09621831264925199,0.6729506545673836 l -18.28144552767822 -2.7746452615833643" fill="#ff9c0e" stroke="none" /><path d="M 120.76222939487914 103.15116336523771 l 20.21996275327471 3.0688614725692878 a41.45152328022626,41.45152328022626 0 0,0 -0.11313945683213239,0.7045195056937336 l -20.164141542081293 -3.4164602079562263" fill="#ffb911" stroke="none" /><path d="M 120.64145759157962 103.86396538481128 l 33.080575147403245 6.192498602005589 a54.65518520256328,54.65518520256328 0 0,0 -0.1810649951318961,0.9232465092937383 l -32.969080219295684 -6.761008838367272" fill="#92ff23" stroke="none" /><path d="M 120.41448212921028 104.9243191809786 l 19.86109105944946 4.7908318731861455 a41.43073684693921,41.43073684693921 0 0,0 -0.17319761597999941,0.6918383812130521 l -19.7756821291744 -5.131998093796593" fill="#ffb911" stroke="none" /><path d="M 120.13307415673323 105.97154293290107 l 30.752599612980557 9.121332761088272 a53.07679993850375,53.07679993850375 0 0,0 -0.26733830640675427,0.8736770534281608 l -30.59103453406767 -9.64933678706849" fill="#a6ff21" stroke="none" /><path d="M 119.9155931802556 106.66101706037122 l 19.402835055093956 6.489518748037156 a41.45932212357752,41.45932212357752 0 0,0 -0.23219030593385145,0.6748537149167844 l -19.288253918216874 -6.822545166043241" fill="#ffb911" stroke="none" /><path d="M 119.67450827220406 107.3425965602758 l 19.24302658408813 7.181566057497839 a41.539448949621985,41.539448949621985 0 0,0 -0.2557756367485533,0.6677494767680999 l -19.11655666774607 -7.511739101099082" fill="#ffba11" stroke="none" /><path d="M 119.12269723197855 108.67885076344098 l 18.64114912730309 8.460299787854382 a41.47117762334941,41.47117762334941 0 0,0 -0.3006174239913227,0.6475031870957844 l -18.492757086471936 -8.779923042228997" fill="#ffb911" stroke="none" /><path d="M 118.81262510543309 109.33194174019688 l 18.045649010050326 8.951485732695375 a41.1438463312392,41.1438463312392 0 0,0 -0.32018009988383067,0.6317457125647444 l -17.888890240380228 -9.260785656962813" fill="#ffb510" stroke="none" /><line stroke="#e1ed5e" stroke-width="0.3" x1="174.80103733775053" x2="179.2010983576182" y1="140.37084112569926" y2="142.7455964860345" /><path d="M 175.68104954172406 140.8457921977663 a86.0,86.0 0 0,1 -30.038265399797805,32.042727171017184" fill="none" id="id17" stroke="none" /><text fill="#e1ed5e" style="font-size:6.75px; font-family:Arial;" text-anchor="middle"><textPath startOffset="22.206326154141568" xlink:href="#id17">May</textPath></text><path d="M 116.0416608686014 113.55231037782055 l 15.633591720661144 13.207565541621976 a41.46580019507092,41.46580019507092 0 0,0 -0.4653203053623774,0.5412726397648248 l -15.403928905727987 -13.47471528054833" fill="#ffb911" stroke="none" /><path d="M 115.56566222782051 114.09645910891815 l 14.981666493609296 13.56758524113131 a41.21211765751178,41.21211765751178 0 0,0 -0.4807169644909735,0.5217233222013934 l -14.745903121122602 -13.823459818134038" fill="#ffb610" stroke="none" /><path d="M 114.81725581225074 114.88116024355365 l 14.42227178560497 14.48447271459164 a41.44020237858732,41.44020237858732 0 0,0 -0.5098132503840362,0.4989595669663615 l -14.170808582845138 -14.730582384480574" fill="#ffb911" stroke="none" /><path d="M 114.29624159901734 115.38237550388516 l 13.970957562782464 15.032378537470702 a41.522184574622614,41.522184574622614 0 0,0 -0.527728084289848,0.48206709268666664 l -13.710129929025753 -15.270638396743951" fill="#ffba11" stroke="none" /><path d="M 113.75828350139079 115.86535959552629 l 15.879238950407816 18.31113859705249 a45.237327129133156,45.237327129133156 0 0,0 -0.5926833543143935,0.5050976125375013 l -15.561690119516374 -18.581760599812938" fill="#ffef16" stroke="none" /><path d="M 112.92097659922987 116.55440617244103 l 12.628145055776267 16.179229244195312 a41.52407139156243,41.52407139156243 0 0,0 -0.5672411027725931,0.43493628920453753 l -12.34777522451018 -16.39420487522722" fill="#ffba11" stroke="none" /><path d="M 112.34349029814194 116.9893568818739 l 12.042009234806596 16.574403796934707 a41.48708977954192,41.48708977954192 0 0,0 -0.58135794139043,0.41478345517137477 l -11.754923965567283 -16.7792315139503" fill="#ffba11" stroke="none" /><line stroke="#e1ed5e" stroke-width="0.3" x1="143.8653032363475" x2="146.44561519142675" y1="172.8068346515853" y2="177.08958963109032" /><path d="M 144.38136562736335 173.6633856474863 a86.0,86.0 0 0,1 -40.68145358897372,12.25698825130547" fill="none" id="id18" stroke="none" /><text fill="#e1ed5e" style="font-size:6.75px; font-family:Arial;" text-anchor="middle"><textPath startOffset="21.466115282336833" xlink:href="#id18">June</textPath></text><path d="M 108.59647513512805 119.15986991738527 l 8.032749478110283 17.903435147578655 a40.62289617415421,40.62289617415421 0 0,0 -0.6404476694660519,0.2807534372718507 l -7.723381133986477 -18.03905313814496" fill="#ffad10" stroke="none" /><path d="M 107.93186726928326 119.44442032107085 l 7.725807875465709 18.93928006487798 a41.454447846482985,41.454447846482985 0 0,0 -0.6630321588550133,0.2638341794326901 l -7.3986546405688305 -19.06946108871674" fill="#ffb911" stroke="none" /><path d="M 107.2578585660854 119.70592522655815 l 7.096904026207157 19.26891503976051 a41.53429164998647,41.53429164998647 0 0,0 -0.6730146195995301,0.24131909787515718 l -6.764169845977891 -19.388221678675627" fill="#ffba11" stroke="none" /><path d="M 105.18746579009965 120.34920634021253 l 5.058691507976977 19.84405516538873 a41.4786934441597,41.4786934441597 0 0,0 -0.6933790041293127,0.1704156893876283 l -4.716359219104453 -19.92819211309039" fill="#ffb911" stroke="none" /><path d="M 104.48393922423573 120.51570834832081 l 4.374066291614194 20.01299835866383 a41.48542309124507,41.48542309124507 0 0,0 -0.6989474721855882,0.1464712385354699 l -4.028927357999228 -20.08532557792584" fill="#ffba11" stroke="none" /><path d="M 103.7750983002368 120.6578951692458 l 3.685958167095069 20.170107202055867 a41.50413402589831,41.50413402589831 0 0,0 -0.7038923819755034,0.12238071314944275 l -3.338216813647516 -20.230566493726315" fill="#ffba11" stroke="none" /><path d="M 103.06178313531738 120.77559828337769 l 2.9900456371823996 20.28882656335763 a41.507970553675946,41.507970553675946 0 0,0 -0.7077532139585858,0.09808814639268698 l -2.640363832036983 -20.33728927524292" fill="#ffba11" stroke="none" /><path d="M 102.34483914955558 120.86867818915974 l 2.292217111271739 20.400350806101745 a41.528725540014,41.528725540014 0 0,0 -0.7110655242238775,0.07370484895732368 l -1.9407189904422586 -20.43678502351483" fill="#ffba11" stroke="none" /><path d="M 100.90346689309514 120.98055641714683 l 0.8832944352340347 20.512106058354416 a41.53111550813777,41.53111550813777 0 0,0 -0.7144927050161624,0.024608573421759084 l -0.5300813785432201 -20.52427143020227" fill="#ffba11" stroke="none" /><line stroke="#e1ed5e" stroke-width="0.3" x1="102.19456741930631" x2="102.32365962044197" y1="184.97166512339345" y2="189.96999836594603" /><path d="M 102.22038585953345 185.97133177190398 a86.0,86.0 0 0,1 -42.740103519485714,-10.115201625700543" fill="none" id="id19" stroke="none" /><text fill="#e1ed5e" style="font-size:6.75px; font-family:Arial;" text-anchor="middle"><textPath startOffset="22.20632615414155" xlink:href="#id19">July</textPath></text><path d="M 100.18074693466247 120.99922214144158 l 0.28698292419797783 33.34174483947907 a54.342979892920646,54.342979892920646 0 0,0 -0.9354597177208436,0.0 l 0.28698292419795485 -33.34174483947907" fill="#96ff23" stroke="none" /><path d="M 99.45781275523022 120.99299961872073 l -0.5285720356725881 20.465831039704238 a41.47265562995227,41.47265562995227 0 0,0 -0.7134869733860854,-0.024573933990890123 l 0.8807793607333165 -20.453700307287253" fill="#ffb911" stroke="none" /><path d="M 98.37488393609728 120.93702456842531 l -1.8254101217284042 23.51749355938166 a44.58823065488521,44.58823065488521 0 0,0 -0.7647002205813185,-0.0659815527224752 l 2.229954660051264 -23.482587754380518" fill="#ffe615" stroke="none" /><path d="M 95.86986931433489 120.58985236759428 l -4.018957521116107 20.03562316287519 a41.43473060946184,41.43473060946184 0 0,0 -0.6980934039524165,-0.1462922602332625 l 4.36324238649791 -19.963474921915388" fill="#ffb911" stroke="none" /><path d="M 95.16358092515715 120.4354850818985 l -4.711868924491848 19.909219119404582 a41.45919633578154,41.45919633578154 0 0,0 -0.6930530805172587,-0.17033558529346723 l 5.053875289752318 -19.825162275797084" fill="#ffb911" stroke="none" /><path d="M 92.7421414339146 119.70592522655815 l -7.064494300049081 19.180918885733963 a41.440516848077294,41.440516848077294 0 0,0 -0.6672510863533405,-0.25229726645296335 l 7.393615607162705 -19.056473369174366" fill="#ffb911" stroke="none" /><path d="M 92.06813273071674 119.44442032107085 l -7.720546026404632 18.926381008283105 a41.440516848077294,41.440516848077294 0 0,0 -0.6581711953338116,-0.27511561302879867 l 8.045188681235906 -18.790680352234332" fill="#ffb911" stroke="none" /><line stroke="#e1ed5e" stroke-width="0.3" x1="58.666819895761336" x2="56.23545636021788" y1="174.27360380694188" y2="178.64263932499728" /><path d="M 58.180547188652646 175.14741091055294 a86.0,86.0 0 0,1 -31.652253787137756,-30.449443065178592" fill="none" id="id20" stroke="none" /><text fill="#e1ed5e" style="font-size:6.75px; font-family:Arial;" text-anchor="middle"><textPath startOffset="22.20632615414155" xlink:href="#id20">August</textPath></text><path d="M 88.24862548938628 117.40417183066458 l -11.556196158760208 17.11510627750599 a41.651211406357476,41.651211406357476 0 0,0 -0.5907393602142913,-0.40631591860446137 l 11.849092403597389 -16.913649569536428" fill="#ffbc11" stroke="none" /><path d="M 87.65650970185807 116.9893568818739 l -12.654293485464658 17.417140769729713 a42.52876996506893,42.52876996506893 0 0,0 -0.5885476067362182,-0.43539344927737333 l 12.95222606261944 -17.196737371712572" fill="#ffc912" stroke="none" /><path d="M 86.79598089348748 116.32954008644616 l -14.922850906649844 18.45523625181729 a44.73367279399653,44.73367279399653 0 0,0 -0.5945954446053431,-0.4893115710584163 l 15.238316479799876 -18.195629561901693" fill="#ffe815" stroke="none" /><path d="M 86.24171649860922 115.8653595955263 l -13.428345499671023 15.484891709326382 a41.49639807644504,41.49639807644504 0 0,0 -0.5356150488310853,-0.4726180056995506 l 13.692902901408697 -15.251450561854542" fill="#ffba11" stroke="none" /><path d="M 85.70375840098266 115.38237550388516 l -22.779038129940815 24.509638823965616 a54.460528588271586,54.460528588271586 0 0,0 -0.6811823476320674,-0.6441004269445092 l 23.197556311963698 -24.113903760275175" fill="#94ff23" stroke="none" /><path d="M 84.9287848128048 114.62390073753433 l -14.710175381715104 14.273576612235832 a41.49693267457799,41.49693267457799 0 0,0 -0.49301013524646115,-0.5169191557773677 l 14.953692068340523 -14.018250339875966" fill="#ffba11" stroke="none" /><path d="M 84.43433777217949 114.09645910891817 l -15.204665330372007 13.769535787002967 a41.512970618566484,41.512970618566484 0 0,0 -0.47510833871338104,-0.533789255133406 l 15.439432518733726 -13.505772362128695" fill="#ffba11" stroke="none" /><path d="M 83.72743513129214 113.27417163493432 l -25.858313517685737 21.093644093179698 a54.37055886719106,54.37055886719106 0 0,0 -0.5853433081637452,-0.7303057775823499 l 26.217574737904346 -20.645410482019088" fill="#96ff23" stroke="none" /><path d="M 83.28015986056508 112.70617746262583 l -16.335555907324352 12.41414215555556 a41.517341744477065,41.517341744477065 0 0,0 -0.4275074947149042,-0.5727161514469317 l 16.54682466873434 -12.13111312459932" fill="#ffba11" stroke="none" /><path d="M 82.85270091963577 112.12312394758628 l -16.753267281776623 11.844543845193478 a41.51743608532406,41.51743608532406 0 0,0 -0.4075412672182281,-0.5870935912918671 l 16.954669456156985 -11.554408991714599" fill="#ffba11" stroke="none" /><path d="M 82.24976979558568 111.22182372390057 l -32.80071405858837 20.736848308142317 a59.805975319635785,59.805975319635785 0 0,0 -0.5426263360731496,-0.8748864297366943 l 33.152805034329475 -20.169165547040357" fill="#54ff2b" stroke="none" /><line stroke="#e1ed5e" stroke-width="0.3" x1="26.63291911575756" x2="22.317208475507996" y1="142.92168965132927" y2="145.44649492493687" /><path d="M 25.769776987707644 143.4266507060508 a86.0,86.0 0 0,1 -11.730757126820373,-40.83630448921669" fill="none" id="id21" stroke="none" /><text fill="#e1ed5e" style="font-size:6.75px; font-family:Arial;" text-anchor="middle"><textPath startOffset="21.46611528233685" xlink:href="#id21">September</textPath></text><path d="M 81.87401531095188 110.60418214915194 l -19.269626660382677 11.273243057317343 a43.32497526672503,43.32497526672503 0 0,0 -0.3710433484984822,-0.6469453534440321 l 19.460822005033535 -10.939877858015002" fill="#ffd413" stroke="none" /><path d="M 81.51974371655577 109.97397251340807 l -19.251568394483016 10.390257097169574 a42.87647888012923,42.87647888012923 0 0,0 -0.3449463601403085,-0.6525085169555299 l 19.42756726284821 -10.057333565127918" fill="#ffce13" stroke="none" /><path d="M 81.02952815118164 109.00673069616217 l -44.18302391825952 20.977053230156866 a69.90988003238536,69.90988003238536 0 0,0 -0.50676467974341,-1.091526036264942 l 44.53756321484276 -20.2134071266131" fill="#39ff8a" stroke="none" /><path d="M 80.73074385275274 108.34839909993369 l -20.236761568898665 8.767570516285918 a43.05440571755449,43.05440571755449 0 0,0 -0.28877003812694735,-0.6825670688418319 l 20.384682588217917 -8.417928921777929" fill="#ffd013" stroke="none" /><path d="M 80.45479744820244 107.68017299344265 l -18.07173232537056 7.101181488511652 a40.41685576432559,40.41685576432559 0 0,0 -0.2488633643414931,-0.6497037147018931 l 18.191289969305565 -6.789054206976601" fill="#ffaa0f" stroke="none" /><path d="M 80.0844068197444 106.66101706037122 l -54.22455943586096 18.13607620040508 a78.17709424201371,78.17709424201371 0 0,0 -0.415856534279328,-1.2798748093782497 l 54.52870822115654 -17.200002491049027" fill="#45ffed" stroke="none" /><path d="M 79.86692584326677 105.97154293290107 l -20.914760904755905 6.203394062021173 a42.815346011278976,42.815346011278976 0 0,0 -0.20348984696165792,-0.7083748526334759 l 21.018443388603664 -5.842461733883102" fill="#ffcd13" stroke="none" /><path d="M 79.67330655649465 105.27499134158121 l -26.813350788674807 6.958347339775098 a48.70152303064731,48.70152303064731 0 0,0 -0.20359250946140312,-0.8132508717045129 l 26.92915461243127 -6.4957686286731935" fill="#dfff1b" stroke="none" /><path d="M 79.35854240842038 103.8639653848113 l -46.882588540869435 8.776158295437854 a68.69693976262046,68.69693976262046 0 0,0 -0.20757453468327225,-1.164188225882216 l 47.026709517891895 -7.967851318822425" fill="#37ff7b" stroke="none" /><path d="M 79.23777060512086 103.15116336523772 l -24.135114640210773 3.663079124287246 a45.41151177962777,45.41151177962777 0 0,0 -0.1106439569035975,-0.7738435768835797 l 24.19459264813097 -3.247090075423266" fill="#fff216" stroke="none" /><path d="M 79.1416061653843 102.43462659150553 l -23.735586004341894 2.7704572705514847 a44.896725224546195,44.896725224546195 0 0,0 -0.08298988301697871,-0.7683832467157231 l 23.779758188859926 -2.3614777019509794" fill="#ffeb16" stroke="none" /><path d="M 79.04373962182676 101.35467743843564 l -25.148340924089492 1.6256664810022496 a46.20083019945352,46.20083019945352 0 0,0 -0.04447082715983264,-0.7940564927507924 l 25.172598102136856 -1.1925382719160196" fill="#fffd17" stroke="none" /><path d="M 79.0095281055655 100.63252640178507 l -21.851968335226932 0.6584867159021472 a42.8618874957946,42.8618874957946 0 0,0 -0.015875098768788246,-0.7376534597827571 l 21.86006549668073 -0.2822434403292613" fill="#ffce13" stroke="none" /><line stroke="#e1ed5e" stroke-width="0.3" x1="15.007084014347285" x2="10.007500721073583" y1="101.09737516637583" y2="101.16192664675087" /><path d="M 14.007167355692545 101.11028546245083 a86.0,86.0 0 0,1 10.666146001902534,-42.60595125391555" fill="none" id="id22" stroke="none" /><text fill="#e1ed5e" style="font-size:6.75px; font-family:Arial;" text-anchor="middle"><textPath startOffset="22.20632615414155" xlink:href="#id22">October</textPath></text><path d="M 79.16333360222342 97.38593545837743 l -31.52736500769575 -3.955266422377604 a52.77450041779518,52.77450041779518 0 0,0 0.12083852989579098,-0.900387405066523 l 31.454610478742126 4.497372169508786" fill="#aaff21" stroke="none" /><path d="M 79.26566170972629 96.67025291283419 l -46.5947426443161 -7.482693994142603 a68.19174452698297,68.19174452698297 0 0,0 0.19609392912728674,-1.157357469950147 l 46.45903685366859 8.283637252408578" fill="#37ff74" stroke="none" /><path d="M 79.3925641242962 95.95851677861259 l -22.701029998028382 -4.4520741153154555 a44.13347632543899,44.13347632543899 0 0,0 0.15261924402249036,-0.7442256354749569 l 22.621031458090897 4.842175406953815" fill="#ffe015" stroke="none" /><path d="M 79.54389044137918 95.25157060432595 l -31.007245181819776 -7.197640102498174 a52.83167097107181,52.83167097107181 0 0,0 0.21325680027427418,-0.8840871150164843 l 30.878755581284686 7.730312449174056" fill="#a9ff21" stroke="none" /><path d="M 79.81627453868168 94.20196356495316 l -58.756409453339074 -16.87853926946644 a82.13264872160664,82.13264872160664 0 0,0 0.4020358068179459,-1.3554648778846803 l 58.45716774940942 17.88743353409766" fill="#4ae6ff" stroke="none" /><path d="M 80.02781315780177 93.51064311812611 l -23.948930740917522 -7.781479301441828 a46.18139598497335,46.18139598497335 0 0,0 0.25215637338259284,-0.7539154613449497 l 23.81143707376316 8.1925678657091" fill="#fffd17" stroke="none" /><path d="M 80.2630227832202 92.82701384747504 l -24.052144881846665 -8.741242404096905 a46.5913069651498,46.5913069651498 0 0,0 0.2804251150527187,-0.7513998897457109 l 23.89811517829232 9.153965430871958" fill="#fcff18" stroke="none" /><path d="M 80.65960295795068 91.81776055985345 l -25.406654920260618 -10.7486590621059 a48.58680456070609,48.58680456070609 0 0,0 0.33249405687768924,-0.7674421254566633 l 25.217870153540247 11.184400332149163" fill="#e1ff1b" stroke="none" /><path d="M 80.95270993114464 91.15688171328213 l -20.20188419789553 -9.379163698917857 a43.27296201308393,43.27296201308393 0 0,0 0.31948181849170515,-0.6729101877653191 l 20.037444185562073 9.725516302323708" fill="#ffd313" stroke="none" /><path d="M 81.26839172434947 90.50648371742162 l -28.075645542154856 -14.229242581632503 a52.47559716757831,52.47559716757831 0 0,0 0.4152832970733978,-0.8021951479271863 l 27.826552811921346 14.710410451820024" fill="#adff20" stroke="none" /><line stroke="#e1ed5e" stroke-width="0.3" x1="26.266209847984243" x2="21.928928074336255" y1="57.711370442889674" y2="55.22380399835377" /><path d="M 25.398753493254645 57.213857153982495 a86.0,86.0 0 0,1 29.58750427330803,-30.492523968695096" fill="none" id="id23" stroke="none" /><text fill="#e1ed5e" style="font-size:6.75px; font-family:Arial;" text-anchor="middle"><textPath startOffset="21.46611528233685" xlink:href="#id23">November</textPath></text><path d="M 81.78341655067845 89.55222093294921 l -54.64975034796462 -31.34333720115236 a84.0,84.0 0 0,0 0.7301613021187001,-1.2480823505844327 l 54.1021293713756 32.27939896409068" fill="#4dd2ff" stroke="none" /><path d="M 82.34701348167596 88.62581576622439 l -18.03625709166733 -11.621133389266447 a42.45593883119179,42.45593883119179 0 0,0 0.4011143387212751,-0.6109246567454896 l 17.83354611758814 11.929876109989603" fill="#ffc812" stroke="none" /><path d="M 82.54541684631803 88.32363383020206 l -7.187575927806834 -4.808179471681865 a29.647533610798583,29.647533610798583 0 0,0 0.28740535697249053,-0.42173189739878764 l 7.103746105165603 4.931189392351069" fill="#ff0000" stroke="none" /><path d="M 83.6137871275137 86.86637796730984 l -14.734777881413004 -11.80998958917823 a39.88357840323375,39.88357840323375 0 0,0 0.4339741812632541,-0.5320010325439515 l 14.529305208073357 12.061874791330263" fill="#ffa20f" stroke="none" /><line stroke="#e1ed5e" stroke-width="0.3" x1="56.762969772571076" x2="54.21961505331055" y1="26.818313649435495" y2="22.513508569990535" /><path d="M 56.25429882871897 25.957352633546506 a86.0,86.0 0 0,1 42.265352541879196,-11.944610805530505" fill="none" id="id24" stroke="none" /><text fill="#e1ed5e" style="font-size:6.75px; font-family:Arial;" text-anchor="middle"><textPath startOffset="22.20632615414155" xlink:href="#id24">December</textPath></text></svg>