<?xml version="1.0" encoding="utf-8" ?>
<svg baseProfile="full" height="200mm" version="1.1" viewBox="0,0,200,200" width="200mm" xmlns="http://www.w3.org/2000/svg" xmlns:ev="http://www.w3.org/2001/xml-events" xmlns:xlink="http://www.w3.org/1999/xlink"><defs /><rect fill="#1a1a1a" height="200" width="200" x="0" y="0" /><rect fill="#1a1a1a" height="200" width="180" x="10" y="0" /><text alignment-baseline="middle" fill="#e1ed5e" style="dominant-baseline: central; font-size:9.0px; font-family:Arial;" text-anchor="middle" x="100.0" y="100.0">2025</text><line stroke="#e1ed5e" stroke-width="0.3" x1="100.0" x2="100.0" y1="15.0" y2="10.0" /><path d="M 100.0 14.0 a86.0,86.0 0 0,1 42.46469731375804,11.215312516191453" fill="none" id="id13" stroke="none" /><text fill="#e1ed5e" style="font-size:6.75px; font-family:Arial;" text-anchor="middle"><textPath startOffset="22.20632615414155" xlink:href="#id13">January</textPath></text><path d="M 103.95276090670814 79.375362276772 l 9.28114037114526 -48.42695076457641 a70.30830687565341,70.30830687565341 0 0,0 1.1866488404869067,0.23803059398897958 l -10.113355621099291 48.26001621451022" fill="red" stroke="none" /><line stroke="#e1ed5e" stroke-width="0.3" x1="143.23703022742887" x2="145.7803849466894" y1="26.81831364943548" y2="22.513508569990506" /><path d="M 143.74570117128098 25.957352633546492 a86.0,86.0 0 0,1 28.547481713284135,27.462654790039103" fill="none" id="id14" stroke="none" /><text fill="#e1ed5e" style="font-size:6.75px; font-family:Arial;" text-anchor="middle"><textPath startOffset="19.985693538727396" xlink:href="#id14">February</textPath></text><line stroke="#e1ed5e" stroke-width="0.3" x1="172.23445277983987" x2="176.4835382374775" y1="55.19839476539836" y2="52.563006222186495" /><path d="M 173.08426987136738 54.67131705675599 a86.0,86.0 0 0,1 12.851231095245387,41.99856678651699" fill="none" id="id15" stroke="none" /><text fill="#e1ed5e" style="font-size:6.75px; font-family:Arial;" text-anchor="middle"><textPath startOffset="22.20632615414155" xlink:href="#id15">March</textPath></text><path d="M 120.6074358757038 95.95851677861258 l 20.98381995693827 -4.115298807095494 a42.383554060466246,42.383554060466246 0 0,0 0.13424340078377411,0.7171336148921081 l -21.051549081631904 3.7534871147408233" fill="red" stroke="none" /><path d="M 120.78858239683441 97.02765380044208 l 21.643722853735515 -3.0946139635948313 a42.86383714156756,42.86383714156756 0 0,0 0.09814594216666145,0.7313012684071926 l -21.69378479496001 2.7215943531229745" fill="red" stroke="none" /><path d="M 120.87857604477298 97.74499172005257 l 24.343706530232016 -2.6292626313482086 a45.485282714615835,45.485282714615835 0 0,0 0.07737452560583419,0.7791509135844723 l -24.385358181520076 2.2098361870593015" fill="red" stroke="none" /><line stroke="#e1ed5e" stroke-width="0.3" x1="184.98032266829074" x2="189.97916517819016" y1="98.17113171792111" y2="98.06355123074" /><path d="M 185.9800911702706 98.14961562048488 a86.0,86.0 0 0,1 -9.607161424134198,41.387399972396054" fill="none" id="id16" stroke="none" /><text fill="#e1ed5e" style="font-size:6.75px; font-family:Arial;" text-anchor="middle"><textPath startOffset="21.466115282336823" xlink:href="#id16">April</textPath></text><path d="M 120.99513854157772 99.54816195383933 l 22.08482947448921 -0.47528937138391725 a43.089943252616514,43.089943252616514 0 0,0 0.009576212307523908,0.7416881965739562 l -22.089738693914448 0.0950649167494983" fill="red" stroke="none" /><path d="M 120.89721153311464 102.0752229133903 l 18.461075156849052 1.8332994385688497 a39.5518808420679,39.5518808420679 0 0,0 -0.07311014217112924,0.676909116714936 l -18.42678271317687 -2.1508048771685773" fill="red" stroke="none" /><path d="M 120.81339534386255 102.79330883721812 l 23.606056003208057 3.168104182726287 a44.81769854833172,44.81769854833172 0 0,0 -0.10919714654653719,0.7637245886160734 l -23.548024805644918 -3.57397424332277" fill="red" stroke="none" /><path d="M 120.76222939487914 103.15116336523771 l 26.044996483590435 3.9529492332397345 a47.343265732835945,47.343265732835945 0 0,0 -0.12922061593397557,0.8046568987715762 l -25.97309411329517 -4.400685361704515" fill="red" stroke="none" /><path d="M 120.64145759157962 103.86396538481128 l 42.61053662177144 7.97645407570069 a64.35068224165667,64.35068224165667 0 0,0 -0.213184822695895,1.0870248180495365 l -42.46692186609988 -8.708742620818171" fill="red" stroke="none" /><path d="M 120.41448212921028 104.9243191809786 l 25.582739845544697 6.170990560820787 a47.316491075114094,47.316491075114094 0 0,0 -0.1978025030311309,0.7901226741640044 l -25.472726028218506 -6.610441074382187" fill="red" stroke="none" /><path d="M 120.13307415673323 105.97154293290107 l 39.611910197590525 11.749036463963197 a62.31759053155826,62.31759053155826 0 0,0 -0.3138825085792468,1.0257861991573811 l -39.40380091650514 -12.429149635672635" fill="red" stroke="none" /><path d="M 119.9155931802556 106.66101706037122 l 24.99246793616196 8.359040767542883 a47.35331129276789,47.35331129276789 0 0,0 -0.2651992187251885,0.7707930666179884 l -24.844877886493542 -8.788006537250173" fill="red" stroke="none" /><path d="M 119.67450827220406 107.3425965602758 l 24.786621312398 9.250455354271663 a47.45652131981066,47.45652131981066 0 0,0 -0.2922095084402011,0.7628668189356451 l -24.62371752436429 -9.675745740040453" fill="red" stroke="none" /><path d="M 119.12269723197855 108.67885076344098 l 24.01135300766385 10.897570925994996 a47.368582164116056,47.368582164116056 0 0,0 -0.3433666937945951,0.739581311098455 l -23.820211697029425 -11.309272304372282" fill="red" stroke="none" /><path d="M 118.81262510543309 109.33194174019688 l 23.244299247522083 11.53025934200609 a46.94695219100452,46.94695219100452 0 0,0 -0.3653396845968757,0.720849857494494 l -23.042380893138937 -11.92866341120328" fill="red" stroke="none" /><line stroke="#e1ed5e" stroke-width="0.3" x1="174.80103733775053" x2="179.2010983576182" y1="140.37084112569926" y2="142.7455964860345" /><path d="M 175.68104954172406 140.8457921977663 a86.0,86.0 0 0,1 -30.038265399797805,32.042727171017184" fill="none" id="id17" stroke="none" /><text fill="#e1ed5e" style="font-size:6.75px; font-family:Arial;" text-anchor="middle"><textPath startOffset="22.206326154141568" xlink:href="#id17">May</textPath></text><path d="M 116.0416608686014 113.55231037782055 l 20.137368518374938 17.0124446956572 a47.36165558851782,47.36165558851782 0 0,0 -0.53148232850301,0.6182340199255778 l -19.841543680301147 -17.356555814744308" fill="red" stroke="none" /><path d="M 115.56566222782051 114.09645910891815 l 19.29763451622504 17.476180060660543 a47.034891346699126,47.034891346699126 0 0,0 -0.5486364564240421,0.5954365164321676 l -18.993951651805272 -17.805767831894045" fill="red" stroke="none" /><path d="M 114.81725581225074 114.88116024355365 l 18.577087531015962 18.657207509301855 a47.32868346841859,47.32868346841859 0 0,0 -0.582255601336043,0.5698596544666575 l -18.253181977304127 -18.974217266691085" fill="red" stroke="none" /><path d="M 114.29624159901734 115.38237550388516 l 17.995757214544305 19.36295585336905 a47.43428336657421,47.43428336657421 0 0,0 -0.602868171488338,0.5507057807882154 l -17.659789493589102 -19.669854400743848" fill="red" stroke="none" /><path d="M 113.75828350139079 115.86535959552629 l 20.453782614336593 23.586271952629136 a52.21969647286657,52.21969647286657 0 0,0 -0.6841638715406376,0.5830592939451439 l -20.04475326621891 -23.934855636797227" fill="red" stroke="none" /><path d="M 112.92097659922987 116.55440617244103 l 16.266102840307955 20.840195103921488 a47.4367137439771,47.4367137439771 0 0,0 -0.6480109708488034,0.49686717984151324 l -15.904963140965659 -21.117101625590372" fill="red" stroke="none" /><path d="M 112.34349029814194 116.9893568818739 l 15.511111073886962 21.349212848518217 a47.38907834688044,47.38907834688044 0 0,0 -0.6640624150435748,0.47379090118292416 l -15.141321330994503 -21.61304801154536" fill="red" stroke="none" /><line stroke="#e1ed5e" stroke-width="0.3" x1="143.8653032363475" x2="146.44561519142675" y1="172.8068346515853" y2="177.08958963109032" /><path d="M 144.38136562736335 173.6633856474863 a86.0,86.0 0 0,1 -40.68145358897372,12.25698825130547" fill="none" id="id18" stroke="none" /><text fill="#e1ed5e" style="font-size:6.75px; font-family:Arial;" text-anchor="middle"><textPath startOffset="21.466115282336833" xlink:href="#id18">June</textPath></text><path d="M 108.59647513512805 119.15986991738527 l 10.34685050926032 23.061115945298013 a46.275924990066315,46.275924990066315 0 0,0 -0.7295715250142641,0.31982271643550425 l -9.948358309588302 -23.23580321502797" fill="red" stroke="none" /><path d="M 107.93186726928326 119.44442032107085 l 9.951484154777262 24.39537049155017 a47.34703281781043,47.34703281781043 0 0,0 -0.7572795445455529,0.3013371592433228 l -9.530083534189844 -24.563054495199562" fill="red" stroke="none" /><path d="M 107.2578585660854 119.70592522655815 l 9.141403605059 24.81996779998455 a47.44987828824276,47.44987828824276 0 0,0 -0.7688697824756596,0.27568934891919555 l -8.712814261953607 -24.973644689943704" fill="red" stroke="none" /><path d="M 105.18746579009965 120.34920634021253 l 6.516016084920389 25.5607961947912 a47.378263167437574,47.378263167437574 0 0,0 -0.7919992218809841,0.19465413949301216 l -6.075063578296194 -25.669171592598246" fill="red" stroke="none" /><path d="M 104.48393922423573 120.51570834832081 l 5.63416177241142 25.778409101821104 a47.38693151350788,47.38693151350788 0 0,0 -0.798376237435256,0.16730750302131436 l -5.189594073546786 -25.87157258556896" fill="red" stroke="none" /><path d="M 103.7750983002368 120.6578951692458 l 4.7478211840476705 25.980778380321578 a47.411032756086556,47.411032756086556 0 0,0 -0.804070860935836,0.1397980258116199 l -4.299901351639784 -26.058654984654204" fill="red" stroke="none" /><path d="M 103.06178313531738 120.77559828337769 l 3.851427871378161 26.1336988077906 a47.41597452347243,47.41597452347243 0 0,0 -0.8084907046604346,0.11204944468185742 l -3.4010085755308954 -26.196122817965062" fill="red" stroke="none" /><path d="M 102.34483914955558 120.86867818915974 l 2.95256659624803 26.277351323156147 a47.44270867490424,47.44270867490424 0 0,0 -0.8123262651539127,0.08420093878491192 l -2.4998077344885146 -26.32428163039682" fill="red" stroke="none" /><path d="M 100.90346689309514 120.98055641714683 l 1.137756816882346 26.421301398013338 a47.445787152947894,47.445787152947894 0 0,0 -0.8162474903398246,0.028113213970322883 l -0.6827889748678692 -26.436971410409754" fill="red" stroke="none" /><line stroke="#e1ed5e" stroke-width="0.3" x1="102.19456741930631" x2="102.32365962044197" y1="184.97166512339345" y2="189.96999836594603" /><path d="M 102.22038585953345 185.97133177190398 a86.0,86.0 0 0,1 -42.740103519485714,-10.115201625700543" fill="none" id="id19" stroke="none" /><text fill="#e1ed5e" style="font-size:6.75px; font-family:Arial;" text-anchor="middle"><textPath startOffset="22.20632615414155" xlink:href="#id19">July</textPath></text><path d="M 100.18074693466247 120.99922214144158 l 0.369657913953195 42.946944942337396 a63.94853579405831,63.94853579405831 0 0,0 -1.1008096972312715,0.0 l 0.36965791395316544 -42.946944942337396" fill="red" stroke="none" /><path d="M 99.45781275523022 120.99299961872073 l -0.680844815512196 26.361695318975098 a47.37048595974832,47.37048595974832 0 0,0 -0.8149520242161492,-0.028068595497668696 l 1.1345171914029883 -26.346069925051335" fill="red" stroke="none" /><path d="M 98.37488393609728 120.93702456842531 l -2.3512803055894307 30.292490868102945 a51.38360613998202,51.38360613998202 0 0,0 -0.8812427488688158,-0.0760373324485049 l 2.872367372199788 -30.24752928337578" fill="red" stroke="none" /><path d="M 95.86986931433489 120.58985236759428 l -5.176752093087608 25.807551734442 a47.321635373950215,47.321635373950215 0 0,0 -0.7972761264013696,-0.16707696405798836 l 5.620219680918365 -25.71461878965747" fill="red" stroke="none" /><path d="M 95.16358092515715 120.4354850818985 l -6.069279704763752 25.64473279615436 a47.3531492676077,47.3531492676077 0 0,0 -0.7915794051170537,-0.1945509587465289 l 6.509812394624016 -25.536460579093802" fill="red" stroke="none" /><path d="M 92.7421414339146 119.70592522655815 l -9.099657177821667 24.706621422933498 a47.32908853131908,47.32908853131908 0 0,0 -0.7620654407958068,-0.28814794236129626 l 9.523592839377757 -24.54632523046557" fill="red" stroke="none" /><path d="M 92.06813273071674 119.44442032107085 l -9.944706454839572 24.37875543207877 a47.32908853131908,47.32908853131908 0 0,0 -0.7516953248174404,-0.3142087067379871 l 10.362873239154474 -24.20396168232081" fill="red" stroke="none" /><line stroke="#e1ed5e" stroke-width="0.3" x1="58.666819895761336" x2="56.23545636021788" y1="174.27360380694188" y2="178.64263932499728" /><path d="M 58.180547188652646 175.14741091055294 a86.0,86.0 0 0,1 -31.652253787137756,-30.449443065178592" fill="none" id="id20" stroke="none" /><text fill="#e1ed5e" style="font-size:6.75px; font-family:Arial;" text-anchor="middle"><textPath startOffset="22.20632615414155" xlink:href="#id20">August</textPath></text><path d="M 88.24862548938628 117.40417183066458 l -14.885343360479025 22.045682687606675 a47.60048067464191,47.60048067464191 0 0,0 -0.6751178789325358,-0.46435223318328095 l 15.26261812403445 -21.786189665058295" fill="red" stroke="none" /><path d="M 87.65650970185807 116.9893568818739 l -16.299784196084698 22.434728275072747 a48.73084920472651,48.73084920472651 0 0,0 -0.6743770087219084,-0.4988879889751834 l 16.68354617522517 -22.150830337357796" fill="red" stroke="none" /><path d="M 86.79598089348748 116.32954008644616 l -19.2218751404917 23.77188173625917 a51.570947731454865,51.570947731454865 0 0,0 -0.6854758100528366,-0.5640999247179231 l 19.62822107908923 -23.437486692684068" fill="red" stroke="none" /><path d="M 86.24171649860922 115.8653595955263 l -17.296827674063202 19.94583051607587 a47.4010682087347,47.4010682087347 0 0,0 -0.6118296199225702,-0.5398685033715527 l 17.637599646892358 -19.64513887093203" fill="red" stroke="none" /><path d="M 85.70375840098266 115.38237550388516 l -29.34129875673468 31.570456621186004 a64.09994830625841,64.09994830625841 0 0,0 -0.8017504494026253,-0.7581050926500442 l 29.880385040528125 -31.06071689179003" fill="red" stroke="none" /><path d="M 84.9287848128048 114.62390073753433 l -18.947931347090115 18.385555760419663 a47.40175681566552,47.40175681566552 0 0,0 -0.5631632275541142,-0.5904743925935748 l 19.261601126023184 -18.05667425124359" fill="red" stroke="none" /><path d="M 84.43433777217949 114.09645910891817 l -19.584875595261586 17.7363091875668 a47.42241502359009,47.42241502359009 0 0,0 -0.5427408466296937,-0.6097750947446777 l 19.88727529153962 -17.39655992308126" fill="red" stroke="none" /><path d="M 83.72743513129214 113.27417163493432 l -33.30766198026903 27.17037083285419 a63.98405981043057,63.98405981043057 0 0,0 -0.6888404684356573,-0.8594343984374458 l 33.77042036075955 -26.593008600838484" fill="red" stroke="none" /><path d="M 83.28015986056508 112.70617746262583 l -21.041556869082395 15.990449276958842 a47.428045397906786,47.428045397906786 0 0,0 -0.48837049809387445,-0.6542520905629254 l 21.313688633871354 -15.625884306886608" fill="red" stroke="none" /><path d="M 82.85270091963577 112.12312394758628 l -21.57960391751245 15.256759201885046 a47.42816691677693,47.42816691677693 0 0,0 -0.4655618715803472,-0.6706765992566555 l 21.83902669625493 -14.883041340441379" fill="red" stroke="none" /><path d="M 82.24976979558568 111.22182372390057 l -42.25005222508793 26.710788138264235 a70.98532900751874,70.98532900751874 0 0,0 -0.6440578686064898,-1.0384263566834995 l 42.70357473336237 -25.97956545021547" fill="red" stroke="none" /><line stroke="#e1ed5e" stroke-width="0.3" x1="26.63291911575756" x2="22.317208475507996" y1="142.92168965132927" y2="145.44649492493687" /><path d="M 25.769776987707644 143.4266507060508 a86.0,86.0 0 0,1 -11.730757126820373,-40.83630448921669" fill="none" id="id21" stroke="none" /><text fill="#e1ed5e" style="font-size:6.75px; font-family:Arial;" text-anchor="middle"><textPath startOffset="21.46611528233685" xlink:href="#id21">September</textPath></text><path d="M 81.87401531095188 110.60418214915194 l -24.820884426628634 14.520876193945451 a49.756427962456456,49.756427962456456 0 0,0 -0.4261235356017064,-0.7429823023812925 l 25.067159958382717 -14.091474045705851" fill="red" stroke="none" /><path d="M 81.51974371655577 109.97397251340807 l -24.797623875776218 13.38351671867224 a49.17872725378927,49.17872725378927 0 0,0 -0.3956486961057206,-0.7484182289278933 l 25.024325080106824 -12.95468347465822" fill="red" stroke="none" /><path d="M 81.02952815118164 109.00673069616217 l -56.9114155464551 27.020192088486496 a84.0,84.0 0 0,0 -0.6089015326406932,-1.3115197308846915 l 57.36809169593562 -26.03655229032298" fill="red" stroke="none" /><path d="M 80.73074385275274 108.34839909993369 l -26.066634757567147 11.293361221910034 a49.40791184288189,49.40791184288189 0 0,0 -0.331383614495568,-0.7832929755302886 l 26.25716935325502 -10.842993720713586" fill="red" stroke="none" /><line stroke="#e1ed5e" stroke-width="0.3" x1="15.007084014347285" x2="10.007500721073583" y1="101.09737516637583" y2="101.16192664675087" /><path d="M 14.007167355692545 101.11028546245083 a86.0,86.0 0 0,1 10.666146001902534,-42.60595125391555" fill="none" id="id22" stroke="none" /><text fill="#e1ed5e" style="font-size:6.75px; font-family:Arial;" text-anchor="middle"><textPath startOffset="22.20632615414155" xlink:href="#id22">October</textPath></text><line stroke="#e1ed5e" stroke-width="0.3" x1="26.266209847984243" x2="21.928928074336255" y1="57.711370442889674" y2="55.22380399835377" /><path d="M 25.398753493254645 57.213857153982495 a86.0,86.0 0 0,1 29.58750427330803,-30.492523968695096" fill="none" id="id23" stroke="none" /><text fill="#e1ed5e" style="font-size:6.75px; font-family:Arial;" text-anchor="middle"><textPath startOffset="21.46611528233685" xlink:href="#id23">November</textPath></text><line stroke="#e1ed5e" stroke-width="0.3" x1="56.762969772571076" x2="54.21961505331055" y1="26.818313649435495" y2="22.513508569990535" /><path d="M 56.25429882871897 25.957352633546506 a86.0,86.0 0 0,1 42.265352541879196,-11.944610805530505" fill="none" id="id24" stroke="none" /><text fill="#e1ed5e" style="font-size:6.75px; font-family:Arial;" text-anchor="middle"><textPath startOffset="22.20632615414155" xlink:href="#id24">December</textPath></text></svg>