<?xml version="1.0" encoding="utf-8" ?>
<svg baseProfile="full" height="200mm" version="1.1" viewBox="0,0,200,200" width="200mm" xmlns="http://www.w3.org/2000/svg" xmlns:ev="http://www.w3.org/2001/xml-events" xmlns:xlink="http://www.w3.org/1999/xlink"><defs /><rect fill="#1a1a1a" height="200" width="200" x="0" y="0" /><rect fill="#1a1a1a" height="200" width="180" x="10" y="0" /><text alignment-baseline="middle" fill="#e1ed5e" style="dominant-baseline: central; font-size:9.0px; font-family:Arial;" text-anchor="middle" x="100.0" y="100.0">2026</text><line stroke="#e1ed5e" stroke-width="0.3" x1="100.0" x2="100.0" y1="15.0" y2="10.0" /><path d="M 100.0 14.0 a86.0,86.0 0 0,1 42.46469731375804,11.215312516191453" fill="none" id="id133" stroke="none" /><text fill="#e1ed5e" style="font-size:6.75px; font-family:Arial;" text-anchor="middle"><textPath startOffset="22.20632615414155" xlink:href="#id133">January</textPath></text><path d="M 100.72285384407766 79.0124445844662 l 0.7741933445612065 -22.47816187800491 a43.49149031853061,43.49149031853061 0 0,0 0.7479690686470457,0.03220912149067256 l -1.1610032455975838 22.461505029990043" fill="#ff0500" stroke="none" /><path d="M 101.44485096284872 79.0497635885617 l 1.856136673746416 -26.913850028004404 a47.97777912804423,47.97777912804423 0 0,0 0.8234124900168496,0.06391265675651413 l -2.319139353125607 26.877912109059423" fill="#ff6609" stroke="none" /><path d="M 102.16513564639614 79.11191278185805 l 3.442751518674471 -33.21385157191482 a54.39180250092115,54.39180250092115 0 0,0 0.9304450721168511,0.10454634509357486 l -4.013963294301047 33.149669273350646" fill="#ffe515" stroke="none" /><path d="M 102.88285421437855 79.19881850522331 l 3.0564497373383306 -22.053756793852376 a43.26454746270998,43.26454746270998 0 0,0 0.7367973438277039,0.10858477578877958 l -3.4356160615946902 21.997877533902624" fill="#ff0000" stroke="none" /><path d="M 103.95276090670814 79.375362276772 l 4.315912263047867 -22.519481691780506 a43.929329565618886,43.929329565618886 0 0,0 0.7414300003640127,0.14872388306171577 l -4.702908672879005 22.441853852641582" fill="#ff0f01" stroke="none" /><path d="M 104.66035177308747 79.52364482259891 l 6.48730011203767 -28.503483793557802 a50.23240754904146,50.23240754904146 0 0,0 0.8414557677427479,0.19914539387921862 l -6.9769795667429415 28.387592487537717" fill="#ff940d" stroke="none" /><path d="M 105.36241919743992 79.69619591428918 l 8.557355775468151 -32.400837897898754 a54.51182827530975,54.51182827530975 0 0,0 0.9051614086607197,0.24741480565727755 l -9.113815073352582 32.24873655141518" fill="#ffe715" stroke="none" /><path d="M 106.40334571778207 80.00007090966166 l 6.857698450374242 -21.419034482166598 a43.490065944423264,43.490065944423264 0 0,0 0.7109946047871689,0.2344037426652139 l -7.225375877403828 21.29781701524215" fill="#ff0500" stroke="none" /><path d="M 107.08798089147638 80.2323363322302 l 7.515515756082854 -20.960015275256406 a43.26668402387099,43.26668402387099 0 0,0 0.6988963774338257,0.2574094340380352 l -7.875194459289256 20.827542573412046" fill="#ff0000" stroke="none" /><path d="M 107.76421540070413 80.48803036053334 l 17.376142238564842 -43.66735623784777 a67.99753525343579,67.99753525343579 0 0,0 1.0838034227408206,0.4421106288192832 l -18.12522953089405 43.3617847228449" fill="#34ff2f" stroke="none" /><path d="M 108.76106565485865 80.91482961587045 l 9.356175114822992 -20.38156124433594 a43.42645873819248,43.42645873819248 0 0,0 0.6766706431064546,0.31770594010120945 l -9.705623969229046 20.217490321594727" fill="#ff0400" stroke="none" /><path d="M 109.41281617654863 81.2277094730956 l 10.17936735390011 -20.301048885198295 a43.71017625569776,43.71017625569776 0 0,0 0.6696805140913215,0.34303636984985947 l -10.527308355580187 20.122819990035936" fill="#ff0a01" stroke="none" /><line stroke="#e1ed5e" stroke-width="0.3" x1="143.23703022742887" x2="145.7803849466894" y1="26.81831364943548" y2="22.513508569990506" /><path d="M 143.74570117128098 25.957352633546492 a86.0,86.0 0 0,1 28.547481713284135,27.462654790039103" fill="none" id="id134" stroke="none" /><text fill="#e1ed5e" style="font-size:6.75px; font-family:Arial;" text-anchor="middle"><textPath startOffset="19.985693538727396" xlink:href="#id134">February</textPath></text><path d="M 110.68208982089419 81.91981866633111 l 28.364338575152438 -48.008619422506065 a76.76166462419238,76.76166462419238 0 0,0 1.131824915615695,0.6819118475830386 l -29.18652555698577 47.51326096546441" fill="#3fffc1" stroke="none" /><path d="M 111.60114157652 82.49532879139004 l 12.383180132699083 -18.684669548262768 a43.41562014146946,43.41562014146946 0 0,0 0.6193864754196685,0.41821251308500945 l -12.702971302525293 18.46874512287909" fill="#ff0300" stroke="none" /><path d="M 112.19680574252982 82.90503203632743 l 12.998859286472555 -18.21912128121219 a43.38094553429396,43.38094553429396 0 0,0 0.6041409858335934,0.4389341191191872 l -13.310545588659936 17.992667927276326" fill="#ff0300" stroke="none" /><path d="M 112.77801427241765 83.33499621200491 l 38.33404281725294 -49.995011363985284 a84.0,84.0 0 0,0 1.1398697793622787,0.8896864431071037 l -39.188945151774654 49.32774653165496" fill="#4dd2ff" stroke="none" /><path d="M 113.6212207817346 84.01681056812373 l 14.514272254595692 -17.031099240540062 a43.37682820288994,43.37682820288994 0 0,0 0.5641181322496751,0.4891976853745347 l -14.805284185492132 16.778736561745855" fill="#ff0200" stroke="none" /><line stroke="#e1ed5e" stroke-width="0.3" x1="172.23445277983987" x2="176.4835382374775" y1="55.19839476539836" y2="52.563006222186495" /><path d="M 173.08426987136738 54.67131705675599 a86.0,86.0 0 0,1 12.851231095245387,41.99856678651699" fill="none" id="id135" stroke="none" /><text fill="#e1ed5e" style="font-size:6.75px; font-family:Arial;" text-anchor="middle"><textPath startOffset="22.20632615414155" xlink:href="#id135">March</textPath></text><line stroke="#e1ed5e" stroke-width="0.3" x1="184.98032266829074" x2="189.97916517819016" y1="98.17113171792111" y2="98.06355123074" /><path d="M 185.9800911702706 98.14961562048488 a86.0,86.0 0 0,1 -9.607161424134198,41.387399972396054" fill="none" id="id136" stroke="none" /><text fill="#e1ed5e" style="font-size:6.75px; font-family:Arial;" text-anchor="middle"><textPath startOffset="21.466115282336823" xlink:href="#id136">April</textPath></text><line stroke="#e1ed5e" stroke-width="0.3" x1="174.80103733775053" x2="179.2010983576182" y1="140.37084112569926" y2="142.7455964860345" /><path d="M 175.68104954172406 140.8457921977663 a86.0,86.0 0 0,1 -30.038265399797805,32.042727171017184" fill="none" id="id137" stroke="none" /><text fill="#e1ed5e" style="font-size:6.75px; font-family:Arial;" text-anchor="middle"><textPath startOffset="22.206326154141568" xlink:href="#id137">May</textPath></text><line stroke="#e1ed5e" stroke-width="0.3" x1="143.8653032363475" x2="146.44561519142675" y1="172.8068346515853" y2="177.08958963109032" /><path d="M 144.38136562736335 173.6633856474863 a86.0,86.0 0 0,1 -40.68145358897372,12.25698825130547" fill="none" id="id138" stroke="none" /><text fill="#e1ed5e" style="font-size:6.75px; font-family:Arial;" text-anchor="middle"><textPath startOffset="21.466115282336833" xlink:href="#id138">June</textPath></text><line stroke="#e1ed5e" stroke-width="0.3" x1="102.19456741930631" x2="102.32365962044197" y1="184.97166512339345" y2="189.96999836594603" /><path d="M 102.22038585953345 185.97133177190398 a86.0,86.0 0 0,1 -42.740103519485714,-10.115201625700543" fill="none" id="id139" stroke="none" /><text fill="#e1ed5e" style="font-size:6.75px; font-family:Arial;" text-anchor="middle"><textPath startOffset="22.20632615414155" xlink:href="#id139">July</textPath></text><line stroke="#e1ed5e" stroke-width="0.3" x1="58.666819895761336" x2="56.23545636021788" y1="174.27360380694188" y2="178.64263932499728" /><path d="M 58.180547188652646 175.14741091055294 a86.0,86.0 0 0,1 -31.652253787137756,-30.449443065178592" fill="none" id="id140" stroke="none" /><text fill="#e1ed5e" style="font-size:6.75px; font-family:Arial;" text-anchor="middle"><textPath startOffset="22.20632615414155" xlink:href="#id140">August</textPath></text><line stroke="#e1ed5e" stroke-width="0.3" x1="26.63291911575756" x2="22.317208475507996" y1="142.92168965132927" y2="145.44649492493687" /><path d="M 25.769776987707644 143.4266507060508 a86.0,86.0 0 0,1 -11.730757126820373,-40.83630448921669" fill="none" id="id141" stroke="none" /><text fill="#e1ed5e" style="font-size:6.75px; font-family:Arial;" text-anchor="middle"><textPath startOffset="21.46611528233685" xlink:href="#id141">September</textPath></text><line stroke="#e1ed5e" stroke-width="0.3" x1="15.007084014347285" x2="10.007500721073583" y1="101.09737516637583" y2="101.16192664675087" /><path d="M 14.007167355692545 101.11028546245083 a86.0,86.0 0 0,1 10.666146001902534,-42.60595125391555" fill="none" id="id142" stroke="none" /><text fill="#e1ed5e" style="font-size:6.75px; font-family:Arial;" text-anchor="middle"><textPath startOffset="22.20632615414155" xlink:href="#id142">October</textPath></text><line stroke="#e1ed5e" stroke-width="0.3" x1="26.266209847984243" x2="21.928928074336255" y1="57.711370442889674" y2="55.22380399835377" /><path d="M 25.398753493254645 57.213857153982495 a86.0,86.0 0 0,1 29.58750427330803,-30.492523968695096" fill="none" id="id143" stroke="none" /><text fill="#e1ed5e" style="font-size:6.75px; font-family:Arial;" text-anchor="middle"><textPath startOffset="21.46611528233685" xlink:href="#id143">November</textPath></text><line stroke="#e1ed5e" stroke-width="0.3" x1="56.762969772571076" x2="54.21961505331055" y1="26.818313649435495" y2="22.513508569990535" /><path d="M 56.25429882871897 25.957352633546506 a86.0,86.0 0 0,1 42.265352541879196,-11.944610805530505" fill="none" id="id144" stroke="none" /><text fill="#e1ed5e" style="font-size:6.75px; font-family:Arial;" text-anchor="middle"><textPath startOffset="22.20632615414155" xlink:href="#id144">December</textPath></text></svg>