<?xml version="1.0" encoding="utf-8" ?>
<svg baseProfile="full" height="200mm" version="1.1" viewBox="0,0,200,200" width="200mm" xmlns="http://www.w3.org/2000/svg" xmlns:ev="http://www.w3.org/2001/xml-events" xmlns:xlink="http://www.w3.org/1999/xlink"><defs /><rect fill="#1a1a1a" height="200" width="200" x="0" y="0" /><rect fill="#1a1a1a" height="200" width="180" x="10" y="0" /><text alignment-baseline="middle" fill="#e1ed5e" style="dominant-baseline: central; font-size:9.0px; font-family:Arial;" text-anchor="middle" x="100.0" y="100.0">2023</text><line stroke="#e1ed5e" stroke-width="0.3" x1="100.0" x2="100.0" y1="15.0" y2="10.0" /><path d="M 100.0 14.0 a86.0,86.0 0 0,1 42.46469731375804,11.215312516191453" fill="none" id="id97" stroke="none" /><text fill="#e1ed5e" style="font-size:6.75px; font-family:Arial;" text-anchor="middle"><textPath startOffset="22.20632615414155" xlink:href="#id97">January</textPath></text><path d="M 100.0 79.0 l 0.0 -63.0 a84.0,84.0 0 0,0 1.4459219170901134,0.012445506434235476 l -1.084441437817585 62.990665870174325" fill="red" stroke="none" /><line stroke="#e1ed5e" stroke-width="0.3" x1="143.23703022742887" x2="145.7803849466894" y1="26.81831364943548" y2="22.513508569990506" /><path d="M 143.74570117128098 25.957352633546492 a86.0,86.0 0 0,1 28.547481713284135,27.462654790039103" fill="none" id="id98" stroke="none" /><text fill="#e1ed5e" style="font-size:6.75px; font-family:Arial;" text-anchor="middle"><textPath startOffset="19.985693538727396" xlink:href="#id98">February</textPath></text><path d="M 113.6212207817346 84.01681056812373 l 17.03321353646801 -19.986833995968603 a47.260310290652,47.260310290652 0 0,0 0.6146230389645337,0.532995042794045 l -17.37473037407931 19.69067395975489" fill="red" stroke="none" /><path d="M 114.16331599549186 84.49514656593476 l 17.498315186103543 -19.155740957129694 a46.944815396700704,46.944815396700704 0 0,0 0.5919341435120303,0.5501382750809833 l -17.82545721341042 18.85169809597407" fill="red" stroke="none" /><path d="M 115.68641384162765 86.03803664274999 l 23.67286865003687 -21.070445290413936 a52.69177140612726,52.69177140612726 0 0,0 0.5971938246263988,0.6826957769389312 l -24.032054338241117 20.659833957272056" fill="red" stroke="none" /><path d="M 115.9244219780498 86.31012108654704 l 19.003289503067492 -16.33671430039217 a46.060192458758834,46.060192458758834 0 0,0 0.5116835257794837,0.6056719012308176 l -19.28168364233409 16.007183449532246" fill="red" stroke="none" /><path d="M 116.38621287248628 86.86637796730983 l 20.389443197186388 -16.342228829364675 a47.13040062843676,47.13040062843676 0 0,0 0.5019296085962645,0.6373996311674542 l -20.667726886376617 15.988836804244182" fill="red" stroke="none" /><path d="M 116.60985879189232 87.15038557335679 l 20.97108840790961 -16.223521435367083 a47.51394344069128,47.51394344069128 0 0,0 0.494878219300469,0.6512017276265931 l -21.247242567434192 15.860134931859458" fill="red" stroke="none" /><path d="M 117.04232023915458 87.72973835380427 l 26.67799187476456 -19.20782709776634 a53.873330714846816,53.873330714846816 0 0,0 0.5353659166343043,0.757237122184954 l -27.00467041120275 18.745763475249596" fill="red" stroke="none" /><path d="M 117.45458315368197 88.32363383020206 l 27.688412298481158 -18.522358157215795 a54.31254909662215,54.31254909662215 0 0,0 0.5131329753837014,0.7815367255392817 l -28.003141909222784 18.043003367698837" fill="red" stroke="none" /><line stroke="#e1ed5e" stroke-width="0.3" x1="172.23445277983987" x2="176.4835382374775" y1="55.19839476539836" y2="52.563006222186495" /><path d="M 173.08426987136738 54.67131705675599 a86.0,86.0 0 0,1 12.851231095245387,41.99856678651699" fill="none" id="id99" stroke="none" /><text fill="#e1ed5e" style="font-size:6.75px; font-family:Arial;" text-anchor="middle"><textPath startOffset="22.20632615414155" xlink:href="#id99">March</textPath></text><path d="M 117.84615892207809 88.93136811851018 l 27.962603880557733 -17.34310280174126 a53.904261586802825,53.904261586802825 0 0,0 0.48227424558128634,0.7927320542609666 l -28.256993924425245 16.859202974273213" fill="red" stroke="none" /><path d="M 118.03404312379186 89.2402003453031 l 28.644803767719672 -17.09058515459319 a54.355852317360565,54.355852317360565 0 0,0 0.472482617926372,0.8076259515270345 l -28.93474606011637 16.59497979071226" fill="red" stroke="none" /><path d="M 118.3937258080291 89.86733742301442 l 29.275716969986615 -16.12729062356239 a54.42390023566379,54.42390023566379 0 0,0 0.4449591847336074,0.8244417917229396 l -29.548984253938688 15.620967848506993" fill="red" stroke="none" /><path d="M 118.73160827565052 90.50648371742162 l 29.719690349367742 -15.062474086204011 a54.31873527101335,54.31873527101335 0 0,0 0.4155124252534685,0.8376476943991223 l -29.974562787574616 14.548666803305938" fill="red" stroke="none" /><path d="M 119.196687751892 91.48605970444005 l 30.31621456340133 -13.445571658826648 a54.164080911233306,54.164080911233306 0 0,0 0.37066102951318786,0.855536760520788 l -30.5431663027572 12.921735753719258" fill="red" stroke="none" /><path d="M 119.34039704204932 91.81776055985345 l 30.423523233859996 -12.87111899363194 a54.034171249018065,54.034171249018065 0 0,0 0.3550258952115164,0.8597233656560924 l -30.64057081595771 12.345521057522545" fill="red" stroke="none" /><path d="M 119.85752413597 93.16781622104841 l 31.63476743735047 -10.884264496240228 a54.454831107619796,54.454831107619796 0 0,0 0.2973303953333755,0.8889800371197498 l -31.817435126455617 10.338111356198164" fill="red" stroke="none" /><line stroke="#e1ed5e" stroke-width="0.3" x1="184.98032266829074" x2="189.97916517819016" y1="98.17113171792111" y2="98.06355123074" /><path d="M 185.9800911702706 98.14961562048488 a86.0,86.0 0 0,1 -9.607161424134198,41.387399972396054" fill="none" id="id100" stroke="none" /><text fill="#e1ed5e" style="font-size:6.75px; font-family:Arial;" text-anchor="middle"><textPath startOffset="21.466115282336823" xlink:href="#id100">April</textPath></text><path d="M 120.32669344350535 105.2749913415812 l 25.813543431348656 6.698886785218947 a47.66859780047133,47.66859780047133 0 0,0 -0.21294680275011155,0.7924542711882219 l -25.694408552256768 -7.142231989582717" fill="red" stroke="none" /><line stroke="#e1ed5e" stroke-width="0.3" x1="174.80103733775053" x2="179.2010983576182" y1="140.37084112569926" y2="142.7455964860345" /><path d="M 175.68104954172406 140.8457921977663 a86.0,86.0 0 0,1 -30.038265399797805,32.042727171017184" fill="none" id="id101" stroke="none" /><text fill="#e1ed5e" style="font-size:6.75px; font-family:Arial;" text-anchor="middle"><textPath startOffset="22.206326154141568" xlink:href="#id101">May</textPath></text><path d="M 114.55890576462653 115.13401014063108 l 11.51531676493192 11.970193605929232 a37.60987824037706,37.60987824037706 0 0,0 -0.4704174898415219,0.44480909862442436 l -11.30756344069959 -12.166637341299579" fill="red" stroke="none" /><line stroke="#e1ed5e" stroke-width="0.3" x1="143.8653032363475" x2="146.44561519142675" y1="172.8068346515853" y2="177.08958963109032" /><path d="M 144.38136562736335 173.6633856474863 a86.0,86.0 0 0,1 -40.68145358897372,12.25698825130547" fill="none" id="id102" stroke="none" /><text fill="#e1ed5e" style="font-size:6.75px; font-family:Arial;" text-anchor="middle"><textPath startOffset="21.466115282336833" xlink:href="#id102">June</textPath></text><path d="M 108.59647513512805 119.15986991738527 l 10.608003046264159 23.643174121345325 a46.9138845247447,46.9138845247447 0 0,0 -0.7396293922684057,0.32423178986624757 l -10.199452979338 -23.822270464506026" fill="red" stroke="none" /><line stroke="#e1ed5e" stroke-width="0.3" x1="102.19456741930631" x2="102.32365962044197" y1="184.97166512339345" y2="189.96999836594603" /><path d="M 102.22038585953345 185.97133177190398 a86.0,86.0 0 0,1 -42.740103519485714,-10.115201625700543" fill="none" id="id103" stroke="none" /><text fill="#e1ed5e" style="font-size:6.75px; font-family:Arial;" text-anchor="middle"><textPath startOffset="22.20632615414155" xlink:href="#id103">July</textPath></text><line stroke="#e1ed5e" stroke-width="0.3" x1="58.666819895761336" x2="56.23545636021788" y1="174.27360380694188" y2="178.64263932499728" /><path d="M 58.180547188652646 175.14741091055294 a86.0,86.0 0 0,1 -31.652253787137756,-30.449443065178592" fill="none" id="id104" stroke="none" /><text fill="#e1ed5e" style="font-size:6.75px; font-family:Arial;" text-anchor="middle"><textPath startOffset="22.20632615414155" xlink:href="#id104">August</textPath></text><path d="M 89.4739219176387 118.17145234162733 l -13.258889399109444 22.88917818523128 a47.45208169677926,47.45208169677926 0 0,0 -0.7032672576487501,-0.4155026919065432 l 13.650924527786577 -22.657556921030988" fill="red" stroke="none" /><path d="M 88.24862548938628 117.40417183066458 l -15.010003891797243 22.230309031155226 a47.82325216025137,47.82325216025137 0 0,0 -0.6782774481368743,-0.46652541369251516 l 15.390438224557009 -21.968642828097607" fill="red" stroke="none" /><path d="M 87.36589467227662 116.77436683061367 l -15.850939097832041 21.045373624779145 a47.34691673212883,47.34691673212883 0 0,0 -0.6467842954694669,-0.495926617468758 l 16.210852121794996 -20.769407665483023" fill="red" stroke="none" /><path d="M 86.24171649860922 115.8653595955263 l -20.60905487173177 23.76532409954376 a52.45669677926159,52.45669677926159 0 0,0 -0.6770851811085346,-0.5974489489841659 l 21.015082405746895 -23.407052008787307" fill="red" stroke="none" /><line stroke="#e1ed5e" stroke-width="0.3" x1="26.63291911575756" x2="22.317208475507996" y1="142.92168965132927" y2="145.44649492493687" /><path d="M 25.769776987707644 143.4266507060508 a86.0,86.0 0 0,1 -11.730757126820373,-40.83630448921669" fill="none" id="id105" stroke="none" /><text fill="#e1ed5e" style="font-size:6.75px; font-family:Arial;" text-anchor="middle"><textPath startOffset="21.46611528233685" xlink:href="#id105">September</textPath></text><line stroke="#e1ed5e" stroke-width="0.3" x1="15.007084014347285" x2="10.007500721073583" y1="101.09737516637583" y2="101.16192664675087" /><path d="M 14.007167355692545 101.11028546245083 a86.0,86.0 0 0,1 10.666146001902534,-42.60595125391555" fill="none" id="id106" stroke="none" /><text fill="#e1ed5e" style="font-size:6.75px; font-family:Arial;" text-anchor="middle"><textPath startOffset="22.20632615414155" xlink:href="#id106">October</textPath></text><line stroke="#e1ed5e" stroke-width="0.3" x1="26.266209847984243" x2="21.928928074336255" y1="57.711370442889674" y2="55.22380399835377" /><path d="M 25.398753493254645 57.213857153982495 a86.0,86.0 0 0,1 29.58750427330803,-30.492523968695096" fill="none" id="id107" stroke="none" /><text fill="#e1ed5e" style="font-size:6.75px; font-family:Arial;" text-anchor="middle"><textPath startOffset="21.46611528233685" xlink:href="#id107">November</textPath></text><line stroke="#e1ed5e" stroke-width="0.3" x1="56.762969772571076" x2="54.21961505331055" y1="26.818313649435495" y2="22.513508569990535" /><path d="M 56.25429882871897 25.957352633546506 a86.0,86.0 0 0,1 42.265352541879196,-11.944610805530505" fill="none" id="id108" stroke="none" /><text fill="#e1ed5e" style="font-size:6.75px; font-family:Arial;" text-anchor="middle"><textPath startOffset="22.20632615414155" xlink:href="#id108">December</textPath></text><path d="M 97.11714578562143 79.19881850522333 l -4.293709026285755 -30.981178408559764 a52.27729772191673,52.27729772191673 0 0,0 0.8924114888912794,-0.11586062363931719 l 3.7597828088866176 31.05049735536322" fill="red" stroke="none" /><path d="M 97.83486435360386 79.11191278185805 l -3.5487474675613155 -34.23644460381238 a55.41987431264729,55.41987431264729 0 0,0 0.9497247726161437,-0.09018781084151685 l 2.9588975678549354 34.29245795916908" fill="red" stroke="none" /><path d="M 99.27714615592234 79.0124445844662 l -1.077892623346757 -31.295857869235693 a52.314414768263944,52.314414768263944 0 0,0 0.9002398139342026,-0.023250538427762753 l 0.5390261742176754 31.309775199805816" fill="red" stroke="none" /></svg>