<?xml version="1.0" encoding="utf-8" ?>
<svg baseProfile="full" height="200mm" version="1.1" viewBox="0,0,200,200" width="200mm" xmlns="http://www.w3.org/2000/svg" xmlns:ev="http://www.w3.org/2001/xml-events" xmlns:xlink="http://www.w3.org/1999/xlink"><defs /><rect fill="#1a1a1a" height="200" width="200" x="0" y="0" /><rect fill="#1a1a1a" height="200" width="180" x="10" y="0" /><text alignment-baseline="middle" fill="#e1ed5e" style="dominant-baseline: central; font-size:9.0px; font-family:Arial;" text-anchor="middle" x="100.0" y="100.0">2025</text><line stroke="#e1ed5e" stroke-width="0.3" x1="100.0" x2="100.0" y1="15.0" y2="10.0" /><path d="M 100.0 14.0 a86.0,86.0 0 0,1 42.46469731375804,11.215312516191453" fill="none" id="id13" stroke="none" /><text fill="#e1ed5e" style="font-size:6.75px; font-family:Arial;" text-anchor="middle"><textPath startOffset="22.20632615414155" xlink:href="#id13">January</textPath></text><path d="M 103.95276090670814 79.375362276772 l 7.939183831116912 -41.42491645700404 a63.178837624738215,63.178837624738215 0 0,0 1.0663191554775924,0.21389359117901482 l -8.65106939606163 41.282118909747815" fill="red" stroke="none" /><line stroke="#e1ed5e" stroke-width="0.3" x1="143.23703022742887" x2="145.7803849466894" y1="26.81831364943548" y2="22.513508569990506" /><path d="M 143.74570117128098 25.957352633546492 a86.0,86.0 0 0,1 28.547481713284135,27.462654790039103" fill="none" id="id14" stroke="none" /><text fill="#e1ed5e" style="font-size:6.75px; font-family:Arial;" text-anchor="middle"><textPath startOffset="19.985693538727396" xlink:href="#id14">February</textPath></text><line stroke="#e1ed5e" stroke-width="0.3" x1="172.23445277983987" x2="176.4835382374775" y1="55.19839476539836" y2="52.563006222186495" /><path d="M 173.08426987136738 54.67131705675599 a86.0,86.0 0 0,1 12.851231095245387,41.99856678651699" fill="none" id="id15" stroke="none" /><text fill="#e1ed5e" style="font-size:6.75px; font-family:Arial;" text-anchor="middle"><textPath startOffset="22.20632615414155" xlink:href="#id15">March</textPath></text><path d="M 120.6074358757038 95.95851677861258 l 17.94977744708278 -3.5202693249941266 a39.29171414931625,39.29171414931625 0 0,0 0.12445047252297663,0.664819400539356 l -18.00771364351562 3.210771846992208" fill="red" stroke="none" /><path d="M 120.78858239683441 97.02765380044208 l 18.514265236174744 -2.6471649130212462 a39.70255328323273,39.70255328323273 0 0,0 0.0909075052132034,0.6773665054563156 l -18.557088740445785 2.328080065500266" fill="red" stroke="none" /><path d="M 120.87857604477298 97.74499172005257 l 20.82385930452472 -2.2490985520978395 a41.9449650425034,41.9449650425034 0 0,0 0.07135212926079336,0.7185062042635982 l -20.859488559467742 1.8903168171298061" fill="red" stroke="none" /><line stroke="#e1ed5e" stroke-width="0.3" x1="184.98032266829074" x2="189.97916517819016" y1="98.17113171792111" y2="98.06355123074" /><path d="M 185.9800911702706 98.14961562048488 a86.0,86.0 0 0,1 -9.607161424134198,41.387399972396054" fill="none" id="id16" stroke="none" /><text fill="#e1ed5e" style="font-size:6.75px; font-family:Arial;" text-anchor="middle"><textPath startOffset="21.466115282336823" xlink:href="#id16">April</textPath></text><path d="M 120.99513854157772 99.54816195383933 l 18.89159241917631 -0.40656746277906936 a39.89596679807811,39.89596679807811 0 0,0 0.00886639014659463,0.6867116879585169 l -18.89579181644062 0.08131951676008974" fill="red" stroke="none" /><path d="M 120.89721153311464 102.0752229133903 l 15.791795353721648 1.5682233732324753 a36.869471479610695,36.869471479610695 0 0,0 -0.06815181084338545,0.6310011266636126 l -15.76246124137721 -1.8398208217808794" fill="red" stroke="none" /><path d="M 120.81339534386255 102.79330883721812 l 20.192865385353905 2.710029209448399 a41.373906615744744,41.373906615744744 0 0,0 -0.10080643786405218,0.7050399916335217 l -20.143224896473253 -3.0572146730623304" fill="red" stroke="none" /><path d="M 120.76222939487914 103.15116336523771 l 22.279160393573772 3.3813938139899427 a43.53430300603672,43.53430300603672 0 0,0 -0.11882427968619584,0.7399189030325738 l -22.21765435952629 -3.7643919467157216" fill="red" stroke="none" /><path d="M 120.64145759157962 103.86396538481128 l 36.44949541271067 6.823141628622438 a58.082623660219305,58.082623660219305 0 0,0 -0.1924196200471778,0.981143497111495 l -36.32664585968783 -7.449548852801878" fill="red" stroke="none" /><path d="M 120.41448212921028 104.9243191809786 l 21.883741266199202 5.278729393508566 a43.51139968584453,43.51139968584453 0 0,0 -0.1818956472191711,0.7265826923180271 l -21.78963430468497 -5.654639925223989" fill="red" stroke="none" /><path d="M 120.13307415673323 105.97154293290107 l 33.88443923745541 10.050247770833954 a56.343495903659,56.343495903659 0 0,0 -0.28379206714369065,0.927448895524694 l -33.70642039780558 -10.632023638910704" fill="red" stroke="none" /><path d="M 119.9155931802556 106.66101706037122 l 21.37881654665683 7.15041025687391 a43.54289608229642,43.54289608229642 0 0,0 -0.24385922983638733,0.7087690698797562 l -21.25256648587721 -7.517352029842966" fill="red" stroke="none" /><path d="M 119.67450827220406 107.3425965602758 l 21.20273320757086 7.912935549108617 a43.63118301096465,43.63118301096465 0 0,0 -0.2686553119723968,0.7013742445567512 l -21.063383616004952 -8.276733360498513" fill="red" stroke="none" /><path d="M 119.12269723197855 108.67885076344098 l 20.53956065079557 9.321895309663685 a43.55595894419121,43.55595894419121 0 0,0 -0.315729644723242,0.6800535661060682 l -20.376056389232495 -9.674068943048583" fill="red" stroke="none" /><path d="M 118.81262510543309 109.33194174019688 l 19.88341490074874 9.863103549347965 a43.19529228779106,43.19529228779106 0 0,0 -0.3361443868877014,0.6632447653556818 l -19.71069184407477 -10.203902526406342" fill="red" stroke="none" /><line stroke="#e1ed5e" stroke-width="0.3" x1="174.80103733775053" x2="179.2010983576182" y1="140.37084112569926" y2="142.7455964860345" /><path d="M 175.68104954172406 140.8457921977663 a86.0,86.0 0 0,1 -30.038265399797805,32.042727171017184" fill="none" id="id17" stroke="none" /><text fill="#e1ed5e" style="font-size:6.75px; font-family:Arial;" text-anchor="middle"><textPath startOffset="22.206326154141568" xlink:href="#id17">May</textPath></text><path d="M 116.0416608686014 113.55231037782055 l 17.22571409860027 14.552621817405592 a43.55003387951214,43.55003387951214 0 0,0 -0.4887091281977806,0.568479124698362 l -16.972662460831714 -14.846978041265483" fill="red" stroke="none" /><path d="M 115.56566222782051 114.09645910891815 l 16.507396914966847 14.949305863171983 a43.270516354564506,43.270516354564506 0 0,0 -0.5047270670919254,0.5477815465218712 l -16.2476234398792 -15.231238664495189" fill="red" stroke="none" /><path d="M 114.81725581225074 114.88116024355365 l 15.891033543034993 15.959569004273611 a43.521829185659726,43.521829185659726 0 0,0 -0.5354222210860828,0.5240233347721649 l -15.613961369573117 -16.230742441968346" fill="red" stroke="none" /><path d="M 114.29624159901734 115.38237550388516 l 15.39375755490118 16.563273464931864 a43.612160434889745,43.612160434889745 0 0,0 -0.5542907270854992,0.5063314370863121 l -15.106367278348817 -16.82579766860476" fill="red" stroke="none" /><path d="M 113.75828350139079 115.86535959552629 l 17.496378001325652 20.175941903088887 a47.70565248860417,47.70565248860417 0 0,0 -0.625022474382529,0.5326577122417933 l -17.146490050366076 -20.474124005553627" fill="red" stroke="none" /><path d="M 112.92097659922987 116.55440617244103 l 13.914193245751163 17.826919256686004 a43.61423940495257,43.61423940495257 0 0,0 -0.5957939197089482,0.45682937167675997 l -13.60527059754872 -18.063787970190138" fill="red" stroke="none" /><path d="M 112.34349029814194 116.9893568818739 l 13.268365450361799 18.262338320082335 a43.57349159172108,43.57349159172108 0 0,0 -0.610594657411901,0.43564307576973826 l -12.952043465101013 -18.48802565769629" fill="red" stroke="none" /><line stroke="#e1ed5e" stroke-width="0.3" x1="143.8653032363475" x2="146.44561519142675" y1="172.8068346515853" y2="177.08958963109032" /><path d="M 144.38136562736335 173.6633856474863 a86.0,86.0 0 0,1 -40.68145358897372,12.25698825130547" fill="none" id="id18" stroke="none" /><text fill="#e1ed5e" style="font-size:6.75px; font-family:Arial;" text-anchor="middle"><textPath startOffset="21.466115282336833" xlink:href="#id18">June</textPath></text><path d="M 108.59647513512805 119.15986991738527 l 8.850803347559637 19.726718002200656 a42.6212886534434,42.6212886534434 0 0,0 -0.6719536901237703,0.29456475085159545 l -8.509928982778113 -19.876147306346706" fill="red" stroke="none" /><path d="M 107.93186726928326 119.44442032107085 l 8.512602863205556 20.868053193416195 a43.537525409634114,43.537525409634114 0 0,0 -0.696349389827991,0.27709179322612176 l -8.152132397335698 -21.011491831048385" fill="red" stroke="none" /><path d="M 107.2578585660854 119.70592522655815 l 7.819651550646978 21.231258139258646 a43.62550049279291,43.62550049279291 0 0,0 -0.7069002131159663,0.25346926611848064 l -7.453031776901277 -21.362714946417086" fill="red" stroke="none" /><path d="M 105.18746579009965 120.34920634021253 l 5.573867808909582 21.864970439523695 a43.56424017494149,43.56424017494149 0 0,0 -0.7282420674319546,0.1789841821333017 l -5.196672456734416 -21.957675879971024" fill="red" stroke="none" /><path d="M 104.48393922423573 120.51570834832081 l 4.819520474498131 22.051118779473967 a43.571655168165584,43.571655168165584 0 0,0 -0.7340963637215121,0.15383703050309383 l -4.4392326493472405 -22.130811790703603" fill="red" stroke="none" /><path d="M 103.7750983002368 120.6578951692458 l 4.061335533143579 22.22422756131943 a43.59227162128866,43.59227162128866 0 0,0 -0.7393063035138917,0.12853787734707603 l -3.678180258157637 -22.290844017187514" fill="red" stroke="none" /><path d="M 103.06178313531738 120.77559828337769 l 3.294551387049587 22.35503728261016 a43.59649886041642,43.59649886041642 0 0,0 -0.7433647507748118,0.1030235809023534 l -2.909258045087945 -22.408435429005113" fill="red" stroke="none" /><path d="M 102.34483914955558 120.86867818915974 l 2.525656120244168 22.47791913566725 a43.61936753110756,43.61936753110756 0 0,0 -0.7468620343269633,0.07741530359260786 l -2.138361489311602 -22.518063807715617" fill="red" stroke="none" /><path d="M 100.90346689309514 120.98055641714683 l 0.9732489934553964 22.6010555242028 a43.62200089318714,43.62200089318714 0 0,0 -0.7504638639018407,0.025847492865287838 l -0.5840647778789034 -22.614459815494182" fill="red" stroke="none" /><line stroke="#e1ed5e" stroke-width="0.3" x1="102.19456741930631" x2="102.32365962044197" y1="184.97166512339345" y2="189.96999836594603" /><path d="M 102.22038585953345 185.97133177190398 a86.0,86.0 0 0,1 -42.740103519485714,-10.115201625700543" fill="none" id="id19" stroke="none" /><text fill="#e1ed5e" style="font-size:6.75px; font-family:Arial;" text-anchor="middle"><textPath startOffset="22.20632615414155" xlink:href="#id19">July</textPath></text><path d="M 100.18074693466247 120.99922214144158 l 0.31620921741747904 36.737262582744414 a57.73862341382285,57.73862341382285 0 0,0 -0.9939123041598437,0.0 l 0.3162092174174537 -36.737262582744414" fill="red" stroke="none" /><path d="M 99.45781275523022 120.99299961872073 l -0.5824017237816224 22.550067865357786 a43.55758747074043,43.55758747074043 0 0,0 -0.7493557087300037,-0.025809325760546425 l 0.9704777841862691 -22.536701741171147" fill="red" stroke="none" /><path d="M 98.37488393609728 120.93702456842531 l -2.0113095846061184 25.91251118795687 a46.99045213748923,46.99045213748923 0 0,0 -0.8058989690100411,-0.06953635409219795 l 2.457052871357701 -25.87405058158601" fill="red" stroke="none" /><path d="M 95.86986931433489 120.58985236759428 l -4.428247485935857 22.076047689979333 a43.515800172477526,43.515800172477526 0 0,0 -0.733155317321672,-0.1536398250803884 l 4.807594264686916 -21.9965518841724" fill="red" stroke="none" /><path d="M 95.16358092515715 120.4354850818985 l -5.191724871266066 21.93677067976713 a43.54275748429223,43.54275748429223 0 0,0 -0.727882951813513,-0.17889592025152803 l 5.56856110782279 -21.84415350120157" fill="red" stroke="none" /><path d="M 92.7421414339146 119.70592522655815 l -7.783941223372975 21.134300471556827 a43.5221756806702,43.5221756806702 0 0,0 -0.7007687454731999,-0.2649707771400103 l 8.146580189606457 -20.997181444310183" fill="red" stroke="none" /><path d="M 92.06813273071674 119.44442032107085 l -8.506805148312159 20.8538404990453 a43.5221756806702,43.5221756806702 0 0,0 -0.6912327492509035,-0.2889353452475146 l 8.864509357060525 -20.704320110777815" fill="red" stroke="none" /><line stroke="#e1ed5e" stroke-width="0.3" x1="58.666819895761336" x2="56.23545636021788" y1="174.27360380694188" y2="178.64263932499728" /><path d="M 58.180547188652646 175.14741091055294 a86.0,86.0 0 0,1 -31.652253787137756,-30.449443065178592" fill="none" id="id20" stroke="none" /><text fill="#e1ed5e" style="font-size:6.75px; font-family:Arial;" text-anchor="middle"><textPath startOffset="22.20632615414155" xlink:href="#id20">August</textPath></text><path d="M 88.24862548938628 117.40417183066458 l -12.733077251535624 18.85810585125151 a43.75432733768635,43.75432733768635 0 0,0 -0.6205678650231591,-0.4268322362028286 l 13.055802001181673 -18.63613282568358" fill="red" stroke="none" /><path d="M 87.65650970185807 116.9893568818739 l -13.943004627165472 19.19089948587648 a44.72125631390909,44.72125631390909 0 0,0 -0.6188890107897932,-0.4578392946356832 l 14.27127860837383 -18.94805024250103" fill="red" stroke="none" /><path d="M 86.79598089348748 116.32954008644616 l -16.44259155842386 20.334714439023596 a47.15070607983246,47.15070607983246 0 0,0 -0.6267224060519426,-0.5157498731365677 l 16.79018409302049 -20.048669447029848" fill="red" stroke="none" /><path d="M 86.24171649860922 115.8653595955263 l -14.795885969623905 17.06187050286878 a43.58374784403105,43.58374784403105 0 0,0 -0.5625575305769351,-0.4963916132916251 l 15.087385853107428 -16.804655747804862" fill="red" stroke="none" /><path d="M 85.70375840098266 115.38237550388516 l -25.09885158052987 27.005696361100217 a57.868143248737226,57.868143248737226 0 0,0 -0.7238041696086782,-0.6844020199433873 l 25.559991584529367 -26.5696597044109" fill="red" stroke="none" /><path d="M 84.9287848128048 114.62390073753433 l -16.208257193438882 15.727195277966743 a43.58433688554886,43.58433688554886 0 0,0 -0.5178098340684234,-0.5429215408443058 l 16.476573578886264 -15.445866620539936" fill="red" stroke="none" /><path d="M 84.43433777217949 114.09645910891817 l -16.753105916137592 15.171823019011734 a43.602008131082926,43.602008131082926 0 0,0 -0.4990169900889037,-0.560650878407679 l 17.011781755874836 -14.881197970863191" fill="red" stroke="none" /><path d="M 83.72743513129214 113.27417163493432 l -28.491719861083087 23.241817295672327 a57.76901102624124,57.76901102624124 0 0,0 -0.6219304110161133,-0.7759538139149178 l 28.887568184154063 -22.74793564817915" fill="red" stroke="none" /><path d="M 83.28015986056508 112.70617746262583 l -17.999166201160715 13.678396325802092 a43.606824411728475,43.606824411728475 0 0,0 -0.4490230702020004,-0.6015397808369922 l 18.231950538057802 -13.366543665455792" fill="red" stroke="none" /><path d="M 82.85270091963577 112.12312394758628 l -18.459417232440938 13.050790218347213 a43.60692836023162,43.60692836023162 0 0,0 -0.42805203112495066,-0.6166408764645595 l 18.681330170728025 -12.731108079695641" fill="red" stroke="none" /><path d="M 82.24976979558568 111.22182372390057 l -36.14113331720597 22.848685487290954 a63.75796938524087,63.75796938524087 0 0,0 -0.5784832224217288,-0.9326991476117699 l 36.52908117929565 -22.22319000831392" fill="red" stroke="none" /><line stroke="#e1ed5e" stroke-width="0.3" x1="26.63291911575756" x2="22.317208475507996" y1="142.92168965132927" y2="145.44649492493687" /><path d="M 25.769776987707644 143.4266507060508 a86.0,86.0 0 0,1 -11.730757126820373,-40.83630448921669" fill="none" id="id21" stroke="none" /><text fill="#e1ed5e" style="font-size:6.75px; font-family:Arial;" text-anchor="middle"><textPath startOffset="21.46611528233685" xlink:href="#id21">September</textPath></text><path d="M 81.87401531095188 110.60418214915194 l -21.232042231206492 12.421308253351695 a45.59854703092276,45.59854703092276 0 0,0 -0.390514650564924,-0.6808952098378095 l 21.442708877923792 -12.05399319765558" fill="red" stroke="none" /><path d="M 81.51974371655577 109.97397251340807 l -21.21214491451419 11.448399150033989 a45.10437584698781,45.10437584698781 0 0,0 -0.36287005559193425,-0.6864133940290139 l 21.40606747833101 -11.081570740918847" fill="red" stroke="none" /><path d="M 81.02952815118164 109.00673069616217 l -48.68261571790428 23.11335283857089 a74.89085407170138,74.89085407170138 0 0,0 -0.5428709026789224,-1.1692956283076488 l 49.073261237423026 -22.271937142984413" fill="red" stroke="none" /><path d="M 80.73074385275274 108.34839909993369 l -22.297669997783977 9.66045843792008 a45.30042272391279,45.30042272391279 0 0,0 -0.30383429010651686,-0.7181745106134373 l 22.4606552690828 -9.275209401640485" fill="red" stroke="none" /><path d="M 80.45479744820244 107.68017299344265 l -19.91215453655848 7.8243646290003905 a42.39426512258224,42.39426512258224 0 0,0 -0.26103909489425087,-0.6814907050862272 l 20.04388791104624 -7.480450357081005" fill="red" stroke="none" /><path d="M 80.0844068197444 106.66101706037122 l -59.746779540766816 19.983051181113673 a84.0,84.0 0 0,0 -0.44683099593500275,-1.3752044000887864 l 60.081902787718064 -18.951647881047084" fill="red" stroke="none" /><path d="M 79.86692584326677 105.97154293290107 l -23.044716673122355 6.835146680471985 a45.03701721695208,45.03701721695208 0 0,0 -0.21404885385424377,-0.7451321408381336 l 23.158958163862707 -6.437457064129255" fill="red" stroke="none" /><path d="M 79.67330655649465 105.27499134158121 l -29.544017968742082 7.666984274337477 a51.522641523962065,51.522641523962065 0 0,0 -0.21538595159216536,-0.8603598106267348 l 29.671615234629307 -7.157296624313351" fill="red" stroke="none" /><path d="M 79.35854240842038 103.8639653848113 l -51.65710355222053 9.669920795071038 a73.55438816681041,73.55438816681041 0 0,0 -0.22225179098801906,-1.246506073802791 l 51.81590178554774 -8.779295970535033" fill="red" stroke="none" /><path d="M 79.23777060512086 103.15116336523772 l -26.593030696827665 4.036126492425421 a47.897576074904535,47.897576074904535 0 0,0 -0.11670118732748254,-0.8162078323603723 l 26.658565935171747 -3.577773188084648" fill="red" stroke="none" /><path d="M 79.1416061653843 102.43462659150553 l -26.15281413120086 3.0526001777210374 a47.33036374276212,47.33036374276212 0 0,0 -0.08748837093390882,-0.810033657889517 l 26.20148480363582 -2.6019701979467382" fill="red" stroke="none" /><path d="M 79.04373962182676 101.35467743843564 l -27.709443776760892 1.7912240847644503 a48.767278551188866,48.767278551188866 0 0,0 -0.04694117413351126,-0.8381661974510584 l 27.736171301781937 -1.3139861709779543" fill="red" stroke="none" /><line stroke="#e1ed5e" stroke-width="0.3" x1="15.007084014347285" x2="10.007500721073583" y1="101.09737516637583" y2="101.16192664675087" /><path d="M 14.007167355692545 101.11028546245083 a86.0,86.0 0 0,1 10.666146001902534,-42.60595125391555" fill="none" id="id22" stroke="none" /><text fill="#e1ed5e" style="font-size:6.75px; font-family:Arial;" text-anchor="middle"><textPath startOffset="22.20632615414155" xlink:href="#id22">October</textPath></text><line stroke="#e1ed5e" stroke-width="0.3" x1="26.266209847984243" x2="21.928928074336255" y1="57.711370442889674" y2="55.22380399835377" /><path d="M 25.398753493254645 57.213857153982495 a86.0,86.0 0 0,1 29.58750427330803,-30.492523968695096" fill="none" id="id23" stroke="none" /><text fill="#e1ed5e" style="font-size:6.75px; font-family:Arial;" text-anchor="middle"><textPath startOffset="21.46611528233685" xlink:href="#id23">November</textPath></text><line stroke="#e1ed5e" stroke-width="0.3" x1="56.762969772571076" x2="54.21961505331055" y1="26.818313649435495" y2="22.513508569990535" /><path d="M 56.25429882871897 25.957352633546506 a86.0,86.0 0 0,1 42.265352541879196,-11.944610805530505" fill="none" id="id24" stroke="none" /><text fill="#e1ed5e" style="font-size:6.75px; font-family:Arial;" text-anchor="middle"><textPath startOffset="22.20632615414155" xlink:href="#id24">December</textPath></text></svg>