<?xml version="1.0" encoding="utf-8" ?>
<svg baseProfile="full" height="200mm" version="1.1" viewBox="0,0,200,200" width="200mm" xmlns="http://www.w3.org/2000/svg" xmlns:ev="http://www.w3.org/2001/xml-events" xmlns:xlink="http://www.w3.org/1999/xlink"><defs /><rect fill="#1a1a1a" height="200" width="200" x="0" y="0" /><text alignment-baseline="middle" fill="#e1ed5e" style="dominant-baseline: central; font-size:9.0px; font-family:Arial;" text-anchor="middle" x="100.0" y="100.0">2025</text><line stroke="#e1ed5e" stroke-width="0.3" x1="100.0" x2="100.0" y1="15.0" y2="10.0" /><path d="M 100.0 14.0 a86.0,86.0 0 0,1 42.46469731375804,11.215312516191453" fill="none" id="id13" stroke="none" /><text fill="#e1ed5e" style="font-size:6.75px; font-family:Arial;" text-anchor="middle"><textPath startOffset="22.20632615414155" xlink:href="#id13">January</textPath></text><path d="M 103.95276090670814 79.375362276772 l 11.858282720124386 -61.87391316968404 a84.0,84.0 0 0,0 1.4177343621314986,0.2843841756911667 l -12.921583491723009 61.66062503791566" fill="red" stroke="none" /><line stroke="#e1ed5e" stroke-width="0.3" x1="143.23703022742887" x2="145.7803849466894" y1="26.81831364943548" y2="22.513508569990506" /><path d="M 143.74570117128098 25.957352633546492 a86.0,86.0 0 0,1 28.547481713284135,27.462654790039103" fill="none" id="id14" stroke="none" /><text fill="#e1ed5e" style="font-size:6.75px; font-family:Arial;" text-anchor="middle"><textPath startOffset="19.985693538727396" xlink:href="#id14">February</textPath></text><line stroke="#e1ed5e" stroke-width="0.3" x1="172.23445277983987" x2="176.4835382374775" y1="55.19839476539836" y2="52.563006222186495" /><path d="M 173.08426987136738 54.67131705675599 a86.0,86.0 0 0,1 12.851231095245387,41.99856678651699" fill="none" id="id15" stroke="none" /><text fill="#e1ed5e" style="font-size:6.75px; font-family:Arial;" text-anchor="middle"><textPath startOffset="22.20632615414155" xlink:href="#id15">March</textPath></text><path d="M 120.6074358757038 95.95851677861258 l 26.810505998936566 -5.258015155556493 a48.3212363427257,48.3212363427257 0 0,0 0.1530500978627142,0.8175997426991989 l -26.89704182070914 4.795737335394732" fill="red" stroke="none" /><path d="M 120.78858239683441 97.02765380044208 l 27.65364755322007 -3.9539114615744113 a48.93488211615871,48.93488211615871 0 0,0 0.11204690084657383,0.8348795569260737 l -27.71761045312448 3.477313562583673" fill="red" stroke="none" /><path d="M 120.87857604477298 97.74499172005257 l 31.10334969059498 -3.359343613088562 a52.28423806785509,52.28423806785509 0 0,0 0.08894015549040107,0.8956152281658167 l -31.156566971767607 2.8234528542183104" fill="red" stroke="none" /><line stroke="#e1ed5e" stroke-width="0.3" x1="184.98032266829074" x2="189.97916517819016" y1="98.17113171792111" y2="98.06355123074" /><path d="M 185.9800911702706 98.14961562048488 a86.0,86.0 0 0,1 -9.607161424134198,41.387399972396054" fill="none" id="id16" stroke="none" /><text fill="#e1ed5e" style="font-size:6.75px; font-family:Arial;" text-anchor="middle"><textPath startOffset="21.466115282336823" xlink:href="#id16">April</textPath></text><path d="M 120.99513854157772 99.54816195383933 l 28.21723853551771 -0.6072654344570819 a49.22377228292122,49.22377228292122 0 0,0 0.010939380708742088,0.8472670915125896 l -28.22351092334417 0.12146208488402956" fill="red" stroke="none" /><path d="M 120.89721153311464 102.0752229133903 l 23.587257575371336 2.3423611952667973 a44.70327774583094,44.70327774583094 0 0,0 -0.08263230273582868,0.7650724974122567 l -23.543442971134457 -2.748030014563845" fill="red" stroke="none" /><path d="M 120.81339534386255 102.79330883721812 l 30.16087191865073 4.047808090735852 a51.43128234617596,51.43128234617596 0 0,0 -0.12531096993691482,0.8764246318777669 l -30.086726897697215 -4.566378194594028" fill="red" stroke="none" /><path d="M 120.76222939487914 103.15116336523771 l 33.27704564271664 5.050585134105827 a54.65813686026452,54.65813686026452 0 0,0 -0.1491861197481408,0.9289821100809448 l -33.18517776860721 -5.622646473879977" fill="red" stroke="none" /><path d="M 120.64145759157962 103.86396538481128 l 54.44242516664242 10.191317419119644 a76.38809085681426,76.38809085681426 0 0,0 -0.2530630762271251,1.29036317366388 l -54.25893215743963 -11.126944319851468" fill="red" stroke="none" /><path d="M 120.41448212921028 104.9243191809786 l 32.68643180820957 7.884521492740016 a54.623927544565845,54.623927544565845 0 0,0 -0.228350609865679,0.9121471758406191 l -32.545869884048834 -8.445996507978032" fill="red" stroke="none" /><path d="M 120.13307415673323 105.97154293290107 l 50.61115460203344 15.011452311601458 a73.79046003450259,73.79046003450259 0 0,0 -0.3716692912431698,1.2146367484239498 l -50.345258538284135 -15.880416032577465" fill="red" stroke="none" /><path d="M 119.9155931802556 106.66101706037122 l 31.932256038498153 10.680138940548913 a54.67097182288671,54.67097182288671 0 0,0 -0.3061813127436071,0.8899062151284948 l -31.743683894811316 -11.228217858766708" fill="red" stroke="none" /><path d="M 119.67450827220406 107.3425965602758 l 31.669250915855567 11.81907723558176 a54.80284071305348,54.80284071305348 0 0,0 -0.33744384755827034,0.8809594045392362 l -31.46111278870379 -12.362460206954141" fill="red" stroke="none" /><path d="M 119.12269723197855 108.67885076344098 l 30.67870984289961 13.923555924745735 a54.69048303622772,54.69048303622772 0 0,0 -0.3964418921621175,0.8539005665907905 l -30.434493333897663 -14.449576558615357" fill="red" stroke="none" /><path d="M 118.81262510543309 109.33194174019688 l 29.69866428970718 14.731926212316486 a54.151776883266244,54.151776883266244 0 0,0 -0.42140740055716835,0.8314767802297428 l -29.440678219363747 -15.240957204248923" fill="red" stroke="none" /><line stroke="#e1ed5e" stroke-width="0.3" x1="174.80103733775053" x2="179.2010983576182" y1="140.37084112569926" y2="142.7455964860345" /><path d="M 175.68104954172406 140.8457921977663 a86.0,86.0 0 0,1 -30.038265399797805,32.042727171017184" fill="none" id="id17" stroke="none" /><text fill="#e1ed5e" style="font-size:6.75px; font-family:Arial;" text-anchor="middle"><textPath startOffset="22.206326154141568" xlink:href="#id17">May</textPath></text><path d="M 116.0416608686014 113.55231037782055 l 25.729016002454443 21.73637838608509 a54.681633122484186,54.681633122484186 0 0,0 -0.6136255444864764,0.713785137815259 l -25.351047948397188 -22.176040623061876" fill="red" stroke="none" /><path d="M 115.56566222782051 114.09645910891815 l 24.656108707769675 22.328881553328014 a54.26413456009201,54.26413456009201 0 0,0 -0.6329616513094296,0.6869548610519992 l -24.268100648464525 -22.749987669181348" fill="red" stroke="none" /><path d="M 114.81725581225074 114.88116024355365 l 23.735483706739974 23.837851014640854 a54.63950546290972,54.63950546290972 0 0,0 -0.6721961351669418,0.6578853967932518 l -23.321637619197237 -24.242886514356677" fill="red" stroke="none" /><path d="M 114.29624159901734 115.38237550388516 l 22.992732388385573 24.73956815914469 a54.77442783208741,54.77442783208741 0 0,0 -0.6961580698132799,0.6359238910259096 l -22.56347476910543 -25.131684816757183" fill="red" stroke="none" /><path d="M 113.75828350139079 115.86535959552629 l 26.133290440346915 30.135594328211145 a60.8886313973548,60.8886313973548 0 0,0 -0.7977411705422405,0.6798523321611901 l -25.61068379322763 -30.58097105059528" fill="red" stroke="none" /><path d="M 112.92097659922987 116.55440617244103 l 20.78279591963421 26.627000088606376 a54.77753306497987,54.77753306497987 0 0,0 -0.7482905028733554,0.5737572488593283 l -20.32137668826736 -26.980796679293075" fill="red" stroke="none" /><path d="M 112.34349029814194 116.9893568818739 l 19.81816167647369 27.277359428473062 a54.71667050028752,54.71667050028752 0 0,0 -0.7667438494919866,0.5470513783006904 l -19.345690499132818 -27.61445506861797" fill="red" stroke="none" /><line stroke="#e1ed5e" stroke-width="0.3" x1="143.8653032363475" x2="146.44561519142675" y1="172.8068346515853" y2="177.08958963109032" /><path d="M 144.38136562736335 173.6633856474863 a86.0,86.0 0 0,1 -40.68145358897372,12.25698825130547" fill="none" id="id18" stroke="none" /><text fill="#e1ed5e" style="font-size:6.75px; font-family:Arial;" text-anchor="middle"><textPath startOffset="21.466115282336833" xlink:href="#id18">June</textPath></text><path d="M 108.59647513512805 119.15986991738527 l 13.219914115632715 29.464615530555516 a53.29442208165612,53.29442208165612 0 0,0 -0.8402229193952199,0.3683290359873832 l -12.710770521579741 -29.687809119837354" fill="red" stroke="none" /><path d="M 107.93186726928326 119.44442032107085 l 12.714764336402892 31.169359451815374 a54.66294997124785,54.66294997124785 0 0,0 -0.8742920388914297,0.34789884560621237 l -12.176351221469597 -31.38360514182766" fill="red" stroke="none" /><path d="M 107.2578585660854 119.70592522655815 l 11.679744521973824 31.711856895477837 a54.79435307648073,54.79435307648073 0 0,0 -0.8878784066606812,0.31836160742790665 l -11.132146554683407 -31.908206043945704" fill="red" stroke="none" /><path d="M 105.18746579009965 120.34920634021253 l 8.32535204230828 32.6583949502222 a54.702852213916046,54.702852213916046 0 0,0 -0.9144407897558471,0.2247472978881075 l -7.761957967809223 -32.79686350642434" fill="red" stroke="none" /><path d="M 104.48393922423573 120.51570834832081 l 7.198628672386671 32.93643356098726 a54.71392754456584,54.71392754456584 0 0,0 -0.9218216544762733,0.19317669039956756 l -6.63061555648102 -33.05546623211337" fill="red" stroke="none" /><path d="M 103.7750983002368 120.6578951692458 l 6.066173299142297 33.19499576588472 a54.74472110408281,54.74472110408281 0 0,0 -0.928447082271184,0.1614224261540895 l -5.493877245399062 -33.29449677055982" fill="red" stroke="none" /><path d="M 103.06178313531738 120.77559828337769 l 4.9208738095331075 33.390378401002245 a54.75103507763082,54.75103507763082 0 0,0 -0.9335609649631681,0.1293830431170089 l -4.345384253383109 -33.470136009611856" fill="red" stroke="none" /><path d="M 102.34483914955558 120.86867818915974 l 3.7724210655359465 33.57391965482895 a54.78519263944796,54.78519263944796 0 0,0 -0.9380461648489598,0.09723232042596008 l -3.1939423040813844 -33.63388134371066" fill="red" stroke="none" /><path d="M 100.90346689309514 120.98055641714683 l 1.4536836489711238 33.75784109303353 a54.78912593444508,54.78912593444508 0 0,0 -0.9425807690309289,0.03246438752668728 l -0.8723825282655425 -33.77786227898631" fill="red" stroke="none" /><line stroke="#e1ed5e" stroke-width="0.3" x1="102.19456741930631" x2="102.32365962044197" y1="184.97166512339345" y2="189.96999836594603" /><path d="M 102.22038585953345 185.97133177190398 a86.0,86.0 0 0,1 -42.740103519485714,-10.115201625700543" fill="none" id="id19" stroke="none" /><text fill="#e1ed5e" style="font-size:6.75px; font-family:Arial;" text-anchor="middle"><textPath startOffset="22.20632615414155" xlink:href="#id19">July</textPath></text><path d="M 100.18074693466247 120.99922214144158 l 0.4723027427768006 54.87224572911076 a75.87427832087405,75.87427832087405 0 0,0 -1.3060993548784745,0.0 l 0.4723027427767629 -54.87224572911076" fill="red" stroke="none" /><path d="M 99.45781275523022 120.99299961872073 l -0.8698985241054265 33.68168388510345 a54.69291546866015,54.69291546866015 0 0,0 -0.9409255841145722,-0.03240737961148341 l 1.4495444598946416 -33.66171970706588" fill="red" stroke="none" /><path d="M 98.37488393609728 120.93702456842531 l -3.004172494214672 38.70396380681235 a59.820379528464635,59.820379528464635 0 0,0 -1.0259356953349568,-0.08852204870577023 l 3.6699525072911703 -38.646517505827916" fill="red" stroke="none" /><path d="M 95.86986931433489 120.58985236759428 l -6.614207676750562 32.97366837944789 a54.63050028752156,54.63050028752156 0 0,0 -0.9204160699099748,-0.19288213648746172 l 7.180815208089923 -32.85493026223389" fill="red" stroke="none" /><path d="M 95.16358092515715 120.4354850818985 l -7.754568056136473 32.765638662710934 a54.67076480736055,54.67076480736055 0 0,0 -0.9139044002952573,-0.22461546640898492 l 8.317425741174942 -32.627301937987916" fill="red" stroke="none" /><path d="M 92.7421414339146 119.70592522655815 l -11.626406147922884 31.5670370424615 a54.640023001725126,54.640023001725126 0 0,0 -0.879781853106018,-0.3326582169040176 l 12.168058221789185 -31.36223057545085" fill="red" stroke="none" /><path d="M 92.06813273071674 119.44442032107085 l -12.706104637396164 31.148130802668323 a54.640023001725126,54.640023001725126 0 0,0 -0.8678098630852605,-0.362744593151104 l 13.240385959978887 -30.924801166497247" fill="red" stroke="none" /><line stroke="#e1ed5e" stroke-width="0.3" x1="58.666819895761336" x2="56.23545636021788" y1="174.27360380694188" y2="178.64263932499728" /><path d="M 58.180547188652646 175.14741091055294 a86.0,86.0 0 0,1 -31.652253787137756,-30.449443065178592" fill="none" id="id20" stroke="none" /><text fill="#e1ed5e" style="font-size:6.75px; font-family:Arial;" text-anchor="middle"><textPath startOffset="22.20632615414155" xlink:href="#id20">August</textPath></text><path d="M 88.24862548938628 117.40417183066458 l -19.0186337988664 28.167221657432254 a54.9867740080506,54.9867740080506 0 0,0 -0.7798777178616606,-0.5364070056499438 l 19.500668401350953 -27.83567386241721" fill="red" stroke="none" /><path d="M 87.65650970185807 116.9893568818739 l -20.82582975203259 28.664295549508328 a56.431017826336976,56.431017826336976 0 0,0 -0.7809381864243545,-0.5777194007214916 l 21.31615290887551 -28.30156620004707" fill="red" stroke="none" /><path d="M 86.79598089348748 116.32954008644616 l -24.559312833532175 30.372743342436706 a60.059741230592294,60.059741230592294 0 0,0 -0.7983079928254515,-0.6569531295638898 l 25.078490954902314 -29.945495094015637" fill="red" stroke="none" /><path d="M 86.24171649860922 115.8653595955263 l -22.099727459999947 25.48429265035737 a54.73198964922369,54.73198964922369 0 0,0 -0.7064535397647415,-0.6233631108977586 l 22.535123352671274 -25.100106397687323" fill="red" stroke="none" /><path d="M 85.70375840098266 115.38237550388516 l -37.48864925205952 40.33678893397133 a76.06773433007476,76.06773433007476 0 0,0 -0.9514413317900045,-0.8996471651810976 l 38.17742641824034 -39.68550713204429" fill="red" stroke="none" /><path d="M 84.9287848128048 114.62390073753433 l -24.20930164722592 23.49076831673486 a54.732869465209895,54.732869465209895 0 0,0 -0.6502615407524082,-0.6817966257675185 l 24.610069739357286 -23.070564574384843" fill="red" stroke="none" /><path d="M 84.43433777217949 114.09645910891817 l -25.023109505930076 22.66124208309478 a54.75926394479586,54.75926394479586 0 0,0 -0.6267097375667862,-0.7041150338606031 l 25.409478093145204 -22.22715287949331" fill="red" stroke="none" /><path d="M 83.72743513129214 113.27417163493432 l -42.55637310866684 34.7149085201099 a75.91966647498563,75.91966647498563 0 0,0 -0.8173369863220632,-1.0197535617435796 l 43.147628007043764 -33.97722712478806" fill="red" stroke="none" /><path d="M 83.28015986056508 112.70617746262583 l -26.884275018713563 20.430600202697747 a54.766457734330075,54.766457734330075 0 0,0 -0.5639347356223189,-0.755482735263489 l 27.231971021030965 -19.96480458792495" fill="red" stroke="none" /><path d="M 82.85270091963577 112.12312394758628 l -27.571724379661507 19.493182601922808 a54.76661299597469,54.76661299597469 0 0,0 -0.5375971390853672,-0.7744487747417618 l 27.90318242590901 -19.015692564994033" fill="red" stroke="none" /><line stroke="#e1ed5e" stroke-width="0.3" x1="26.63291911575756" x2="22.317208475507996" y1="142.92168965132927" y2="145.44649492493687" /><path d="M 25.769776987707644 143.4266507060508 a86.0,86.0 0 0,1 -11.730757126820373,-40.83630448921669" fill="none" id="id21" stroke="none" /><text fill="#e1ed5e" style="font-size:6.75px; font-family:Arial;" text-anchor="middle"><textPath startOffset="21.46611528233685" xlink:href="#id21">September</textPath></text><line stroke="#e1ed5e" stroke-width="0.3" x1="15.007084014347285" x2="10.007500721073583" y1="101.09737516637583" y2="101.16192664675087" /><path d="M 14.007167355692545 101.11028546245083 a86.0,86.0 0 0,1 10.666146001902534,-42.60595125391555" fill="none" id="id22" stroke="none" /><text fill="#e1ed5e" style="font-size:6.75px; font-family:Arial;" text-anchor="middle"><textPath startOffset="22.20632615414155" xlink:href="#id22">October</textPath></text><line stroke="#e1ed5e" stroke-width="0.3" x1="26.266209847984243" x2="21.928928074336255" y1="57.711370442889674" y2="55.22380399835377" /><path d="M 25.398753493254645 57.213857153982495 a86.0,86.0 0 0,1 29.58750427330803,-30.492523968695096" fill="none" id="id23" stroke="none" /><text fill="#e1ed5e" style="font-size:6.75px; font-family:Arial;" text-anchor="middle"><textPath startOffset="21.46611528233685" xlink:href="#id23">November</textPath></text><line stroke="#e1ed5e" stroke-width="0.3" x1="56.762969772571076" x2="54.21961505331055" y1="26.818313649435495" y2="22.513508569990535" /><path d="M 56.25429882871897 25.957352633546506 a86.0,86.0 0 0,1 42.265352541879196,-11.944610805530505" fill="none" id="id24" stroke="none" /><text fill="#e1ed5e" style="font-size:6.75px; font-family:Arial;" text-anchor="middle"><textPath startOffset="22.20632615414155" xlink:href="#id24">December</textPath></text></svg>