<?xml version="1.0" encoding="utf-8" ?>
<svg baseProfile="full" height="200mm" version="1.1" viewBox="0,0,200,200" width="200mm" xmlns="http://www.w3.org/2000/svg" xmlns:ev="http://www.w3.org/2001/xml-events" xmlns:xlink="http://www.w3.org/1999/xlink"><defs /><rect fill="#1a1a1a" height="200" width="200" x="0" y="0" /><rect fill="#1a1a1a" height="200" width="180" x="10" y="0" /><text alignment-baseline="middle" fill="#e1ed5e" style="dominant-baseline: central; font-size:9.0px; font-family:Arial;" text-anchor="middle" x="100.0" y="100.0">2025</text><line stroke="#e1ed5e" stroke-width="0.3" x1="100.0" x2="100.0" y1="15.0" y2="10.0" /><path d="M 100.0 14.0 a86.0,86.0 0 0,1 42.46469731375804,11.215312516191453" fill="none" id="id13" stroke="none" /><text fill="#e1ed5e" style="font-size:6.75px; font-family:Arial;" text-anchor="middle"><textPath startOffset="22.20632615414155" xlink:href="#id13">January</textPath></text><path d="M 103.95276090670814 79.375362276772 l 7.425483299172074 -38.74453997594456 a60.449679088350635,60.449679088350635 0 0,0 1.0202569907544832,0.20465395426590657 l -8.091306699393682 38.61098206560145" fill="red" stroke="none" /><line stroke="#e1ed5e" stroke-width="0.3" x1="143.23703022742887" x2="145.7803849466894" y1="26.81831364943548" y2="22.513508569990506" /><path d="M 143.74570117128098 25.957352633546492 a86.0,86.0 0 0,1 28.547481713284135,27.462654790039103" fill="none" id="id14" stroke="none" /><text fill="#e1ed5e" style="font-size:6.75px; font-family:Arial;" text-anchor="middle"><textPath startOffset="19.985693538727396" xlink:href="#id14">February</textPath></text><line stroke="#e1ed5e" stroke-width="0.3" x1="172.23445277983987" x2="176.4835382374775" y1="55.19839476539836" y2="52.563006222186495" /><path d="M 173.08426987136738 54.67131705675599 a86.0,86.0 0 0,1 12.851231095245387,41.99856678651699" fill="none" id="id15" stroke="none" /><text fill="#e1ed5e" style="font-size:6.75px; font-family:Arial;" text-anchor="middle"><textPath startOffset="22.20632615414155" xlink:href="#id15">March</textPath></text><path d="M 120.6074358757038 95.95851677861258 l 16.788346950069005 -3.292492230609329 a38.108158825674785,38.108158825674785 0 0,0 0.12070174273418405,0.6447935361095605 l -16.842534416713047 3.003020617037206" fill="red" stroke="none" /><path d="M 120.78858239683441 97.02765380044208 l 17.316309866617214 -2.475881560362888 a38.492414838942324,38.492414838942324 0 0,0 0.0881366338753268,0.656720295544332 l -17.356362499550375 2.1774429227538916" fill="red" stroke="none" /><path d="M 120.87857604477298 97.74499172005257 l 19.47646291851939 -2.103571864822922 a40.58973257619755,40.58973257619755 0 0,0 0.06904675787673588,0.6952914290391224 l -19.509786802078352 1.7680049050793645" fill="red" stroke="none" /><line stroke="#e1ed5e" stroke-width="0.3" x1="184.98032266829074" x2="189.97916517819016" y1="98.17113171792111" y2="98.06355123074" /><path d="M 185.9800911702706 98.14961562048488 a86.0,86.0 0 0,1 -9.607161424134198,41.387399972396054" fill="none" id="id16" stroke="none" /><text fill="#e1ed5e" style="font-size:6.75px; font-family:Arial;" text-anchor="middle"><textPath startOffset="21.466115282336823" xlink:href="#id16">April</textPath></text><path d="M 120.99513854157772 99.54816195383933 l 17.66922230135896 -0.38026073826634454 a38.67331363847504,38.67331363847504 0 0,0 0.008594670451672242,0.665666698141168 l -17.67314997892835 0.07605778206471381" fill="red" stroke="none" /><path d="M 120.89721153311464 102.0752229133903 l 14.769995903534388 1.4667523406711198 a35.8426460383345,35.8426460383345 0 0,0 -0.06625376320574218,0.6134275628361394 l -14.742559838827594 -1.7207762253920507" fill="red" stroke="none" /><path d="M 120.81339534386255 102.79330883721812 l 18.886297114533612 2.5346782569961688 a40.055624171486215,40.055624171486215 0 0,0 -0.09759447727887875,0.6825755467817766 l -18.83986858623813 -2.8593992757583546" fill="red" stroke="none" /><path d="M 120.76222939487914 103.15116336523771 l 20.83759954942172 3.162602583315385 a42.07623329919399,42.07623329919399 0 0,0 -0.1148445655140446,0.7151372190836542 l -20.78007322954639 -3.5208190320922443" fill="red" stroke="none" /><path d="M 120.64145759157962 103.86396538481128 l 34.09105081929504 6.381653994790281 a55.68321285107508,55.68321285107508 0 0,0 -0.18447070715141212,0.9406121615082231 l -33.976150179167966 -6.967529883366449" fill="red" stroke="none" /><path d="M 120.41448212921028 104.9243191809786 l 20.46776579963689 4.937172105615824 a42.05481192576311,42.05481192576311 0 0,0 -0.17580650793005448,0.702259607702072 l -20.379747977411775 -5.288759552715292" fill="red" stroke="none" /><path d="M 120.13307415673323 105.97154293290107 l 31.691965195890784 9.399952005440584 a54.05661440138931,54.05661440138931 0 0,0 -0.2722734558393531,0.8898054073197291 l -31.525464967545297 -9.94408438531237" fill="red" stroke="none" /><path d="M 119.9155931802556 106.66101706037122 l 19.995511956917444 6.687746886089711 a42.08427036517107,42.08427036517107 0 0,0 -0.23569028895277083,0.6850263038754995 l -19.877430837021443 -7.03094589305451" fill="red" stroke="none" /><path d="M 119.67450827220406 107.3425965602758 l 19.830821993634228 7.400933397843345 a42.16684473658084,42.16684473658084 0 0,0 -0.2596387731396349,0.677834906860742 l -19.700488940901085 -7.7411918715372305" fill="red" stroke="none" /><path d="M 119.12269723197855 108.67885076344098 l 19.210559653127195 8.718727190474958 a42.09648800175721,42.09648800175721 0 0,0 -0.30515019122690157,0.6572663644673176 l -19.057634845060463 -9.048113622221106" fill="red" stroke="none" /><path d="M 118.81262510543309 109.33194174019688 l 18.596869453676305 9.224916848081687 a41.759158083388165,41.759158083388165 0 0,0 -0.3249684363139414,0.6411935546109477 l -18.435322347576097 -9.543664614395329" fill="red" stroke="none" /><line stroke="#e1ed5e" stroke-width="0.3" x1="174.80103733775053" x2="179.2010983576182" y1="140.37084112569926" y2="142.7455964860345" /><path d="M 175.68104954172406 140.8457921977663 a86.0,86.0 0 0,1 -30.038265399797805,32.042727171017184" fill="none" id="id17" stroke="none" /><text fill="#e1ed5e" style="font-size:6.75px; font-family:Arial;" text-anchor="middle"><textPath startOffset="22.206326154141568" xlink:href="#id17">May</textPath></text><path d="M 116.0416608686014 113.55231037782055 l 16.111133723108978 13.611002410698692 a42.09094631513591,42.09094631513591 0 0,0 -0.47233556087695266,0.5494329668067357 l -15.874455652661247 -13.886312476666955" fill="red" stroke="none" /><path d="M 115.56566222782051 114.09645910891815 l 15.43929485855558 13.982019233025122 a41.829514818211806,41.829514818211806 0 0,0 -0.4879185669770074,0.5295392393662182 l -15.196329883582852 -14.245709727192674" fill="red" stroke="none" /><path d="M 114.81725581225074 114.88116024355365 l 14.862812940280428 14.92691385211897 a42.06456659051756,42.06456659051756 0 0,0 -0.5174944181881803,0.5064772063342372 l -14.603668569716453 -15.180541161375778" fill="red" stroke="none" /><path d="M 114.29624159901734 115.38237550388516 l 14.397712922002173 15.491555947025962 a42.14905300584931,42.14905300584931 0 0,0 -0.535695296990772,0.48934495258817096 l -14.128918075544536 -15.737093666200716" fill="red" stroke="none" /><path d="M 113.75828350139079 115.86535959552629 l 16.36428446657694 18.870468656899195 a45.97767790316118,45.97767790316118 0 0,0 -0.6023831665704894,0.5133640029750791 l -16.037035823429406 -19.149357050097223" fill="red" stroke="none" /><path d="M 112.92097659922987 116.55440617244103 l 13.013883009337345 16.673438231444532 a42.150997457295375,42.150997457295375 0 0,0 -0.5758052493258018,0.44150291158759447 l -12.72494903151805 -16.8949804848595" fill="red" stroke="none" /><path d="M 112.34349029814194 116.9893568818739 l 12.409843146951367 17.08068374334695 a42.1128862089524,42.1128862089524 0 0,0 -0.5901272169859181,0.42104010047004764 l -12.113988602116565 -17.291768105661216" fill="red" stroke="none" /><line stroke="#e1ed5e" stroke-width="0.3" x1="143.8653032363475" x2="146.44561519142675" y1="172.8068346515853" y2="177.08958963109032" /><path d="M 144.38136562736335 173.6633856474863 a86.0,86.0 0 0,1 -40.68145358897372,12.25698825130547" fill="none" id="id18" stroke="none" /><text fill="#e1ed5e" style="font-size:6.75px; font-family:Arial;" text-anchor="middle"><textPath startOffset="21.466115282336833" xlink:href="#id18">June</textPath></text><path d="M 108.59647513512805 119.15986991738527 l 8.278116975194717 18.450311541937257 a41.22229503912823,41.22229503912823 0 0,0 -0.6498976014577903,0.28489600974912693 l -7.959298699079174 -18.590072104980838" fill="red" stroke="none" /><path d="M 107.93186726928326 119.44442032107085 l 7.961799567541263 19.517797266088333 a42.07924719893539,42.07924719893539 0 0,0 -0.6730253461974635,0.2678106749121334 l -7.6246531453019335 -19.651954785406538" fill="red" stroke="none" /><path d="M 107.2578585660854 119.70592522655815 l 7.313685289298232 19.8575012352746 a42.16152990262825,42.16152990262825 0 0,0 -0.6831782818947103,0.24496342556842493 l -6.970787446773787 -19.980452201882986" fill="red" stroke="none" /><path d="M 105.18746579009965 120.34920634021253 l 5.213213751850892 20.450209528998045 a42.10423340001739,42.10423340001739 0 0,0 -0.7038358492133946,0.17298572749551872 l -4.860424617894287 -20.536916514807594" fill="red" stroke="none" /><path d="M 104.48393922423573 120.51570834832081 l 4.507676047648473 20.624313242789352 a42.11116861017504,42.11116861017504 0 0,0 -0.7094900487365277,0.14868053795527106 l -4.151994537482567 -20.698849761471166" fill="red" stroke="none" /><path d="M 103.7750983002368 120.6578951692458 l 3.7985490467537266 20.786221115925557 a42.13045108701523,42.13045108701523 0 0,0 -0.7145144517612841,0.12422749613615255 l -3.4401856235203927 -20.848527190582715" fill="red" stroke="none" /><path d="M 103.06178313531738 120.77559828337769 l 3.081379247942073 20.908566866002115 a42.13440480495558,42.13440480495558 0 0,0 -0.7184345565721345,0.09956848315030926 l -2.721016100183108 -20.958509914645024" fill="red" stroke="none" /><path d="M 102.34483914955558 120.86867818915974 l 2.3622349273258223 21.02349771620745 a42.155793770862346,42.155793770862346 0 0,0 -0.7218023478199374,0.07481776462327835 l -1.9999999829002824 -21.06104484928649" fill="red" stroke="none" /><path d="M 100.90346689309514 120.98055641714683 l 0.9102754515538632 21.138666632312834 a42.158256742694036,42.158256742694036 0 0,0 -0.7252819128576296,0.024980175554944417 l -0.5462731870215815 -21.151203606293873" fill="red" stroke="none" /><line stroke="#e1ed5e" stroke-width="0.3" x1="102.19456741930631" x2="102.32365962044197" y1="184.97166512339345" y2="189.96999836594603" /><path d="M 102.22038585953345 185.97133177190398 a86.0,86.0 0 0,1 -42.740103519485714,-10.115201625700543" fill="none" id="id19" stroke="none" /><text fill="#e1ed5e" style="font-size:6.75px; font-family:Arial;" text-anchor="middle"><textPath startOffset="22.20632615414155" xlink:href="#id19">July</textPath></text><path d="M 100.18074693466247 120.99922214144158 l 0.2957490735728985 34.36019817254823 a55.3614709517987,55.3614709517987 0 0,0 -0.9529920164706842,0.0 l 0.29574907357287483 -34.36019817254823" fill="red" stroke="none" /><path d="M 99.45781275523022 120.99299961872073 l -0.5447177399268083 21.090978101946067 a42.09801115538997,42.09801115538997 0 0,0 -0.7242454602579163,-0.024944478031765232 l 0.9076835518593677 -21.07847682548821" fill="red" stroke="none" /><path d="M 98.37488393609728 120.93702456842531 l -1.8811689019495035 24.23585637501405 a45.30875419818899,45.30875419818899 0 0,0 -0.7770573943109307,-0.06704778166814149 l 2.298070614001976 -24.199884341067243" fill="red" stroke="none" /><path d="M 95.86986931433489 120.58985236759428 l -4.14172016303992 20.64762914182404 a42.058927681323965,42.058927681323965 0 0,0 -0.7086098922274449,-0.14849609260119498 l 4.496521516696752 -20.573277068496303" fill="red" stroke="none" /><path d="M 95.16358092515715 120.4354850818985 l -4.855797163227919 20.517363974107948 a42.08414073507467,42.08414073507467 0 0,0 -0.7034999699739244,-0.17290317655035797 l 5.208250417945054 -20.43073953924356" fill="red" stroke="none" /><path d="M 92.7421414339146 119.70592522655815 l -7.280285579148964 19.766817160241008 a42.064890665758575,42.064890665758575 0 0,0 -0.677304390216942,-0.25609856574716117 l 7.619460190126189 -19.638570344387215" fill="red" stroke="none" /><path d="M 92.06813273071674 119.44442032107085 l -7.95637699060766 19.50450419630532 a42.064890665758575,42.064890665758575 0 0,0 -0.6680876947690133,-0.27926071059696495 l 8.290936144874136 -19.36465844268838" fill="red" stroke="none" /><line stroke="#e1ed5e" stroke-width="0.3" x1="58.666819895761336" x2="56.23545636021788" y1="174.27360380694188" y2="178.64263932499728" /><path d="M 58.180547188652646 175.14741091055294 a86.0,86.0 0 0,1 -31.652253787137756,-30.449443065178592" fill="none" id="id20" stroke="none" /><text fill="#e1ed5e" style="font-size:6.75px; font-family:Arial;" text-anchor="middle"><textPath startOffset="22.20632615414155" xlink:href="#id20">August</textPath></text><path d="M 88.24862548938628 117.40417183066458 l -11.909190477208547 17.63790246343083 a42.282021077236394,42.282021077236394 0 0,0 -0.5996861372421288,-0.4124695934252764 l 12.211033499073567 -17.430292080640456" fill="red" stroke="none" /><path d="M 87.65650970185807 116.9893568818739 l -13.040830166131913 17.94916286859906 a43.18638544480356,43.18638544480356 0 0,0 -0.5976482230265177,-0.4421258676439291 l 13.347863359576996 -17.722027052215367" fill="red" stroke="none" /><path d="M 86.79598089348748 116.32954008644616 l -15.3786826970358 19.01896790304708 a45.45863899715688,45.45863899715688 0 0,0 -0.6042316218957047,-0.49724148894077386 l 15.703784447476194 -18.751431295249127" fill="red" stroke="none" /><path d="M 86.24171649860922 115.8653595955263 l -13.838526289476317 15.957891537304931 a42.122478836086344,42.122478836086344 0 0,0 -0.5436961906215058,-0.47974867375135183 l 14.11116483300441 -15.71731972178129" fill="red" stroke="none" /><path d="M 85.70375840098266 115.38237550388516 l -23.47484416586482 25.258307601582562 a55.482610276888856,55.482610276888856 0 0,0 -0.6939663587713569,-0.6561885074144502 l 23.90614635902699 -24.85048445742218" fill="red" stroke="none" /><path d="M 84.9287848128048 114.62390073753433 l -15.159510808510175 14.709575740221984 a42.12302976399607,42.12302976399607 0 0,0 -0.5004485696279142,-0.5247183244878525 l 15.410465929517047 -14.446450299151632" fill="red" stroke="none" /><path d="M 84.43433777217949 114.09645910891817 l -15.669105393676155 14.190138538436752 a42.13955760128766,42.13955760128766 0 0,0 -0.4822795118668375,-0.5418461441923991 l 15.91104375519133 -13.918318224503489" fill="red" stroke="none" /><path d="M 83.72743513129214 113.27417163493432 l -26.648178766682882 21.73796826507595 a55.38989235043543,55.38989235043543 0 0,0 -0.5963172625544252,-0.743997473007348 l 27.018413941292167 -21.27604295849034" fill="red" stroke="none" /><path d="M 83.28015986056508 112.70617746262583 l -16.834540031923996 12.79334319966377 a42.144062247137725,42.144062247137725 0 0,0 -0.43396088745926426,-0.5813615256263719 l 17.052262186078345 -12.50166879452809" fill="red" stroke="none" /><path d="M 82.85270091963577 112.12312394758628 l -17.26501077285873 12.206346000896424 a42.144159469710026,42.144159469710026 0 0,0 -0.4136932762619233,-0.5959560191578263 l 17.47256495628279 -11.907348719551585" fill="red" stroke="none" /><path d="M 82.24976979558568 111.22182372390057 l -33.802641123918875 21.370273834564376 a60.991338446177544,60.991338446177544 0 0,0 -0.5533812689512425,-0.8922268059813594 l 34.16548703253807 -20.785250697217755" fill="red" stroke="none" /><line stroke="#e1ed5e" stroke-width="0.3" x1="26.63291911575756" x2="22.317208475507996" y1="142.92168965132927" y2="145.44649492493687" /><path d="M 25.769776987707644 143.4266507060508 a86.0,86.0 0 0,1 -11.730757126820373,-40.83630448921669" fill="none" id="id21" stroke="none" /><text fill="#e1ed5e" style="font-size:6.75px; font-family:Arial;" text-anchor="middle"><textPath startOffset="21.46611528233685" xlink:href="#id21">September</textPath></text><path d="M 81.87401531095188 110.60418214915194 l -19.858234592983354 11.617594320920947 a44.00691154752101,44.00691154752101 0 0,0 -0.3768835808247883,-0.6571282907795947 l 20.05527016996052 -11.274046184283046" fill="red" stroke="none" /><path d="M 81.51974371655577 109.97397251340807 l -19.83962472124592 10.707636767099983 a43.54471543879016,43.54471543879016 0 0,0 -0.35032240254498465,-0.6626779631706992 l 20.020999632015787 -10.364543788843157" fill="red" stroke="none" /><path d="M 81.02952815118164 109.00673069616217 l -45.53263378994641 21.61781603015664 a71.40387593988251,71.40387593988251 0 0,0 -0.5175943987652426,-1.114852287580936 l 45.89800280555148 -20.830843675296876" fill="red" stroke="none" /><path d="M 80.73074385275274 108.34839909993369 l -20.85491149985149 9.035383777356085 a43.72807721015457,43.72807721015457 0 0,0 -0.293288417590349,-0.6932471831855971 l 21.007350898634144 -8.675062068504328" fill="red" stroke="none" /><path d="M 80.45479744820244 107.68017299344265 l -18.62374950712627 7.318093410503814 a41.009960941217386,41.009960941217386 0 0,0 -0.2525153592069604,-0.6592379208975085 l 18.74695914592674 -6.996431922773148" fill="red" stroke="none" /><path d="M 80.0844068197444 106.66101706037122 l -55.88089696581135 18.690058823210947 a79.92361958093468,79.92361958093468 0 0,0 -0.42514703019142064,-1.3084680156990913 l 56.194336247019024 -17.725391907534053" fill="red" stroke="none" /><path d="M 79.86692584326677 105.97154293290107 l -21.55362093011881 6.392882266349523 a43.4817152119375,43.4817152119375 0 0,0 -0.20665692090346943,-0.7193998525059894 l 21.660470487908384 -6.020924938338938" fill="red" stroke="none" /><path d="M 79.67330655649465 105.27499134158121 l -27.63238850289616 7.170896265302703 a49.54769075814575,49.54769075814575 0 0,0 -0.20712984054154715,-0.8273807510013738 l 27.751729657732763 -6.694187674903938" fill="red" stroke="none" /><path d="M 79.35854240842038 103.8639653848113 l -48.314659021650684 9.044233877881515 a70.1538853277764,70.1538853277764 0 0,0 -0.21197683846552393,-1.188878683398473 l 48.463182302455394 -8.211236443749828" fill="red" stroke="none" /><path d="M 79.23777060512086 103.15116336523772 l -24.872343242603044 3.774971143177901 a46.15718317915754,46.15718317915754 0 0,0 -0.11246076570296519,-0.7865503333948388 l 24.933638059322607 -3.3462753378026617" fill="red" stroke="none" /><path d="M 79.1416061653843 102.43462659150553 l -24.460610648218616 2.8550833588052074 a45.626672009621444,45.626672009621444 0 0,0 -0.08433916178951811,-0.7808758924006957 l 24.506132111509185 -2.4336111445197295" fill="red" stroke="none" /><path d="M 79.04373962182676 101.35467743843564 l -25.9165194270025 1.6753239135693396 a46.97061203409683,46.97061203409683 0 0,0 -0.04521178429786274,-0.8072867801971718 l 25.94151756218789 -1.2289654170367301" fill="red" stroke="none" /><path d="M 79.0095281055655 100.63252640178507 l -22.519456197433286 0.6786007799327202 a43.52967834760722,43.52967834760722 0 0,0 -0.016122433787117963,-0.7491461462002461 l 22.527800693905412 -0.29086481794234526" fill="red" stroke="none" /><line stroke="#e1ed5e" stroke-width="0.3" x1="15.007084014347285" x2="10.007500721073583" y1="101.09737516637583" y2="101.16192664675087" /><path d="M 14.007167355692545 101.11028546245083 a86.0,86.0 0 0,1 10.666146001902534,-42.60595125391555" fill="none" id="id22" stroke="none" /><text fill="#e1ed5e" style="font-size:6.75px; font-family:Arial;" text-anchor="middle"><textPath startOffset="22.20632615414155" xlink:href="#id22">October</textPath></text><path d="M 79.16333360222342 97.38593545837743 l -32.49039649058791 -4.076083562885416 a53.74508087220479,53.74508087220479 0 0,0 0.12306088187123287,-0.9169465086077377 l 32.41541960965885 4.634748413557814" fill="red" stroke="none" /><path d="M 79.26566170972629 96.67025291283419 l -48.01802061546217 -7.7112595558839185 a69.63325845309114,69.63325845309114 0 0,0 0.2002391835363509,-1.1818229961218423 l 47.878169570405596 8.536668340321588" fill="red" stroke="none" /><path d="M 79.3925641242962 95.95851677861259 l -23.394453205988967 -4.588066689898567 a44.840108992162016,44.840108992162016 0 0,0 0.15506287077424707,-0.7561416273528995 l 23.312011039299726 4.990083973414869" fill="red" stroke="none" /><path d="M 79.54389044137918 95.25157060432595 l -31.954389140744343 -7.4174984388843885 a53.80399775102072,53.80399775102072 0 0,0 0.21718162972035457,-0.900358066927299 l 31.821974710763172 7.966441737471084" fill="red" stroke="none" /><path d="M 79.81627453868168 94.20196356495316 l -60.551176383954946 -17.394109305140535 a84.0,84.0 0 0,0 0.4111764115531722,-1.3862824530138431 l 60.24279407529007 18.433821144900918" fill="red" stroke="none" /><path d="M 80.02781315780177 93.51064311812611 l -24.680472190051564 -8.01917152687624 a46.95058418420231,46.95058418420231 0 0,0 0.25635624007413615,-0.7664725281835416 l 24.538778656205654 8.442817157982105" fill="red" stroke="none" /><path d="M 80.2630227832202 92.82701384747504 l -24.78683909897035 -9.008251449498651 a47.37301626086102,47.37301626086102 0 0,0 0.2851300897243151,-0.7640068826993528 l 24.62810442074441 9.433581469227345" fill="red" stroke="none" /><path d="M 80.65960295795068 91.81776055985345 l -26.182723854572625 -11.076986439708037 a49.42946811022468,49.42946811022468 0 0,0 0.3382606559511542,-0.780752231180521 l 25.98817248877879 11.526037815475158" fill="red" stroke="none" /><path d="M 80.95270993114464 91.15688171328213 l -20.818968768444524 -9.665658619221297 a43.95330950265768,43.95330950265768 0 0,0 0.32450478532974064,-0.683489836942473 l 20.649505789273032 10.022590871804303" fill="red" stroke="none" /><line stroke="#e1ed5e" stroke-width="0.3" x1="26.266209847984243" x2="21.928928074336255" y1="57.711370442889674" y2="55.22380399835377" /><path d="M 25.398753493254645 57.213857153982495 a86.0,86.0 0 0,1 29.58750427330803,-30.492523968695096" fill="none" id="id23" stroke="none" /><text fill="#e1ed5e" style="font-size:6.75px; font-family:Arial;" text-anchor="middle"><textPath startOffset="21.46611528233685" xlink:href="#id23">November</textPath></text><line stroke="#e1ed5e" stroke-width="0.3" x1="56.762969772571076" x2="54.21961505331055" y1="26.818313649435495" y2="22.513508569990535" /><path d="M 56.25429882871897 25.957352633546506 a86.0,86.0 0 0,1 42.265352541879196,-11.944610805530505" fill="none" id="id24" stroke="none" /><text fill="#e1ed5e" style="font-size:6.75px; font-family:Arial;" text-anchor="middle"><textPath startOffset="22.20632615414155" xlink:href="#id24">December</textPath></text></svg>