<?xml version="1.0" encoding="utf-8" ?>
<svg baseProfile="full" height="200mm" version="1.1" viewBox="0,0,200,200" width="200mm" xmlns="http://www.w3.org/2000/svg" xmlns:ev="http://www.w3.org/2001/xml-events" xmlns:xlink="http://www.w3.org/1999/xlink"><defs /><rect fill="#1a1a1a" height="200" width="200" x="0" y="0" /><rect fill="#1a1a1a" height="200" width="180" x="10" y="0" /><text alignment-baseline="middle" fill="#e1ed5e" style="dominant-baseline: central; font-size:9.0px; font-family:Arial;" text-anchor="middle" x="100.0" y="100.0">2026</text><line stroke="#e1ed5e" stroke-width="0.3" x1="100.0" x2="100.0" y1="15.0" y2="10.0" /><path d="M 100.0 14.0 a86.0,86.0 0 0,1 42.46469731375804,11.215312516191453" fill="none" id="id133" stroke="none" /><text fill="#e1ed5e" style="font-size:6.75px; font-family:Arial;" text-anchor="middle"><textPath startOffset="22.20632615414155" xlink:href="#id133">January</textPath></text><path d="M 100.72285384407766 79.0124445844662 l 0.5162167343295749 -14.987991565558955 a35.99687870478615,35.99687870478615 0 0,0 0.6190763214096554,0.02665872866153447 l -0.7741338881285619 14.976885110373226" fill="#ff6209" stroke="none" /><path d="M 101.44485096284872 79.0497635885617 l 1.2376350415848656 -17.945620260487775 a38.9882469137431,38.9882469137431 0 0,0 0.6691307946322113,0.05193742786397002 l -1.546356025579418 17.92165757043534" fill="#ff900d" stroke="none" /><path d="M 102.16513564639614 79.11191278185805 l 2.2955582847145197 -22.146336071487106 a43.26499021400576,43.26499021400576 0 0,0 0.740105955104608,0.08315952752819661 l -2.676430943328853 22.103540590488308" fill="#ffd013" stroke="none" /><path d="M 102.88285421437855 79.19881850522331 l 2.0379799350322925 -14.705006690897886 a35.84555771922853,35.84555771922853 0 0,0 0.6104515882967223,0.08996469572046195 l -2.29080050375767 14.667747511016454" fill="#ff5f08" stroke="none" /><path d="M 103.95276090670814 79.375362276772 l 2.8777645141683315 -15.01554279611421 a36.288821212276105,36.288821212276105 0 0,0 0.6124751046891698,0.12285674413401505 l -3.1358060283246267 14.963782095902985" fill="#ff6609" stroke="none" /><path d="M 104.66035177308747 79.52364482259891 l 4.32560277349067 -19.005556459886506 a40.491588331995004,40.491588331995004 0 0,0 0.6782848405933574,0.1605281072641757 l -4.652111301046551 18.92828244048146" fill="#ffa70f" stroke="none" /><path d="M 105.36241919743992 79.69619591428918 l 5.705874745554934 -21.604234713067736 a43.34502101474247,43.34502101474247 0 0,0 0.7197381104515862,0.19673161385105245 l -6.076910745230231 21.502816558390393" fill="#ffd113" stroke="none" /><path d="M 106.40334571778207 80.00007090966166 l 4.572577023476734 -14.28178646917116 a35.99592896044216,35.99592896044216 0 0,0 0.5884771781648301,0.19401167337435957 l -4.817737023883982 14.200961071537565" fill="#ff6209" stroke="none" /><path d="M 107.08798089147638 80.2323363322302 l 5.0111965281830715 -13.975721585443656 a35.84698233574452,35.84698233574452 0 0,0 0.5790442845715615,0.2132668967634439 l -5.251023138527209 13.887391420873888" fill="#ff5f08" stroke="none" /><path d="M 107.76421540070413 80.48803036053334 l 11.58606627743878 -29.11652520945413 a52.337022386595415,52.337022386595415 0 0,0 0.8341926481193883,0.34028812649790047 l -12.085542795146557 28.912776196772654" fill="#b2ff20" stroke="none" /><path d="M 108.76106565485865 80.91482961587045 l 6.238511603748003 -13.59001993494602 a35.95351693958076,35.95351693958076 0 0,0 0.5602273391923723,0.2630342475793066 l -6.471517154239973 13.48062070472671" fill="#ff6109" stroke="none" /><path d="M 109.41281617654863 81.2277094730956 l 6.787399827041487 -13.53633589413221 a36.14269414109969,36.14269414109969 0 0,0 0.5537396566755312,0.2836469595141582 l -7.019399971305773 13.417496409305551" fill="#ff6409" stroke="none" /><line stroke="#e1ed5e" stroke-width="0.3" x1="143.23703022742887" x2="145.7803849466894" y1="26.81831364943548" y2="22.513508569990506" /><path d="M 143.74570117128098 25.957352633546492 a86.0,86.0 0 0,1 28.547481713284135,27.462654790039103" fill="none" id="id134" stroke="none" /><text fill="#e1ed5e" style="font-size:6.75px; font-family:Arial;" text-anchor="middle"><textPath startOffset="19.985693538727396" xlink:href="#id134">February</textPath></text><path d="M 110.68208982089419 81.91981866633111 l 18.91277719389643 -32.01119321427879 a58.18076965566821,58.18076965566821 0 0,0 0.8578558715261275,0.5168485639796313 l -19.460995131640196 31.680898040840546" fill="#69ff28" stroke="none" /><path d="M 111.60114157652 82.49532879139004 l 8.25685838508448 -12.45856627932936 a35.946289978713196,35.946289978713196 0 0,0 0.5128257014820782,0.34626220284530335 l -8.4700887809731 12.314592164185386" fill="#ff6108" stroke="none" /><path d="M 112.19680574252982 82.90503203632743 l 8.667381007616031 -12.148147948071488 a35.92316963983914,35.92316963983914 0 0,0 0.5002809148851589,0.36347536061349595 l -8.875207238854978 11.997153352641316" fill="#ff6108" stroke="none" /><path d="M 112.77801427241765 83.33499621200491 l 25.560377825242284 -33.335679879441436 a63.00714781550557,63.00714781550557 0 0,0 0.8549993295084145,0.6673405384559603 l -26.13040970991013 32.89076095176225" fill="#31ff2f" stroke="none" /><path d="M 113.6212207817346 84.01681056812373 l 9.677828254496704 -11.355998464411284 a35.92042428509478,35.92042428509478 0 0,0 0.4671471727380361,0.40510542485374396 l -9.871869225881504 11.187728046137869" fill="#ff6108" stroke="none" /><path d="M 114.16331599549186 84.49514656593476 l 10.066127642954022 -11.01958282949223 a35.92508396828249,35.92508396828249 0 0,0 0.45298471470520685,0.4209999242608465 l -10.254320241454076 10.844678319156744" fill="#ff6108" stroke="none" /><path d="M 114.68862486808459 84.99185889309783 l 10.389817345959566 -10.615823210374813 a35.854090578569085,35.854090578569085 0 0,0 0.4373587820851185,0.43548062448268177 l -10.571011928212007 10.435406735242012" fill="#ff6008" stroke="none" /><path d="M 115.4437574822437 85.77008943001954 l 11.354332258383208 -10.461905582524343 a36.43931117153274,36.43931117153274 0 0,0 0.4210585993973121,0.4649434220109419 l -11.532734498396556 10.264909373243851" fill="#ff6909" stroke="none" /><path d="M 117.04232023915458 87.72973835380427 l 12.138241352823968 -8.739384968346975 a35.957063641115354,35.957063641115354 0 0,0 0.3573231148004485,0.5054082053685931 l -12.286877087428298 8.52915026264659" fill="#ff6109" stroke="none" /><path d="M 117.45458315368197 88.32363383020206 l 12.658984687342068 -8.468316845257402 a36.23030805683297,36.23030805683297 0 0,0 0.34229595335688295,0.5213402205380506 l -12.802877276056876 8.249158560741677" fill="#ff6509" stroke="none" /><line stroke="#e1ed5e" stroke-width="0.3" x1="172.23445277983987" x2="176.4835382374775" y1="55.19839476539836" y2="52.563006222186495" /><path d="M 173.08426987136738 54.67131705675599 a86.0,86.0 0 0,1 12.851231095245387,41.99856678651699" fill="none" id="id135" stroke="none" /><text fill="#e1ed5e" style="font-size:6.75px; font-family:Arial;" text-anchor="middle"><textPath startOffset="22.20632615414155" xlink:href="#id135">March</textPath></text><path d="M 118.03404312379186 89.2402003453031 l 13.388889628645043 -7.9883234732322865 a36.59088443293172,36.59088443293172 0 0,0 0.3180624740859995,0.5436718696787648 l -13.52441177720137 7.756672191199626" fill="#ff6b09" stroke="none" /><path d="M 118.56541770881063 90.18545643968196 l 13.516743679473686 -7.145579577931663 a36.28926640493735,36.28926640493735 0 0,0 0.28718732162095645,0.5547544954831505 l -13.63774043425476 6.911852360188168" fill="#ff6609" stroke="none" /><path d="M 118.89224826269711 90.83032412892265 l 40.18727943525176 -19.505583530218864 a65.67085422578523,65.67085422578523 0 0,0 0.48484418338668955,1.0212055008949827 l -40.51708181248021 18.81093561368334" fill="#33ff51" stroke="none" /><path d="M 119.34039704204932 91.81776055985345 l 14.303829285586636 -6.051445369564594 a36.53124345608009,36.53124345608009 0 0,0 0.2400247308580748,0.581238924363701 l -14.405875703330908 5.80433187474759" fill="#ff6a09" stroke="none" /><path d="M 119.61058180528143 92.48833698450437 l 14.002842121586403 -5.36366704062891 a35.99494953658742,35.99494953658742 0 0,0 0.2166474504066762,0.5805074567542324 l -14.093094160494704 5.121836446845345" fill="#ff6209" stroke="none" /><path d="M 119.97218684219823 93.5106431181261 l 48.55481305336348 -15.776415107944418 a72.05355173056282,72.05355173056282 0 0,0 0.37311564884393256,1.1828785698808062 l -48.819184185975615 14.938286371637194" fill="#3cffa4" stroke="none" /><path d="M 120.28053869075195 94.5502522615342 l 14.432065119204848 -3.8781570570728046 a35.944049175651585,35.944049175651585 0 0,0 0.1554215005992089,0.5989024422289708 l -14.496682951674359 3.629158189294983" fill="#ff6108" stroke="none" /><path d="M 120.53481517161879 95.60439243477599 l 48.781483474217325 -10.441986256515046 a70.88655336788248,70.88655336788248 0 0,0 0.2451348293207035,1.195364485630413 l -48.953997599453025 9.60074611472122" fill="#3aff95" stroke="none" /><path d="M 120.6074358757038 95.95851677861258 l 8.857286028429957 -1.737070690737085 a30.026014091172158,30.026014091172158 0 0,0 0.09510279005460383,0.5080429072862606 l -8.88587454239442 1.5843497059882616" fill="#ff0100" stroke="none" /><path d="M 120.78858239683441 97.02765380044208 l 15.142495843698407 -2.165070186781575 a36.29649336580492,36.29649336580492 0 0,0 0.08310860100945744,0.619255610492357 l -15.177520443765701 1.9040962342245535" fill="#ff6609" stroke="none" /><path d="M 120.87857604477298 97.74499172005257 l 14.871554267284164 -1.606214807777038 a35.9580430649701,35.9580430649701 0 0,0 0.061167840624901694,0.615951807545402 l -14.896999233591293 1.3499874695272012" fill="#ff6109" stroke="none" /><path d="M 120.94382443527127 98.46500227214037 l 35.732817554949534 -2.6189005702558514 a56.828660184441674,56.828660184441674 0 0,0 0.06310527473867063,0.9762106691515128 l -35.77260342069262 2.003430836851303" fill="#79ff26" stroke="none" /><line stroke="#e1ed5e" stroke-width="0.3" x1="184.98032266829074" x2="189.97916517819016" y1="98.17113171792111" y2="98.06355123074" /><path d="M 185.9800911702706 98.14961562048488 a86.0,86.0 0 0,1 -9.607161424134198,41.387399972396054" fill="none" id="id136" stroke="none" /><text fill="#e1ed5e" style="font-size:6.75px; font-family:Arial;" text-anchor="middle"><textPath startOffset="21.466115282336823" xlink:href="#id136">April</textPath></text><path d="M 120.99513854157772 99.54816195383933 l 14.990068785057975 -0.3226024623863059 a35.9935397598268,35.9935397598268 0 0,0 0.007999123517492095,0.6195409317731672 l -14.993400915693183 0.06452527255267604" fill="#ff6209" stroke="none" /><path d="M 120.92983693683757 101.71520430193887 l 15.318065195134903 1.2553184909832042 a36.369415923717064,36.369415923717064 0 0,0 -0.05650318465134448,0.6235079342931488 l -15.294187414206483 -1.5188078138249235" fill="#ff6809" stroke="none" /><path d="M 120.8583938346157 102.4346265915055 l 14.821670815918369 1.730010190865727 a35.92229409427202,35.92229409427202 0 0,0 -0.07697376279205247,0.6135566246134352 l -14.789695543879468 -1.9848845697665571" fill="#ff6108" stroke="none" /><path d="M 120.70491114924044 103.5080841355445 l 62.114733447721314 10.524252406633499 a84.0,84.0 0 0,0 -0.25381423064324515,1.4235249970671267 l -61.924372774738885 -11.591896154433844" fill="#4dd2ff" stroke="none" /><path d="M 120.41448212921028 104.9243191809786 l 11.54982766039558 2.786014238573453 a32.88109398676624,32.88109398676624 0 0,0 -0.13745657264946598,0.5490706795865052 l -11.500159773451053 -2.9844127575573545" fill="#ff3004" stroke="none" /><path d="M 120.02730092923936 106.31721596034902 l 8.569938939681654 2.70321773464407 a29.986169347990618,29.986169347990618 0 0,0 -0.15950892754807833,0.49091800034720445 l -8.522137761117328 -2.8503346349690695" fill="#ff0000" stroke="none" /><path d="M 119.41010516605496 108.01547362559984 l 8.977407901389686 3.707253291222937 a30.71275345065534,30.71275345065534 0 0,0 -0.20599338992415872,0.4869075243170288 l -8.912263530273218 -3.8612353412061293" fill="#ff0c01" stroke="none" /><path d="M 119.26925614724726 108.34839909993367 l 10.231042527822467 4.432595922643228 a32.149983758712175,32.149983758712175 0 0,0 -0.22437460693257383,0.5059055054666434 l -10.15322683615862 -4.608049764602558" fill="#ff2403" stroke="none" /><path d="M 118.97047184881838 109.00673069616215 l 8.747663195326345 4.1531832865792 a30.683519132566833,30.683519132566833 0 0,0 -0.2306330271750372,0.47517234722673835 l -8.674876911536593 -4.303144589771214" fill="#ff0c01" stroke="none" /><line stroke="#e1ed5e" stroke-width="0.3" x1="174.80103733775053" x2="179.2010983576182" y1="140.37084112569926" y2="142.7455964860345" /><path d="M 175.68104954172406 140.8457921977663 a86.0,86.0 0 0,1 -30.038265399797805,32.042727171017184" fill="none" id="id137" stroke="none" /><text fill="#e1ed5e" style="font-size:6.75px; font-family:Arial;" text-anchor="middle"><textPath startOffset="22.206326154141568" xlink:href="#id137">May</textPath></text><line stroke="#e1ed5e" stroke-width="0.3" x1="143.8653032363475" x2="146.44561519142675" y1="172.8068346515853" y2="177.08958963109032" /><path d="M 144.38136562736335 173.6633856474863 a86.0,86.0 0 0,1 -40.68145358897372,12.25698825130547" fill="none" id="id138" stroke="none" /><text fill="#e1ed5e" style="font-size:6.75px; font-family:Arial;" text-anchor="middle"><textPath startOffset="21.466115282336833" xlink:href="#id138">June</textPath></text><line stroke="#e1ed5e" stroke-width="0.3" x1="102.19456741930631" x2="102.32365962044197" y1="184.97166512339345" y2="189.96999836594603" /><path d="M 102.22038585953345 185.97133177190398 a86.0,86.0 0 0,1 -42.740103519485714,-10.115201625700543" fill="none" id="id139" stroke="none" /><text fill="#e1ed5e" style="font-size:6.75px; font-family:Arial;" text-anchor="middle"><textPath startOffset="22.20632615414155" xlink:href="#id139">July</textPath></text><line stroke="#e1ed5e" stroke-width="0.3" x1="58.666819895761336" x2="56.23545636021788" y1="174.27360380694188" y2="178.64263932499728" /><path d="M 58.180547188652646 175.14741091055294 a86.0,86.0 0 0,1 -31.652253787137756,-30.449443065178592" fill="none" id="id140" stroke="none" /><text fill="#e1ed5e" style="font-size:6.75px; font-family:Arial;" text-anchor="middle"><textPath startOffset="22.20632615414155" xlink:href="#id140">August</textPath></text><line stroke="#e1ed5e" stroke-width="0.3" x1="26.63291911575756" x2="22.317208475507996" y1="142.92168965132927" y2="145.44649492493687" /><path d="M 25.769776987707644 143.4266507060508 a86.0,86.0 0 0,1 -11.730757126820373,-40.83630448921669" fill="none" id="id141" stroke="none" /><text fill="#e1ed5e" style="font-size:6.75px; font-family:Arial;" text-anchor="middle"><textPath startOffset="21.46611528233685" xlink:href="#id141">September</textPath></text><line stroke="#e1ed5e" stroke-width="0.3" x1="15.007084014347285" x2="10.007500721073583" y1="101.09737516637583" y2="101.16192664675087" /><path d="M 14.007167355692545 101.11028546245083 a86.0,86.0 0 0,1 10.666146001902534,-42.60595125391555" fill="none" id="id142" stroke="none" /><text fill="#e1ed5e" style="font-size:6.75px; font-family:Arial;" text-anchor="middle"><textPath startOffset="22.20632615414155" xlink:href="#id142">October</textPath></text><line stroke="#e1ed5e" stroke-width="0.3" x1="26.266209847984243" x2="21.928928074336255" y1="57.711370442889674" y2="55.22380399835377" /><path d="M 25.398753493254645 57.213857153982495 a86.0,86.0 0 0,1 29.58750427330803,-30.492523968695096" fill="none" id="id143" stroke="none" /><text fill="#e1ed5e" style="font-size:6.75px; font-family:Arial;" text-anchor="middle"><textPath startOffset="21.46611528233685" xlink:href="#id143">November</textPath></text><line stroke="#e1ed5e" stroke-width="0.3" x1="56.762969772571076" x2="54.21961505331055" y1="26.818313649435495" y2="22.513508569990535" /><path d="M 56.25429882871897 25.957352633546506 a86.0,86.0 0 0,1 42.265352541879196,-11.944610805530505" fill="none" id="id144" stroke="none" /><text fill="#e1ed5e" style="font-size:6.75px; font-family:Arial;" text-anchor="middle"><textPath startOffset="22.20632615414155" xlink:href="#id144">December</textPath></text></svg>